<svg xmlns="http://www.w3.org/2000/svg" xmlns:xlink="http://www.w3.org/1999/xlink" viewBox="0 0 150.02 60.02"><defs><style>.cls-1{fill:url(#linear-gradient);}.cls-2{fill:url(#linear-gradient-2);}.cls-3{fill:url(#linear-gradient-3);}.cls-4{fill:url(#linear-gradient-4);}.cls-5{fill:url(#linear-gradient-5);}.cls-6{fill:url(#linear-gradient-6);}.cls-7{fill:url(#linear-gradient-7);}.cls-8{fill:url(#linear-gradient-8);}.cls-9{fill:url(#linear-gradient-9);}.cls-10{fill:url(#linear-gradient-10);}.cls-11{fill:url(#linear-gradient-11);}.cls-12{fill:url(#linear-gradient-12);}.cls-13{fill:url(#linear-gradient-13);}.cls-14{fill:#231f20;}</style><linearGradient id="linear-gradient" x1="2038.25" y1="-288.48" x2="2038.25" y2="-310.52" gradientTransform="matrix(-1, 0.04, 0.04, 1, 2074.37, 229.59)" gradientUnits="userSpaceOnUse"><stop offset="0.35" stop-color="#ddbb7f"/><stop offset="0.74" stop-color="#f9d78e"/></linearGradient><linearGradient id="linear-gradient-2" x1="2015.45" y1="-287.56" x2="2015.45" y2="-307.24" gradientTransform="matrix(-1, 0.04, 0.04, 1, 2074.37, 229.59)" gradientUnits="userSpaceOnUse"><stop offset="0.24" stop-color="#bc5927"/><stop offset="1" stop-color="#e37729"/><stop offset="1" stop-color="#ec7d2a"/></linearGradient><linearGradient id="linear-gradient-3" x1="1936.5" y1="-271.67" x2="1936.5" y2="-280.1" gradientTransform="matrix(-1, 0.04, 0.04, 1, 2074.37, 229.59)" gradientUnits="userSpaceOnUse"><stop offset="0" stop-color="#171717"/><stop offset="0.36" stop-color="#231f20"/></linearGradient><linearGradient id="linear-gradient-4" x1="1981.22" y1="-269.95" x2="1981.22" y2="-285.79" xlink:href="#linear-gradient-3"/><linearGradient id="linear-gradient-5" x1="1943.68" y1="-275.02" x2="1943.68" y2="-284.07" gradientTransform="matrix(-1, 0.04, 0.04, 1, 2074.37, 229.59)" gradientUnits="userSpaceOnUse"><stop offset="0" stop-color="#ec7d2a"/><stop offset="0.51" stop-color="#b65127"/></linearGradient><linearGradient id="linear-gradient-6" x1="1978.38" y1="-280.54" x2="1978.38" y2="-289.28" xlink:href="#linear-gradient-5"/><linearGradient id="linear-gradient-7" x1="1966.53" y1="-282.4" x2="1966.53" y2="-293.26" gradientTransform="matrix(-1, 0.04, 0.04, 1, 2074.37, 229.59)" gradientUnits="userSpaceOnUse"><stop offset="0.22" stop-color="#ddbb7f"/><stop offset="0.43" stop-color="#f9d78e"/></linearGradient><linearGradient id="linear-gradient-8" x1="1941.82" y1="-266.64" x2="1941.82" y2="-279.31" xlink:href="#linear-gradient-3"/><linearGradient id="linear-gradient-9" x1="2010.63" y1="-271.69" x2="2010.63" y2="-285.47" xlink:href="#linear-gradient-3"/><linearGradient id="linear-gradient-10" x1="1939.48" y1="-278.96" x2="1928.08" y2="-298.7" gradientTransform="matrix(-1, 0.04, 0.04, 1, 2074.37, 229.59)" gradientUnits="userSpaceOnUse"><stop offset="0.22" stop-color="#ddbb7f"/><stop offset="0.75" stop-color="#f9d78e"/></linearGradient><linearGradient id="linear-gradient-11" x1="1961.68" y1="-275.49" x2="1961.68" y2="-312.89" gradientTransform="matrix(-1, 0.04, 0.04, 1, 2074.37, 229.59)" gradientUnits="userSpaceOnUse"><stop offset="0.16" stop-color="#bc5927"/><stop offset="0.4" stop-color="#ec7d2a"/></linearGradient><linearGradient id="linear-gradient-12" x1="1924.36" y1="-301.47" x2="1924.36" y2="-306.67" gradientTransform="matrix(-1, 0.04, 0.04, 1, 2074.37, 229.59)" gradientUnits="userSpaceOnUse"><stop offset="0.22" stop-color="#ddbb7f"/><stop offset="0.52" stop-color="#f9d78e"/></linearGradient><linearGradient id="linear-gradient-13" x1="1929.54" y1="-303.56" x2="1929.54" y2="-312.45" xlink:href="#linear-gradient-12"/></defs><title>banner portfolio</title><g id="Layer_4" data-name="Layer 4"><path class="cls-1" d="M34.41,12.82S27,12,25,8c0,0-2.26.39-.19,6,0,0-11-6.2-15.65-6,0,0-7-.21-9.2,1C0,9,3.6,21,10,25.09c0,0,4.48,3.16,12.48,3.45l15.85.12,11.52-9.43-6.21-4.61Z"/><path class="cls-2" d="M73.48,8.36s-15.27,9-39.07,4.46c0,0-1.48,6.52,6.74,6.75,0,0-4,3-15.28.95,0,0,1.57,2.36,2.14,2.11,0,0-6.66.34-5.54,5.91,0,0,11.27,3.89,25.82-1.94,0,0,15.76-4.84,17.82-6.44A32.38,32.38,0,0,0,70.72,15L73,10Z"/><path class="cls-3" d="M124.51,33.9s2.37,3.48,4.21,3.11c0,0,4.42-.58,5.49.54,0,0,3,1.73,1,3.72,0,0-1.45.51-2.2-2.15,0,0-6.9,1-8.79.18l-1.89-.79-2.58-1.9,1-2.56,3-.69Z"/><path class="cls-4" d="M86.57,34.52S83.68,35,83.14,36c0,0-.43,5.37,1.72,7.62,0,0,1.51,0,1.08,1.09,0,0-.38,1-2.52.11l-6.31-8.42,1.44-2,0-.9L81.31,31l4.44-1.73,2.85,1.45Z"/><path class="cls-5" d="M123.31,29.78a38.5,38.5,0,0,0,1.2,4.12s-.89.44-.4,2.48a3.4,3.4,0,0,1-2.22-.42s.31,2.11.44,2.55l-1.78-.85-4.26-5.6,1.18-2.4Z"/><path class="cls-6" d="M92.85,30.44s-4.43,3.91-6.28,4.08a3,3,0,0,0,.5-1.19c0-.7-1.13-.53-1.61-.4a11.45,11.45,0,0,0-1.57.68c-.17.07-1.69.7-1.48.17.12-.31.5-.49.75-.69s.74-.61,1.11-.91a.74.74,0,0,0,.22-.25c.33-.71-1.35-.32-1.61-.27a8.1,8.1,0,0,0-4.43,2.89A18.32,18.32,0,0,1,79.57,28l11.85-2.47Z"/><path class="cls-7" d="M110.59,31.39S100.05,32.87,94,30.93c0,0-8.22-2.15-12.08-1.34l5.6-7.84,10.81,0,9.69,2,3,2.07L112.79,29Z"/><path class="cls-8" d="M120.09,35.82s.86,6.52,6.75,8.61c0,0,4.41-.59,3.95,1.45,0,0-1.44,1.53-4.36.18,0,0-9.62-4.6-12-9.05l2.67-2.57Z"/><path class="cls-9" d="M61.2,38a4.5,4.5,0,0,0-4.85.84c-.62.6-1.27,1.16-1.93,1.7a29.84,29.84,0,0,1-4.36,3,12.86,12.86,0,0,1-2.21,1,11.77,11.77,0,0,1-1.66.39,12.25,12.25,0,0,1-1.59.26,3.61,3.61,0,0,1-1.27-.11,2.18,2.18,0,0,1-.61-.25c-.1-.06-.49-.29-.5-.42s-.09-2,4.36-1.07c0,0,8.47-11,10.43-12l7.93-.83.24,5.56L63,38.37Z"/><path class="cls-10" d="M148.24,22.77s-.43,2.37-13.47,2.83c0,0-9.94,2.31-11.51,4.27l-5.11,1.19a48.37,48.37,0,0,1-2.54-4.29c.15-.1,1.87-7.85,1.87-7.85l0-4.31,2.4-2.15,12.48.34,7.1,4.73,7.36,3,1.5.72Z"/><path class="cls-11" d="M147.15,20.59S142,19,140.44,16.32a17.08,17.08,0,0,0-4-4.89L142.26,6l-6.67,1.76s.8-6.93.62-7.73c0,0-4.61,5.26-7,5.58,0,0-5.18,2.13-6.78,4.11,0,0-10.63,1.8-17.28-.46,0,0-26.7-7-32.65,0,0,0-5.32,3.56-7.19,14.59,0,0-2.36,6.45-8.28,7.49,0,0,.47,1.23,5.07.81,0,0-2.84,2.18-3.19,2.63,0,0,3.68.28,4.25-.18,0,0-2.18,2.34-1.94,3.36,0,0,7.18,3.25,19.52-7.54,0,0,7.69-6.45,20.63-2.24,0,0,7.57,1.95,9,1.52,0,0-.28,3.61,4.06,7.3.23.18,1.2-.37,1.51-.33.78.09,1.11.94,1.5,1.48.22-.23.06-.86,0-1.2a1.14,1.14,0,0,1,.08-.52c.42-.74,1.75,1.42,1.94,1.72a3.83,3.83,0,0,1-.08-1.47c0-.09.59-1.12.66-.84-.54-2.17-1.4-4.38-.79-6.65,0,0,5.73-3.08,6.06-5.73,0,0-4.34-4.12-4-9.36a4.3,4.3,0,0,1,1-.14,17,17,0,0,1,3.11.08,25.64,25.64,0,0,1,4.84.9,14.78,14.78,0,0,1,2.31.91,23.77,23.77,0,0,1,2.08,1.34,29,29,0,0,0,3.83,2A19.46,19.46,0,0,0,143,20.65,9.74,9.74,0,0,0,147.15,20.59Z"/><path class="cls-12" d="M142.26,6s-7,1.84-7.2,3.94l1.35,1.52Z"/><path class="cls-13" d="M136.24.44s-5.1,7.77-5.78,9.08c0,0,3.36.44,5.13-1.79Z"/><path class="cls-14" d="M148.24,22.67a1.59,1.59,0,0,0,1-.37c.34-.28.94-1.09.51-1.5a2,2,0,0,0-1.15-.35c-.6-.06-2.84-.07-2.27,1.09a1.52,1.52,0,0,0,.3.38A2.56,2.56,0,0,0,148.24,22.67Z"/><path d="M136,15.74a1.46,1.46,0,0,1,.22,0,2.74,2.74,0,0,1,2.76,1.5,1.58,1.58,0,0,0,.06-.69A1.68,1.68,0,0,0,137.2,15,1.65,1.65,0,0,0,136,15.74Z"/><path d="M29.72,49H27.05v4.35h2.46v.91H27.05v5.3H26V48.12h3.69Z"/><path d="M39.18,58.77a.78.78,0,0,1-.23.58.81.81,0,0,1-.59.23H35.15a.78.78,0,0,1-.58-.23.75.75,0,0,1-.23-.58V48.93a.77.77,0,0,1,.81-.81h3.21a.8.8,0,0,1,.59.22.82.82,0,0,1,.23.59Zm-1-.09V49h-2.8v9.66Z"/><path d="M48.75,59.58h-1l-1.53-4.71-1.53,4.71h-1v-.06l2-5.81q-1.94-5.57-1.92-5.59h1.07l1.37,4.35,1.43-4.35h1v.06l-1.9,5.47C48.08,57.59,48.76,59.56,48.75,59.58Z"/><path d="M70.21,57.51a2,2,0,0,1-.6,1.49,2.07,2.07,0,0,1-1.51.58H65.48V48.12H68.1a2.05,2.05,0,0,1,1.51.58,2,2,0,0,1,.6,1.49Zm-1-.11V50.28a1.2,1.2,0,0,0-.36-.91,1.21,1.21,0,0,0-.92-.35H66.5v9.66h1.35a1.37,1.37,0,0,0,1-.34A1.24,1.24,0,0,0,69.19,57.4Z"/><path d="M79,59.58H75.2V48.12h3.72V49h-2.7V53.3h2.46v.91H76.22v4.47H79Z"/><path d="M88.24,48.12l-2,11.49h-1l-2-11.49h1l1.42,9.12.05.75c0-.17,0-.42,0-.75l1.42-9.12Z"/><path d="M96.59,59.58H92.83V48.12h3.72V49h-2.7V53.3h2.46v.91H93.85v4.47h2.74Z"/><path d="M105.06,59.58h-3.67V48.12h1V58.68h2.65Z"/><path d="M114.5,58.77a.78.78,0,0,1-.23.58.82.82,0,0,1-.59.23h-3.21a.82.82,0,0,1-.59-.23.78.78,0,0,1-.22-.58V48.93a.76.76,0,0,1,.81-.81h3.21a.77.77,0,0,1,.82.81Zm-1-.09V49h-2.8v9.66Z"/><path d="M124.08,54.21a.81.81,0,0,1-.23.59.77.77,0,0,1-.59.23h-2.7v4.55h-1V48.12h3.72a.8.8,0,0,1,.59.22.82.82,0,0,1,.23.59Zm-1-.09V49h-2.5v5.1Z"/></g></svg>