<svg id="Layer_1" data-name="Layer 1" xmlns="http://www.w3.org/2000/svg" xmlns:xlink="http://www.w3.org/1999/xlink" viewBox="0 0 480 500"><defs><style>.cls-1{fill:url(#linear-gradient);}.cls-2{fill:url(#linear-gradient-2);}.cls-3{fill:url(#linear-gradient-3);}.cls-4{fill:url(#linear-gradient-4);}.cls-5{fill:url(#linear-gradient-5);}.cls-6{fill:url(#linear-gradient-6);}.cls-7{fill:url(#linear-gradient-7);}.cls-8{fill:url(#linear-gradient-8);}.cls-9{fill:url(#linear-gradient-9);}.cls-10{fill:url(#linear-gradient-10);}.cls-11{fill:none;stroke:#000;stroke-miterlimit:10;stroke-width:0.5px;}</style><linearGradient id="linear-gradient" x1="240" y1="500" x2="240" gradientUnits="userSpaceOnUse"><stop offset="0.22" stop-color="#27aae1"/><stop offset="0.83" stop-color="#ee375f"/><stop offset="1" stop-color="#e76b24"/></linearGradient><linearGradient id="linear-gradient-2" x1="240" y1="500" x2="240" y2="315.09" gradientUnits="userSpaceOnUse"><stop offset="0" stop-color="#415224"/><stop offset="1" stop-color="#372311"/></linearGradient><linearGradient id="linear-gradient-3" x1="82.59" y1="424.56" x2="221.57" y2="285.59" gradientTransform="matrix(-1, 0, 0, 1, 494.05, 0)" gradientUnits="userSpaceOnUse"><stop offset="0.16" stop-color="#bc5927"/><stop offset="0.4" stop-color="#ec7d2a"/></linearGradient><linearGradient id="linear-gradient-4" x1="165.5" y1="453.69" x2="165.5" y2="283.3" gradientTransform="matrix(-1, 0, 0, 1, 494.05, 0)" gradientUnits="userSpaceOnUse"><stop offset="0.22" stop-color="#ddbb7f"/><stop offset="0.43" stop-color="#f9d78e"/></linearGradient><linearGradient id="linear-gradient-5" x1="149.11" y1="385.03" x2="149.11" y2="465.82" gradientTransform="matrix(-1, 0, 0, 1, 494.05, 0)" gradientUnits="userSpaceOnUse"><stop offset="0" stop-color="#171717"/><stop offset="0.36" stop-color="#231f20"/></linearGradient><linearGradient id="linear-gradient-6" x1="180.03" y1="384.33" x2="180.03" y2="465.55" gradientTransform="matrix(-1, 0, 0, 1, 494.05, 0)" gradientUnits="userSpaceOnUse"><stop offset="0" stop-color="#171717"/><stop offset="0.37" stop-color="#231f20"/></linearGradient><linearGradient id="linear-gradient-7" x1="144.8" y1="276.54" x2="125.78" y2="257.52" gradientTransform="matrix(-1, 0, 0, 1, 494.05, 0)" gradientUnits="userSpaceOnUse"><stop offset="0.22" stop-color="#ddbb7f"/><stop offset="0.52" stop-color="#f9d78e"/></linearGradient><linearGradient id="linear-gradient-8" x1="179.33" y1="269.99" x2="179.33" y2="244.75" xlink:href="#linear-gradient-7"/><linearGradient id="linear-gradient-9" x1="95.2" y1="496.7" x2="54.05" y2="425.44" gradientTransform="matrix(-1, 0, 0, 1, 494.05, 0)" gradientUnits="userSpaceOnUse"><stop offset="0.82" stop-color="#bc5927"/><stop offset="1" stop-color="#e37729"/><stop offset="1" stop-color="#ec7d2a"/></linearGradient><linearGradient id="linear-gradient-10" x1="91.34" y1="498.93" x2="55.34" y2="436.57" gradientTransform="matrix(-1, 0, 0, 1, 494.05, 0)" gradientUnits="userSpaceOnUse"><stop offset="0.35" stop-color="#ddbb7f"/><stop offset="0.74" stop-color="#f9d78e"/></linearGradient></defs><title>banner-cel</title><rect class="cls-1" width="480" height="500"/><path class="cls-2" d="M0,340.78s203.78-55.6,480-3.21V500H0Z"/><path class="cls-3" d="M301.08,392.2c-6.75,9.7-6.33,58.22,13.5,58.22l1.77.31c3.92.65,13.91,2.18,25.47,3,13.91.95,30.1.8,40.68-3.27,7.38-2.84,12.93-8.64,14.46-16.5a30.47,30.47,0,0,0-1.19-15.18c-1.47-4.5-5-8-7.88-11.57a61.18,61.18,0,0,1-4.37-6.2c-1.35-2.19-2.32-4.58-3.63-6.77a115.38,115.38,0,0,1-7-14.58c-1.18-2.8-2.2-5.65-3.23-8.51-1.55-4.31-1.32-8.75-2.29-13.13-.58-2.63-1.4-5.29-2.13-7.89a105.16,105.16,0,0,0-7.08-19.24,32.34,32.34,0,0,0-5.74-8.37c-.1-.11-.21-.21-.32-.31l.57-.54s0,0,0,0,.26-.23.42-.39l0,0,.89-.83.16-.17c3.67-3.49,11.32-10.84,15.9-15.9l.08-.08.1-.12.21-.25.39-.47.18-.22.37-.45.15-.19c.64-.8,1.25-1.57,1.64-2.08.09-.12.17-.23.24-.31a.13.13,0,0,1,0-.05s0,0,0-.06l.11-.2-13.51-14.34s9.51-21.63,5.91-33.76c0,0-22.2,7.6-25.65,18.15,0,0-5.15-1.7-14.43-2.11,0,0-1.68-19.84-9.28-26.16,0,0-13.36,10.14-12.65,28.27,0,0-15.94,12.22-20.58,13.49,0,.07.39.33.41.4s.26.33.3.54-.09.61,0,.95.44.93.54,1.38-.39,1.08-.26,1.63.31,1.3.47,1.95.36,1.45.55,2.17.42,1.59.64,2.38.47,1.7.72,2.54.53,1.78.8,2.67.58,1.85.89,2.76.63,1.88,1,2.82.69,1.89,1,2.83.73,1.89,1.12,2.82.79,1.85,1.21,2.77.83,1.79,1.28,2.67.88,1.71,1.36,2.55.93,1.61,1.44,2.39,1,1.48,1.51,2.19,1,1.33,1.59,2c.24.26.48-.1.73.15s.29.27.42.39a3.77,3.77,0,0,1,.42.6A11.56,11.56,0,0,1,302,330c.11,1.12.46,2.14.48,3.27.26,10.88,1.69,21.68,3.09,32.46a45.53,45.53,0,0,1,.14,13.54A30.57,30.57,0,0,1,301.08,392.2Z"/><path class="cls-4" d="M286.76,301.24c.26.91.55,1.81.86,2.71a69.17,69.17,0,0,0,10.63,19.9c1,1.33,2.58,2.64,3.31,4.14s.23,3.78.38,5.39c.2,2.14.29,4.31,1.48,6.13a36.3,36.3,0,0,1,1.88,3.74,99.23,99.23,0,0,1,6.13,15.65,120.61,120.61,0,0,1,4,18.31,118,118,0,0,1,1,22.54c-.2,3.64-.56,7.28-1.09,10.89L314,435.94l2.34,14.79c3.92.65,13.91,2.18,25.46,3,.6-3.13.72-9.41-1.42-22-4-23.66,0-1.41,0-1.41v-25c.11-1.74.15-3.48.17-5.22q.1-6.65-.23-13.29a178.17,178.17,0,0,0-1.72-17.85,113.77,113.77,0,0,0-4.32-18.86c-.6-1.85-1.13-3.79-1.87-5.58-1.34-3.22-4.42-6.79-1.35-10.13a11.25,11.25,0,0,1,4.11-2.41c14.48-6.08,27.07-17,36.44-29.51a25.63,25.63,0,0,0,2-2.62c-3-1.77-6.67-2.88-9.95-4-6.27-2.07-13-3.7-19.69-3.2a18.1,18.1,0,0,0-9.59,3.22l-11,9.28-5.91-9.85a.85.85,0,0,1-.06-.17c-.07-.16-.16-.32-.24-.48s-.29-.51-.45-.75a11.07,11.07,0,0,0-.7-.95c-.32-.39-.65-.76-1-1.12s-.88-.83-1.35-1.21a18.13,18.13,0,0,0-1.75-1.27,24.79,24.79,0,0,0-2.18-1.27,27.83,27.83,0,0,0-2.66-1.22c-1-.42-2.11-.79-3.18-1.12-1.24-.37-2.5-.69-3.76-1-1.45-.31-2.91-.55-4.37-.75-1.67-.23-3.35-.39-5-.5q-2.86-.18-5.73-.18H284c-.1,0-.46-.1-.5,0s.16.41.18.49a15.24,15.24,0,0,1,.67,3.85c0,.52.15,1.05.15,1.58A68.57,68.57,0,0,0,286.76,301.24Z"/><path class="cls-5" d="M359.16,389s-14,25.73-16.85,45.14c0,0-4.81,21.8-4.52,29.39,0,0-2,3.38-6.75,2,0,0-2-2.6,4-6.18l1.2-49.93s1-15.75,9.28-24.33c0,0,.7,3.1,3,4.22l8.3-3.09Z"/><path class="cls-6" d="M314.16,384.33a20.34,20.34,0,0,0-8.3,20.81l-2.39-1.55s2.39,25.46,8.58,34.18c0,0,4.22,25.87,6.05,27.28,0,0,4.36,1.13,5.2,0,0,0,4.08-2.67-2.39-4.36,0,0-3.09-20.39-3.38-24.61S313.18,390.66,314.16,384.33Z"/><path d="M331.33,297.11a1.31,1.31,0,0,0-1.16-.22,24,24,0,0,1-11.73-1.3,1.88,1.88,0,0,0-1.08-.2c-.89.19-.65,1.86-.59,2.5a9.65,9.65,0,0,0,.91,3.33c.63,1.33,1.8,3.14,3.2,3.78,2.8,1.3,6.07-.61,8-2.59a11,11,0,0,0,2.55-4.1C331.59,297.74,331.55,297.34,331.33,297.11Z"/><path d="M337.18,289.53a3.06,3.06,0,0,0,.34,1.9,5.9,5.9,0,0,1,5.5-1.88,6.35,6.35,0,0,1,2.29.79,3.91,3.91,0,0,0-3.55-3.62C339.52,286.37,337.47,287.63,337.18,289.53Z"/><path d="M314.88,286.7a3.09,3.09,0,0,1-.9,1.73,5.92,5.92,0,0,0-4.67-3.49,6.52,6.52,0,0,0-2.42.07,3.93,3.93,0,0,1,4.49-2.41A3.84,3.84,0,0,1,314.88,286.7Z"/><path class="cls-7" d="M357.26,282.3s8.31-8.63,7.81-28c0,0-15.59,5.54-22.36,15.68Z"/><path class="cls-8" d="M323.09,267.88s-1.34-19-6-23.13c0,0-10.69,5.66-10.69,25.24Z"/><path class="cls-9" d="M380,479a14.74,14.74,0,0,0,.52,2.33,12,12,0,0,0,.59,1.32c.13.26.26.52.41.77a22.43,22.43,0,0,0,2.94,3.89,4.59,4.59,0,0,0,.53.56,2.08,2.08,0,0,0,.21.21c.14.13.25.25.39.36.36.36.73.7,1.11,1s.47.41.71.6a25.53,25.53,0,0,0,8.81,3.63l.37.08,2.25.2.63.05c1,.06,2,.14,3,.18.56,0,1.14.06,1.71.08.38,0,.76,0,1.14.05.58,0,1.14,0,1.73.05l2,0h.31c1.8,0,3.55,0,5.24-.14h.3c.62,0,1.24-.07,1.86-.1l2.08-.17.89-.08.51-.06c.71-.06,1.4-.14,2.08-.24,1.61-.2,3.22-.46,4.81-.76l2-.41c.69-.15,1.36-.31,2-.48,1.1-.25,2.16-.55,3.21-.86l.06,0a57.8,57.8,0,0,0,6-2.14c1.14-.48,2.29-1,3.4-1.55a.36.36,0,0,0,.11,0l1.14-.59c.82-.44,1.64-.9,2.45-1.38s1.57-1,2.34-1.5c.52-.35,1-.71,1.54-1.09s1.13-.85,1.68-1.29a.67.67,0,0,1,.14-.11l.48-.41a3.61,3.61,0,0,1,.3-.25l1-.87h0c.49-.45,1-.91,1.45-1.37l.7-.72.57-.6c.72-.78,1.41-1.58,2.08-2.41.38-.47.74-.94,1.09-1.42s.58-.8.84-1.2.48-.7.71-1.06.46-.73.69-1.11.59-1,.87-1.54l0-.08q.69-1.29,1.29-2.64c.2-.43.38-.87.56-1.31s.37-.93.54-1.41c.06-.18.13-.36.19-.53s.11-.35.16-.5c.17-.52.33-1,.45-1.57.06-.19.1-.37.15-.55s0-.21.07-.32.09-.43.14-.64a.28.28,0,0,1,0-.09s0-.09,0-.13c.11-.5.21-1,.28-1.47,5.28-33.5-72.61-39.25-72.61-39.25l2.05,14.36a10.35,10.35,0,0,1,9.95,8.42,6.69,6.69,0,0,1-.5,3.32c-3,7.32-16.79,14.62-16.79,14.62-6.11,2.65-8.28,1-8.42.86l4,5.67c-.21.2-.42.4-.62.61s-.42.41-.62.62A15.35,15.35,0,0,0,380,479Z"/><path class="cls-10" d="M380,479a14.74,14.74,0,0,0,.52,2.33,15.37,15.37,0,0,0,3.69,6.09,18.92,18.92,0,0,0,3.2,2.66,25.53,25.53,0,0,0,8.81,3.63l.37.08a56.71,56.71,0,0,0,13.34.8c3.26-.11,6.53-.31,9.78-.66l.51-.06a83.17,83.17,0,0,0,13-2.43A54.94,54.94,0,0,0,453.81,481a3.61,3.61,0,0,1,.3-.25l1-.87h0c.49-.45,1-.91,1.45-1.37l.7-.72.57-.6c.72-.78,1.41-1.58,2.08-2.41.38-.47.74-.94,1.09-1.42s.58-.8.84-1.2.48-.7.71-1.06.46-.73.69-1.11.59-1,.87-1.54l0-.08q.69-1.29,1.29-2.64c.2-.43.38-.87.56-1.31s.37-.93.54-1.41c.06-.18.13-.36.19-.53s.11-.35.16-.5c.17-.52.33-1,.45-1.57.06-.19.1-.37.15-.55s0-.21.07-.32.09-.43.14-.64a.28.28,0,0,1,0-.09s0-.09,0-.13c.11-.5.21-1,.28-1.47-.34-.49-6.63-9.05-12.93-10.69,0,0-4.08-1.26-15.18-.85a79.77,79.77,0,0,1-.72-8.16s-4.91,4.09-6.46,3.81c0,0-22.4-.27-25.82,2.74-3,7.32-16.79,14.62-16.79,14.62-6.11,2.65-8.28,1-8.42.86l4,5.67c-.21.2-.42.4-.62.61s-.42.41-.62.62A15.35,15.35,0,0,0,380,479Z"/><path class="cls-11" d="M335.71,308.57s-9.46,5.09-13.24-3.24c0,0-4.73,5.55-13.32.24"/></svg>