<svg id="Layer_1" data-name="Layer 1" xmlns="http://www.w3.org/2000/svg" xmlns:xlink="http://www.w3.org/1999/xlink" viewBox="0 0 992 500"><defs><style>.cls-1{fill:url(#linear-gradient);}.cls-2{fill:url(#linear-gradient-2);}.cls-3{fill:url(#linear-gradient-3);}.cls-4{fill:url(#linear-gradient-4);}.cls-14,.cls-5{fill:none;stroke-miterlimit:10;}.cls-5{stroke:#efefef;}.cls-6{fill:url(#linear-gradient-5);}.cls-7{fill:url(#linear-gradient-6);}.cls-8{fill:url(#linear-gradient-7);}.cls-9{fill:url(#linear-gradient-8);}.cls-10{fill:url(#linear-gradient-9);}.cls-11{fill:url(#linear-gradient-10);}.cls-12{fill:url(#linear-gradient-11);}.cls-13{fill:url(#linear-gradient-12);}.cls-14{stroke:#000;stroke-width:0.5px;}.cls-15{fill:url(#linear-gradient-13);}</style><linearGradient id="linear-gradient" x1="495.91" y1="499.98" x2="495.91" y2="-0.02" gradientUnits="userSpaceOnUse"><stop offset="0.22" stop-color="#27aae1"/><stop offset="0.83" stop-color="#ee375f"/><stop offset="1" stop-color="#e76b24"/></linearGradient><linearGradient id="linear-gradient-2" x1="495.91" y1="499.98" x2="495.91" y2="315.07" gradientUnits="userSpaceOnUse"><stop offset="0" stop-color="#415224"/><stop offset="1" stop-color="#372311"/></linearGradient><linearGradient id="linear-gradient-3" x1="904.74" y1="124.67" x2="904.74" y2="82.02" gradientUnits="userSpaceOnUse"><stop offset="0.03" stop-color="#cae8ef"/><stop offset="0.44" stop-color="#fff"/></linearGradient><linearGradient id="linear-gradient-4" x1="851.5" y1="71.19" x2="851.5" y2="31.92" xlink:href="#linear-gradient-3"/><linearGradient id="linear-gradient-5" x1="-402.43" y1="381.94" x2="-193.95" y2="173.47" gradientTransform="matrix(-1, 0, 0, 1, 494.05, 0)" gradientUnits="userSpaceOnUse"><stop offset="0.16" stop-color="#bc5927"/><stop offset="0.4" stop-color="#ec7d2a"/></linearGradient><linearGradient id="linear-gradient-6" x1="-278.06" y1="425.63" x2="-278.06" y2="170.04" gradientTransform="matrix(-1, 0, 0, 1, 494.05, 0)" gradientUnits="userSpaceOnUse"><stop offset="0.22" stop-color="#ddbb7f"/><stop offset="0.43" stop-color="#f9d78e"/></linearGradient><linearGradient id="linear-gradient-7" x1="-302.65" y1="322.64" x2="-302.65" y2="443.82" gradientTransform="matrix(-1, 0, 0, 1, 494.05, 0)" gradientUnits="userSpaceOnUse"><stop offset="0" stop-color="#171717"/><stop offset="0.36" stop-color="#231f20"/></linearGradient><linearGradient id="linear-gradient-8" x1="-256.26" y1="321.59" x2="-256.26" y2="443.43" gradientTransform="matrix(-1, 0, 0, 1, 494.05, 0)" gradientUnits="userSpaceOnUse"><stop offset="0" stop-color="#171717"/><stop offset="0.37" stop-color="#231f20"/></linearGradient><linearGradient id="linear-gradient-9" x1="-309.11" y1="159.89" x2="-337.64" y2="131.36" gradientTransform="matrix(-1, 0, 0, 1, 494.05, 0)" gradientUnits="userSpaceOnUse"><stop offset="0.22" stop-color="#ddbb7f"/><stop offset="0.52" stop-color="#f9d78e"/></linearGradient><linearGradient id="linear-gradient-10" x1="-257.32" y1="150.07" x2="-257.32" y2="112.21" xlink:href="#linear-gradient-9"/><linearGradient id="linear-gradient-11" x1="-383.52" y1="490.15" x2="-445.24" y2="383.25" gradientTransform="matrix(-1, 0, 0, 1, 494.05, 0)" gradientUnits="userSpaceOnUse"><stop offset="0.82" stop-color="#bc5927"/><stop offset="1" stop-color="#e37729"/><stop offset="1" stop-color="#ec7d2a"/></linearGradient><linearGradient id="linear-gradient-12" x1="-389.31" y1="493.5" x2="-443.31" y2="399.96" gradientTransform="matrix(-1, 0, 0, 1, 494.05, 0)" gradientUnits="userSpaceOnUse"><stop offset="0.35" stop-color="#ddbb7f"/><stop offset="0.74" stop-color="#f9d78e"/></linearGradient><linearGradient id="linear-gradient-13" x1="37.39" y1="-128.42" x2="48.65" y2="-169.73" gradientTransform="matrix(-0.75, -0.66, -0.66, 0.75, 848.83, 412.21)" gradientUnits="userSpaceOnUse"><stop offset="0.01" stop-color="#006838"/><stop offset="0.66" stop-color="#60451d"/></linearGradient></defs><title>banner-tablet</title><rect class="cls-1" x="-0.18" y="-0.02" width="992.18" height="500"/><path class="cls-2" d="M-.18,340.76S421,285.16,992,337.56V500H-.18Z"/><path class="cls-3" d="M777.31,93.18l-.5-.05c8.24.76,20.19-4.4,28.51-5.81,74.67-12.62,200-1,227.35,17-9.53,2.19-17.59,8-26.89,10.71a244.76,244.76,0,0,1-35.13,7.38,253.52,253.52,0,0,1-69.44-.29,248.16,248.16,0,0,1-66.66-19.28C815.2,94.14,798.39,95.09,777.31,93.18Z"/><path class="cls-4" d="M751.15,71.19s19.9-29.94,104.12-15c0,0,69.36,17.2,96.57,5.39,0,0-90-2.18-100.34-21.43S757.42,37,751.15,71.19Z"/><path class="cls-5" d="M610.46,250.37s48.84,48.84,117.41,27.24,15-63-24.42-39.47,67.62,47,165.3,37.59"/><path class="cls-6" d="M730.9,333.39c-10.12,14.56-9.5,87.34,20.26,87.34l2.65.47c5.88,1,20.87,3.26,38.21,4.43,20.86,1.42,45.15,1.21,61-4.9,11.07-4.26,19.39-13,21.7-24.76a45.62,45.62,0,0,0-1.8-22.76c-2.2-6.75-7.46-11.95-11.81-17.36a90.15,90.15,0,0,1-6.56-9.31c-2-3.28-3.48-6.86-5.44-10.15a173.38,173.38,0,0,1-10.47-21.86c-1.77-4.21-3.29-8.48-4.83-12.77-2.34-6.46-2-13.13-3.45-19.71-.86-3.93-2.1-7.93-3.19-11.83-2.75-9.85-6-19.71-10.62-28.85a48.46,48.46,0,0,0-8.6-12.56c-.17-.16-.33-.32-.49-.46l.86-.81s0,0,0,0l.63-.59,0,0c.38-.35.82-.78,1.33-1.24.07-.07.14-.16.24-.25,5.5-5.24,17-16.26,23.85-23.85l.12-.13c0-.07.1-.12.15-.18l.32-.38.58-.71a3.82,3.82,0,0,1,.27-.32l.55-.68.22-.28c1-1.2,1.89-2.35,2.48-3.12l.35-.47,0-.06a.31.31,0,0,1,.05-.1,2.85,2.85,0,0,0,.16-.3L819.5,173.28s14.27-32.44,8.87-50.64c0,0-33.3,11.41-38.48,27.23,0,0-7.72-2.55-21.65-3.16,0,0-2.52-29.76-13.92-39.25,0,0-20,15.21-19,42.41,0,0-23.91,18.33-30.87,20.23,0,.11.59.5.61.61.06.32.4.5.46.82.11.51-.13.91,0,1.41.14.69.66,1.4.81,2.08s-.59,1.61-.39,2.45.46,1.94.71,2.91.54,2.18.83,3.27.63,2.38.95,3.56.71,2.55,1.08,3.82.79,2.67,1.21,4,.87,2.76,1.32,4.14,1,2.82,1.45,4.22,1,2.85,1.57,4.26,1.1,2.82,1.68,4.22,1.18,2.78,1.81,4.15,1.26,2.69,1.92,4,1.33,2.56,2,3.82,1.4,2.41,2.15,3.59,1.48,2.21,2.28,3.28,1.54,2,2.38,2.94c.35.39.72-.16,1.09.22.17.18.44.41.63.59a5.35,5.35,0,0,1,.63.9c.55,1.19.51,3.46.62,4.76.16,1.69.68,3.22.72,4.92.39,16.32,2.54,32.52,4.63,48.68.93,7.14,1.31,13.21.22,20.32C736.83,320.83,734.85,327.71,730.9,333.39Z"/><path class="cls-7" d="M709.41,196.94c.41,1.37.84,2.72,1.3,4.07a104.36,104.36,0,0,0,15.94,29.85c1.53,2,3.88,4,5,6.22s.34,5.67.56,8.09c.3,3.2.44,6.45,2.23,9.19a53.39,53.39,0,0,1,2.81,5.61,148.54,148.54,0,0,1,9.2,23.48,180,180,0,0,1,6,27.45,177.05,177.05,0,0,1,1.45,33.82c-.29,5.46-.83,10.92-1.63,16.34l-2,37.95,3.51,22.19c5.88,1,20.87,3.26,38.2,4.43.89-4.68,1.08-14.11-2.13-33-6.06-35.49,0-2.11,0-2.11V353c.15-2.6.21-5.21.25-7.82q.15-10-.34-19.94a266.75,266.75,0,0,0-2.59-26.77,171.74,171.74,0,0,0-6.48-28.31c-.91-2.76-1.69-5.68-2.8-8.35-2-4.84-6.63-10.2-2-15.2,1.62-1.77,4-2.69,6.17-3.62,21.71-9.12,40.6-25.56,54.65-44.27.28-.38,3.24-3.81,3-3.93-4.45-2.65-10-4.32-14.93-5.94-9.4-3.11-19.56-5.54-29.53-4.8-5.1.39-10.26,1.73-14.4,4.83l-16.46,13.93L755.57,188a1.17,1.17,0,0,1-.1-.26c-.11-.24-.23-.49-.36-.72a11.43,11.43,0,0,0-.67-1.12c-.33-.5-.68-1-1.05-1.44s-1-1.13-1.51-1.66-1.33-1.25-2-1.83a32.32,32.32,0,0,0-2.62-1.9c-1.06-.69-2.15-1.33-3.27-1.91q-2-1-4-1.83c-1.57-.63-3.17-1.18-4.78-1.67q-2.79-.84-5.64-1.44c-2.17-.47-4.36-.84-6.56-1.13-2.5-.34-5-.58-7.55-.75q-4.29-.27-8.6-.27c-.54,0-1.08,0-1.62,0-.15,0-.69-.15-.75,0s.23.63.27.74a23.21,23.21,0,0,1,1,5.77c0,.79.23,1.59.23,2.38A102.12,102.12,0,0,0,709.41,196.94Z"/><path class="cls-8" d="M818,328.55s-20.93,38.6-25.28,67.71c0,0-7.21,32.7-6.79,44.1,0,0-3,5.06-10.12,2.95,0,0-3-3.9,6-9.28l1.79-74.89s1.48-23.63,13.93-36.5c0,0,1,4.64,4.43,6.33l12.44-4.64Z"/><path class="cls-9" d="M750.52,321.59s-16.45,10.33-12.44,31.22l-3.59-2.32s3.59,38.18,12.87,51.26c0,0,6.33,38.82,9.07,40.93,0,0,6.54,1.68,7.81,0,0,0,6.11-4-3.59-6.54,0,0-4.64-30.59-5.06-36.92S749.05,331.08,750.52,321.59Z"/><path d="M776.28,190.76a2,2,0,0,0-1.74-.34,37,37,0,0,1-5.95.33A35.63,35.63,0,0,1,757,188.46a3,3,0,0,0-1.63-.29c-1.33.28-1,2.79-.88,3.75a14.54,14.54,0,0,0,1.37,5c1,2,2.7,4.7,4.79,5.67,4.2,1.94,9.11-.91,11.95-3.89a16.51,16.51,0,0,0,3.84-6.16C776.67,191.69,776.61,191.1,776.28,190.76Z"/><path d="M785.06,179.38a4.55,4.55,0,0,0,.5,2.85,8.93,8.93,0,0,1,8.26-2.83,9.85,9.85,0,0,1,3.43,1.2c0-2.61-2.23-5-5.33-5.44C788.57,174.64,785.5,176.53,785.06,179.38Z"/><path d="M751.6,175.14a4.68,4.68,0,0,1-1.34,2.59,8.9,8.9,0,0,0-7-5.23,9.63,9.63,0,0,0-3.64.1c.78-2.51,3.64-4.09,6.74-3.61C749.7,169.52,752.05,172.27,751.6,175.14Z"/><path class="cls-10" d="M815.18,168.53s12.47-12.94,11.71-42c0,0-23.38,8.3-33.54,23.52Z"/><path class="cls-11" d="M763.92,146.91s-2-28.58-9.07-34.7c0,0-16,8.49-16,37.86Z"/><path class="cls-12" d="M849.32,463.56a20.41,20.41,0,0,0,.78,3.49,16.82,16.82,0,0,0,.89,2,12.64,12.64,0,0,0,.61,1.15A33.46,33.46,0,0,0,856,476a6.15,6.15,0,0,0,.8.82,2.38,2.38,0,0,0,.31.33c.2.19.38.37.58.54.54.54,1.1,1,1.66,1.56l1.07.9a38.64,38.64,0,0,0,13.23,5.45l.55.11,3.37.3.94.07c1.47.1,3,.21,4.44.28q1.27.08,2.58.12c.56,0,1.14.05,1.7.07.87.05,1.72.07,2.6.08s2,0,3,0h.47c2.7,0,5.33-.07,7.86-.21h.45c.92,0,1.86-.11,2.79-.16s2.09-.16,3.12-.25l1.33-.12.77-.08c1.06-.1,2.1-.22,3.12-.37,2.42-.3,4.83-.69,7.22-1.14,1-.19,2.06-.4,3.06-.61s2-.47,3.05-.72c1.66-.38,3.25-.83,4.82-1.29l.09,0a82.87,82.87,0,0,0,9.07-3.21c1.72-.71,3.45-1.47,5.11-2.31a.77.77,0,0,0,.16-.07l1.71-.89c1.24-.66,2.47-1.34,3.67-2.06s2.36-1.47,3.52-2.25c.78-.54,1.55-1.07,2.31-1.64s1.7-1.28,2.52-1.93a1.68,1.68,0,0,1,.21-.18l.72-.61.44-.37c.51-.43,1-.86,1.49-1.31h0c.73-.67,1.45-1.36,2.17-2.06.35-.35.7-.7,1-1.07s.57-.59.85-.9c1.08-1.17,2.12-2.37,3.12-3.62.58-.69,1.11-1.4,1.64-2.13.44-.58.87-1.19,1.26-1.79s.73-1.05,1.07-1.6.69-1.09,1-1.65c.44-.77.89-1.55,1.31-2.33l0-.11c.7-1.29,1.33-2.61,1.94-3.95.3-.66.57-1.32.85-2s.55-1.41.81-2.12c.08-.26.19-.54.28-.8s.16-.51.23-.75c.26-.77.49-1.56.69-2.36.09-.28.14-.54.21-.82s.07-.31.11-.47c.07-.32.14-.65.21-1a.32.32,0,0,1,0-.14,1.38,1.38,0,0,1,0-.2c.16-.75.31-1.48.42-2.2C989.21,380.62,872.37,372,872.37,372l3.08,21.54c13.23.94,14.93,12.64,14.93,12.64a9.89,9.89,0,0,1-.76,5c-4.44,11-25.18,21.93-25.18,21.93-9.16,4-12.43,1.47-12.64,1.3l6,8.5c-.31.3-.64.6-.94.91s-.63.62-.92.94C850.76,450.2,848.45,457,849.32,463.56Z"/><path class="cls-13" d="M849.32,463.56a20.41,20.41,0,0,0,.78,3.49,23.2,23.2,0,0,0,5.53,9.14,29.06,29.06,0,0,0,4.8,4,38.64,38.64,0,0,0,13.23,5.45l.55.11c6.55,1.36,13.31,1.41,20,1.2,4.89-.16,9.79-.46,14.66-1l.77-.08a125.48,125.48,0,0,0,19.5-3.66A81.84,81.84,0,0,0,960,466.55l.44-.37c.51-.43,1-.86,1.49-1.31h0c.73-.67,1.45-1.36,2.17-2.06.35-.35.7-.7,1-1.07s.57-.59.85-.9c1.08-1.17,2.12-2.37,3.12-3.62.58-.69,1.11-1.4,1.64-2.13.44-.58.87-1.19,1.26-1.79s.73-1.05,1.07-1.6.69-1.09,1-1.65c.44-.77.89-1.55,1.31-2.33l0-.11c.7-1.29,1.33-2.61,1.94-3.95.3-.66.57-1.32.85-2s.55-1.41.81-2.12c.08-.26.19-.54.28-.8s.16-.51.23-.75c.26-.77.49-1.56.69-2.36.09-.28.14-.54.21-.82s.07-.31.11-.47c.07-.32.14-.65.21-1a.32.32,0,0,1,0-.14,1.38,1.38,0,0,1,0-.2c.16-.75.31-1.48.42-2.2-.52-.73-9.95-13.58-19.39-16,0,0-6.13-1.9-22.79-1.28a120.74,120.74,0,0,1-1.07-12.24s-7.36,6.13-9.69,5.71c0,0-33.61-.4-38.74,4.11-4.44,11-25.18,21.93-25.18,21.93-9.16,4-12.43,1.47-12.64,1.3l6,8.5c-.31.3-.64.6-.94.91s-.63.62-.92.94C850.76,450.2,848.45,457,849.32,463.56Z"/><path class="cls-14" d="M782.85,207.94s-14.19,7.64-19.86-4.86c0,0-7.1,8.33-20,.36"/><path class="cls-15" d="M943.17,263.15l-.32-.27-8.45.08c.19-.92-.51-.9-1.14-1a2.48,2.48,0,0,1-2.42-1.86c-.06-.24-.37-.58-.56-.58a16.47,16.47,0,0,0-3.06.22c-1.74.33-1.73.38-1.66-1.35,0-.5-.06-1-.69-.87a22.19,22.19,0,0,0-3.77,1.24c-1.92.92-3.75,2-5.64,3a5.8,5.8,0,0,1-1.13.29,17.61,17.61,0,0,1,.68-1.95c.54-1.11,1.17-2.18,1.71-3.3.25-.53.3-1.06-.48-1.33a1,1,0,0,1-.46-.76c.05-1.44.18-2.88.24-4.33a17.69,17.69,0,0,0-.13-1.92,13.73,13.73,0,0,0-1.72,1.61q-1.42,1.32-2.94,2.52c-.25.2-.7.13-1.05.24a2.9,2.9,0,0,0-1,.44,4.67,4.67,0,0,0-.59.84c-.45.54-.89,1-1.59.24a.82.82,0,0,0-.8,0c-.76.67-1.46,1.41-2.17,2.14-.19.19-.3.5-.52.6a2,2,0,0,0-1.1,1.5c-.14.52-.73.92-1.11,1.38a8,8,0,0,1-.94-1.18c-.46-.87-.84-1.79-2.1-1.59l-.27.31c-.19.39-.34.79-.56,1.16-.41.66-.88,1.29-1.3,1.95a5.9,5.9,0,0,1-.6,1.08,3.38,3.38,0,0,0-1,2.54,4.32,4.32,0,0,1-.79,3,.92.92,0,0,0,0,.87,21.7,21.7,0,0,0,2.34,2.8,16.51,16.51,0,0,0,2.42,1.58l-.06.32-7.61,1.42.05.28c2.89-.24,5.7-1.19,8.83-1.25-.73.83-1.23,1.45-1.77,2-2.19,2.31-2.29,5.11-1.9,8,.11.85.56,1.32,1.52,1a.79.79,0,0,1,.69.21c.51,1,1,2.12,1.41,3.18l.31.27a4.08,4.08,0,0,1,1.26.28c1.2.74,2.33,1.58,3.52,2.33.83.53,1.29.3,1.4-.67.07-.58,0-1.18.1-1.76a.82.82,0,0,1,.36-.53c.1-.05.4.12.49.27a8.44,8.44,0,0,0,2.51,2.17,15.08,15.08,0,0,0,4,2c.86.31,1.29.23,1.34-.78,0-.79.31-.87,1.06-.48a39.7,39.7,0,0,0,3.87,1.58l0-.39c.4-.21.86-.67,1.21-.59,1.56.33,3.09.8,4.62,1.24.66.18,1.3.39,2.11.64-.61-2.07-2-3.56-1.7-5.57,0-.14-.15-.31-.24-.45-.56-.78-1.13-1.55-1.66-2.34-.15-.22-.33-.59-.24-.76.61-1.18-.32-1.51-1-1.95-.47-.29-1-.53-1.44-.81-.8-.48-1.61-.94-2.38-1.46-.18-.12-.38-.53-.31-.67a1.28,1.28,0,0,1,.71-.46,2.48,2.48,0,0,1,.72,0c1.83,0,3.66.08,5.49.05a1.11,1.11,0,0,0,.87-.56c.21-.67.54-.82,1.21-.81s1.41-.21,1.5-.51c.2-.74.71-.85,1.25-1a13.65,13.65,0,0,0,1.55-.57c.62-.3.83-.74.19-1.27-.18-.15-.37-.31-.54-.48-.82-.83-.75-1.4.28-1.91.8-.39,1.62-.74,2.44-1.11a1.18,1.18,0,0,0-.09-.45c-.69-.9-.22-1.29.61-1.7.43-.21.68-.76,1-1.16a25,25,0,0,1,3.66-2.53C940.78,264.21,942,263.71,943.17,263.15Z"/></svg>