<svg id="Layer_1" data-name="Layer 1" xmlns="http://www.w3.org/2000/svg" xmlns:xlink="http://www.w3.org/1999/xlink" viewBox="0 0 480 500"><defs><style>.cls-1{fill:url(#linear-gradient);}.cls-2{fill:url(#linear-gradient-2);}.cls-3{fill:url(#linear-gradient-3);}.cls-4{fill:url(#linear-gradient-4);}.cls-5{fill:url(#linear-gradient-5);}.cls-6{fill:url(#linear-gradient-6);}.cls-7{fill:url(#linear-gradient-7);}.cls-8{fill:url(#linear-gradient-8);}.cls-9{fill:url(#linear-gradient-9);}.cls-10{fill:url(#linear-gradient-10);}.cls-11{fill:url(#linear-gradient-11);}.cls-12{fill:url(#linear-gradient-12);}.cls-13{fill:url(#linear-gradient-13);}.cls-14{fill:url(#linear-gradient-14);}.cls-15{fill:url(#linear-gradient-15);}.cls-16{fill:url(#linear-gradient-16);}.cls-17{fill:none;stroke:#000;stroke-miterlimit:10;stroke-width:0.5px;}</style><linearGradient id="linear-gradient" x1="290.98" y1="75.92" x2="290.98" y2="17.59" gradientTransform="matrix(-1, 0, 0, 1, 435.84, 0)" gradientUnits="userSpaceOnUse"><stop offset="0.59" stop-color="#ec7d2a"/><stop offset="0.88" stop-color="#bc5927"/></linearGradient><linearGradient id="linear-gradient-2" x1="286.95" y1="76.2" x2="286.95" y2="32.45" gradientTransform="matrix(-1, 0, 0, 1, 435.84, 0)" gradientUnits="userSpaceOnUse"><stop offset="0" stop-color="#171717"/><stop offset="0.36" stop-color="#231f20"/></linearGradient><linearGradient id="linear-gradient-3" x1="105.5" y1="51.26" x2="105.5" y2="-52.15" gradientTransform="matrix(-1, 0, 0, 1, 435.84, 0)" gradientUnits="userSpaceOnUse"><stop offset="0.3" stop-color="#bc5927"/><stop offset="1" stop-color="#e37729"/></linearGradient><linearGradient id="linear-gradient-4" x1="47.98" y1="40.19" x2="47.98" y2="-47.6" gradientTransform="matrix(-1, 0, 0, 1, 435.84, 0)" gradientUnits="userSpaceOnUse"><stop offset="0.35" stop-color="#ddbb7f"/><stop offset="0.74" stop-color="#f9d78e"/></linearGradient><linearGradient id="linear-gradient-5" x1="307.8" y1="96.17" x2="307.8" y2="-217.76" gradientTransform="matrix(-1, 0, 0, 1, 435.84, 0)" gradientUnits="userSpaceOnUse"><stop offset="0.24" stop-color="#bc5927"/><stop offset="0.47" stop-color="#ec7d2a"/></linearGradient><linearGradient id="linear-gradient-6" x1="218.8" y1="93.54" x2="218.8" y2="40.02" xlink:href="#linear-gradient-2"/><linearGradient id="linear-gradient-7" x1="365.35" y1="31.14" x2="365.35" y2="-151.27" gradientTransform="matrix(-1, 0, 0, 1, 435.84, 0)" gradientUnits="userSpaceOnUse"><stop offset="0.22" stop-color="#ddbb7f"/><stop offset="0.43" stop-color="#f9d78e"/></linearGradient><linearGradient id="linear-gradient-8" x1="324.27" y1="47.11" x2="324.27" y2="-10.13" xlink:href="#linear-gradient-2"/><linearGradient id="linear-gradient-9" x1="372.89" y1="97.71" x2="372.89" y2="26.55" xlink:href="#linear-gradient-2"/><linearGradient id="linear-gradient-10" x1="239.86" y1="500" x2="239.86" gradientUnits="userSpaceOnUse"><stop offset="0" stop-color="#21409a"/><stop offset="1" stop-color="#101435"/><stop offset="1" stop-color="#0e1232"/></linearGradient><linearGradient id="linear-gradient-11" x1="239.86" y1="500" x2="239.86" y2="315.09" gradientUnits="userSpaceOnUse"><stop offset="0" stop-color="#273318"/><stop offset="0.68" stop-color="#122816"/></linearGradient><linearGradient id="linear-gradient-12" x1="739.33" y1="630.67" x2="739.33" y2="389.04" gradientTransform="matrix(-0.98, 0.19, 0.19, 0.98, 838.75, -184.82)" gradientUnits="userSpaceOnUse"><stop offset="0.16" stop-color="#bc5927"/><stop offset="0.4" stop-color="#ec7d2a"/></linearGradient><linearGradient id="linear-gradient-13" x1="681.44" y1="587.55" x2="681.44" y2="450.99" gradientTransform="matrix(-0.98, 0.19, 0.19, 0.98, 838.75, -184.82)" xlink:href="#linear-gradient-7"/><linearGradient id="linear-gradient-14" x1="677.82" y1="482.19" x2="677.82" y2="468.92" gradientTransform="matrix(-0.98, 0.19, 0.19, 0.98, 838.75, -184.82)" xlink:href="#linear-gradient-2"/><linearGradient id="linear-gradient-15" x1="636.85" y1="445.82" x2="636.85" y2="400.98" gradientTransform="matrix(-0.98, 0.19, 0.19, 0.98, 838.75, -184.82)" gradientUnits="userSpaceOnUse"><stop offset="0.22" stop-color="#ddbb7f"/><stop offset="0.52" stop-color="#f9d78e"/></linearGradient><linearGradient id="linear-gradient-16" x1="706.45" y1="439.85" x2="706.45" y2="394.6" xlink:href="#linear-gradient-15"/></defs><title>banner-cel-min</title><path class="cls-1" d="M142.43,36.82c4.37,5.87.38,33.61.38,33.61-6,.73-5,4.14-5,4.14,5.5,3,7.89,0,7.89,0,5.77-13.09,11.46-35.33,14-40.43.26-.53,1-2.57,1-2.57a10,10,0,0,1,.94-14l-33.17.24c-2.62,9.67,7.72,16.48,11.64,18.52h0A6.16,6.16,0,0,0,142.43,36.82Z"/><path class="cls-2" d="M137.43,74.74c5.5,3,8.53.38,8.53.38C151.73,62,159,37.39,160.47,32.45l-20.33,3.9c.9.46,1.45.7,1.45.7,4.37,5.87.58,33.33.58,33.33C136.13,71.12,137.43,74.74,137.43,74.74Z"/><path class="cls-3" d="M233.26-6.69s25.57,27.84,81.25,39.77c0,0,22.15,9.09,22.15,18.18,0,0,6.25-12.5,2.84-17.62,4,5.93,23.21,6.68,31,6.55l1.59,0c23.69-.93,40.17-16.68,50.23-37.21,4.17-8.54,6.42-18.39,4.36-27.69-5.24-23.7-27.2-23.28-42.83-10.36l-4-12.49s-1.61,18.44-19,25.36a37.42,37.42,0,0,1-11.73,2.48c-28.4,1.71-53.4,7.38-111.35-32.39Z"/><path class="cls-4" d="M360.53,15.47c2,4-3.13,11.37-3.13,11.37a63.73,63.73,0,0,1,13.06,13.35l1.59,0c23.69-.93,40.17-16.68,50.23-37.21,4.17-8.54,6.42-18.39,4.36-27.69-5.24-23.7-27.2-23.28-42.83-10.36l-4-12.49s-1.61,18.44-19,25.36c3.43,2.71-12.57,31.73-12.57,31.73C357.12,7.23,358.53,11.49,360.53,15.47Z"/><path class="cls-5" d="M46,26.55l28.62,63.8s-7.84,1.08-5.29,5.35c0,0,8.32,2.13,8.88-2.7,0,0-5.68-32.78-6.34-57.57-.28-10.79-3-18.82-3.7-19.94A22.16,22.16,0,0,0,70.14,17a.31.31,0,0,0,.1.08A44.64,44.64,0,0,0,78.65,20a18.19,18.19,0,0,0,5.26,1.12,64.15,64.15,0,0,0,7.65-1.2c-.72,1.81-3.16,4.33-4.09,6.08a43,43,0,0,0-2.36,4.76c-.53,1.38-.74,2.58-1.12,3.93-.47,1.73.05,2.43,0,4.22a8.72,8.72,0,0,0,.46,4c.28.73.57-1.7,1.07-1.09s0,3.57.75,3.15c1.08-.61,1.44-.46,1.94-1.57A9,9,0,0,0,89,39.19c0-1.18.19-2.36.24-3.54,0-.58-.59-1.13-.66-1.71a6.35,6.35,0,0,1,0-1.57,3.19,3.19,0,0,1,.29-1.25c.22-.29.25-.86.49-1.13a16,16,0,0,1,1.64-1.43,8,8,0,0,1,2.32-1.2c.41-.17.7-.57,1.1-.77s.51-.82.9-1.12c1.81-1.42,4-2.33,5.84-3.74a34.68,34.68,0,0,1,5.36-3.4,0,0,0,0,1,0,0s0,0,.08,0a8.84,8.84,0,0,1,.83-.38,4.82,4.82,0,0,1,.69-.39c.08,0,.25,0,.33,0s1.42.08,3.91.18c13,.51,55.61,1.72,77.34-3.3,0,0,1.15,27.84,29.84,31.54l.33.06c-.3,1.13-10.18,38-12.14,38.51s-11.42,4-6,7.45c0,0,3.17,2.12,6.29,1.27,0,0,25.74-41,25.74-52.4,0,0,2-.86-4.27-6.83,0,0-2.55-6.82.57-15.9s13.36-31.82,7.67-70.17c0,0-5.68-25.57-52.27-28.69,0,0-53.68.57-64.49-5.68s-25.28-15.35-25.28-25.57l.44-.11.42-.11c.27-.08.54-.14.83-.21,5.82-1.54,24.53-6.91,24.16-12.08,0,0,6.76-5.82,4.74-10.22,0,0-9.12-9.14-16.82-18.42-.21-.26-.43-.53-.62-.78-.42-.5-.81-1-1.23-1.52-4.84-6.05-8.67-11.84-8.51-14.79,0,0,3.12-28.69-7.09-38.91,0,0-10.52,14.2-10.81,31A119.08,119.08,0,0,0,60-179.4l-3.69-38.36S30.76-199.28,19.79-140c-.26,1.34-.49,2.71-.73,4.09-.56,3.32-1,6.7-1.37,10.11C11.26-65.08,35,8,46,26.55Z"/><path class="cls-6" d="M201.47,92.43s4.31,1.73,7.48.87c0,0,25.36-41.76,25.36-53.28,0,0-11.72.47-14.4,5.19l0,0c-.3,1.15-10.39,38.29-12.38,38.85S196,89,201.47,92.43Z"/><path class="cls-7" d="M17.69-125.83c3.1,5.27,8.94,12.93,19.94,23.51,0,0-1.82,87.46,32.51,119.29a.31.31,0,0,0,.1.08c3.55,2.46,11.32,6.59,19.84,3.26,0,0,0,0,0,0s.84.35.75.48l-.11,0c0,.05-.14.14-.2.24s-.18.53-.44.95c-.08.13.22.41.13.56-.48.78-1.6,1.7-2.24,2.85-.09.21-.49.34-.6.56-.24.48.15,1.06-.1,1.57-.16.34-.5.54-.66.87s-.67.54-.81.89c0,0,.06.15,0,.17,1.36,1,1.69.88,3,1.69,1.61-2.42,3.77-3.78,6.13-5.41,0,0,0-1,.08-1.05.41-.35,1.44.82,1.87.45A2.68,2.68,0,0,0,97.1,25c.16-.14.33-.3.51-.43a40.62,40.62,0,0,1,3.66-2.84s.07-.05.1-.06a5.48,5.48,0,0,1,.49-.35,39.18,39.18,0,0,1,4.71-3,0,0,0,0,1,0,0s0,0,.08,0a8.84,8.84,0,0,1,.83-.38c.27-.13.21-.31.46-.39h.23c.08,0,.25,0,.33,0s1.42.08,3.91.18l-.69-2.22v-.06l-4-12.8s-19.38-20-22.79-47c0,0-6-26.13-2.55-46.87,0,0,1.62-17.26,13.34-20.74l.44-.11a3.74,3.74,0,0,1,.42-.11c.27-.08.54-.14.83-.21,5.82-1.54,24.53-6.91,24.16-12.08,0,0,6.76-5.82,4.74-10.22q-8.09-.58-16.17-1.27c-3.81-.33-7.23-.06-10.83-1.5a121.32,121.32,0,0,1-12.2-6.18,67,67,0,0,0-31.79-7.51,61.59,61.59,0,0,0-31.6,8.61q-2,1.23-4,2.63c-1.8,1.3-3.64,2.75-5.47,4.36C14.32-135.67,13.59-132.83,17.69-125.83Z"/><path class="cls-8" d="M84.68,47c.18.23,1,0,1.42-.06l.27-.08a2.38,2.38,0,0,0,.51-.24,4.4,4.4,0,0,0,.45-.3l.27-.24a.57.57,0,0,0,.11-.11c.06-.07.13-.13.17-.19a3.38,3.38,0,0,0,.35-.47,5.31,5.31,0,0,0,.47-.84,6,6,0,0,0,.28-.72c0-.06,0-.12.07-.19a4,4,0,0,0,.14-.57s0,0,0-.05c.06-.26.12-.53.17-.81s.11-.78.15-1.23c0-.1,0-.21,0-.3a27.78,27.78,0,0,0-.38-6.94c0-.27-.06-.54-.11-.79a.42.42,0,0,0,0-.13,1.67,1.67,0,0,1-.07-.42.41.41,0,0,1,0-.16A.53.53,0,0,1,89,32c1.61-2.42,4.07-4.08,6.43-5.71l.12-.09c.18-.13.34-.26.51-.37,3-2.09,6-4.21,9.07-6.26l.59-.38c.85-.56,1.69-1.12,2.55-1.66h0c1.13-.77,2.26-1.5,3.43-2.2s2.26-1.44,3.41-2.14q6.38-3.87,12.94-7.41c4.21-2.26,8.19-5,12.55-7,0,0-7-11.17-18.56-8.53,0,0-6.82,5.58-14.33,12.28-6.87,6.12-14.33,13.16-17.68,17.76,0,0,0,0,0,0l-.1.12-.08.12-.12.19c-.16.24-.39.57-.64,1-.08.12-.16.27-.26.41-.48.78-1.07,1.77-1.7,2.92-.1.2-.23.41-.34.63l-.75,1.49-.48,1c-.17.35-.33.7-.47,1.05,0,0,0,0,0,.07C82.64,35,80.93,42.21,84.68,47Z"/><path class="cls-9" d="M68.21,96.72S79.3,99.84,79.86,95c0,0-4.43-36-7.94-59.57h0L46.05,26.55,73.61,89.89S65.66,92.44,68.21,96.72Z"/><rect class="cls-10" x="-0.27" width="480.27" height="500"/><path class="cls-11" d="M-.27,340.78s203.89-55.6,480.27-3.21V500H-.27Z"/><path class="cls-12" d="M92.79,506.76s7.21,30.57,16.93,56.42c0,0-3.19,8.52-.16,21.5,0,0,5.28,5.5,14.74,1.72,0,0,18.19-.9,19-42.88,0,0,4.47-6.22,48-10.8,0,0,14.46,41.91,15.75,44.2,0,0,13.24-1.65,12.9-5,0,0-4-39-4.44-41.26h0l25-3.89,6.28,36.1s11.6-1.34,12.1-7.65c0,0-.38-15.48,16.25-45.49.06,0,2.27-.71,6.77-46.2,0,0,2.5-16.28,11.21-28.12h0a32.9,32.9,0,0,1,2.14-2.67s23.66-31.63,25.64-39.07c0,0-11.77-15.84-19.29-19.79,0,0,9.82-24.19,2.25-52.14,0,0-23.5,13.22-30.06,39.61,0,0-4.4-2.27-30.7,3.58,0,0-21.63-32.08-29.27-35.15,0,0-7,18,.3,52.22,0,0-12.82,8.38-16.58,13.9l0,0c.52.67,13.38,17,13.82,20.8,0,0-19.25,14.67-28.65,17.3A126,126,0,0,1,154,444.86S81.13,464.61,92.79,506.76Z"/><path class="cls-13" d="M215,530.75l.42-.07,25-3.9a143.15,143.15,0,0,0,28.64-45.57C279.45,454,281,449.29,284.83,444.32a73.85,73.85,0,0,1,8.24-8.9,32.9,32.9,0,0,1,2.14-2.67c7.63-10.2,15.25-20.57,21.82-31.48,1.25-2.08,4-5.53,3.76-8-1.94.11-4,1.69-6,2a26.67,26.67,0,0,1-9.17-.36c-4.58-.86-9-2.35-13.68-2.75-9.53-.84-16.44,5.05-21.53,12.53l-9.23,10.93c.49-.58-11.07-10.67-11.88-11.34-7.33-6-14.65-8.66-24.16-7.9-4.52.36-9.09,1-13.62.48-4.68-.56-9.2-1.74-14-.91a111.07,111.07,0,0,0,13.82,20.8S223,435.44,230.47,446C230.47,446,247.14,484,215,530.75Z"/><path class="cls-14" d="M261.15,415.61s10.85-10,9.79-11.75c-1.56-2.63-7-2-9.47-1.71a28,28,0,0,0-5.94,1.25c-1.14.39-4.44,1.38-4.84,2.71a1.29,1.29,0,0,0,.29,1.15A33.26,33.26,0,0,0,261.15,415.61Z"/><path class="cls-15" d="M303,325S281.6,351.39,278.71,363l19,8.69S310.14,355.87,303,325Z"/><path class="cls-16" d="M235.07,366s-10.32-25.31-18.62-31.08c0,0-9.28,8.4.12,46Z"/><path class="cls-17" d="M280.11,413.75s-11.55,9.31-19,1.86c0,0-5.16,7.05-19,2.34"/><path d="M246.05,391.53a3.1,3.1,0,0,1-1,2.09c-1.37-1.92-4.32-3.33-7.79-3.48a12.87,12.87,0,0,0-3.68.35c.47-2,3.18-3.41,6.39-3.28C243.4,387.36,246.14,389.29,246.05,391.53Z"/><path d="M273.07,390.28a3.36,3.36,0,0,0,1.27,2.13c1.15-2.19,3.92-4,7.36-4.5a12.06,12.06,0,0,1,3.7,0c-.7-2.07-3.56-3.33-6.73-2.86C275.23,385.56,272.72,387.9,273.07,390.28Z"/></svg>