<svg id="Layer_1" data-name="Layer 1" xmlns="http://www.w3.org/2000/svg" xmlns:xlink="http://www.w3.org/1999/xlink" viewBox="0 0 480 500"><defs><style>.cls-1{fill:url(#linear-gradient);}.cls-2{fill:url(#linear-gradient-2);}.cls-3{fill:url(#linear-gradient-3);}.cls-4{fill:url(#linear-gradient-4);}.cls-5{fill:url(#linear-gradient-5);}.cls-6{fill:url(#linear-gradient-6);}.cls-7{fill:none;stroke:#231f20;stroke-miterlimit:10;stroke-width:0.5px;}.cls-8{fill:#231f20;}.cls-9{fill:url(#linear-gradient-7);}.cls-10{fill:url(#linear-gradient-8);}</style><linearGradient id="linear-gradient" x1="240" y1="500" x2="240" gradientUnits="userSpaceOnUse"><stop offset="0" stop-color="#fff"/><stop offset="1" stop-color="#2dc3e7"/></linearGradient><linearGradient id="linear-gradient-2" x1="240" y1="500" x2="240" y2="315.09" gradientUnits="userSpaceOnUse"><stop offset="0" stop-color="#195634"/><stop offset="1" stop-color="#093a21"/></linearGradient><linearGradient id="linear-gradient-3" x1="105.5" y1="571.26" x2="105.5" y2="467.85" gradientTransform="matrix(-1, 0, 0, 1, 435.84, 0)" gradientUnits="userSpaceOnUse"><stop offset="0.3" stop-color="#bc5927"/><stop offset="1" stop-color="#e37729"/></linearGradient><linearGradient id="linear-gradient-4" x1="47.98" y1="560.19" x2="47.98" y2="472.4" gradientTransform="matrix(-1, 0, 0, 1, 435.84, 0)" gradientUnits="userSpaceOnUse"><stop offset="0.35" stop-color="#ddbb7f"/><stop offset="0.74" stop-color="#f9d78e"/></linearGradient><linearGradient id="linear-gradient-5" x1="307.8" y1="616.17" x2="307.8" y2="302.24" gradientTransform="matrix(-1, 0, 0, 1, 435.84, 0)" gradientUnits="userSpaceOnUse"><stop offset="0.24" stop-color="#bc5927"/><stop offset="0.47" stop-color="#ec7d2a"/></linearGradient><linearGradient id="linear-gradient-6" x1="365.35" y1="551.14" x2="365.35" y2="368.73" gradientTransform="matrix(-1, 0, 0, 1, 435.84, 0)" gradientUnits="userSpaceOnUse"><stop offset="0.22" stop-color="#ddbb7f"/><stop offset="0.43" stop-color="#f9d78e"/></linearGradient><linearGradient id="linear-gradient-7" x1="344.69" y1="346.84" x2="344.69" y2="313.74" gradientTransform="matrix(-1, 0, 0, 1, 435.84, 0)" gradientUnits="userSpaceOnUse"><stop offset="0.22" stop-color="#ddbb7f"/><stop offset="0.52" stop-color="#f9d78e"/></linearGradient><linearGradient id="linear-gradient-8" x1="386.43" y1="342.15" x2="386.43" y2="307.35" xlink:href="#linear-gradient-7"/></defs><title>banner-cel-min</title><rect class="cls-1" width="480" height="500"/><path class="cls-2" d="M0,340.78s203.78-55.6,480-3.21V500H0Z"/><path class="cls-3" d="M233.26,513.31s25.57,27.84,81.25,39.77c0,0,22.15,9.09,22.15,18.18,0,0,6.25-12.5,2.84-17.62,4,5.93,23.21,6.68,31,6.55l1.59,0c23.69-.93,40.17-16.68,50.23-37.21,4.17-8.54,6.42-18.39,4.36-27.69-5.24-23.7-27.2-23.28-42.83-10.36l-4-12.49s-1.61,18.44-19,25.36a37.42,37.42,0,0,1-11.73,2.48c-28.4,1.71-53.4,7.38-111.35-32.39Z"/><path class="cls-4" d="M360.53,535.47c2,4-3.13,11.37-3.13,11.37a63.73,63.73,0,0,1,13.06,13.35l1.59,0c23.69-.93,40.17-16.68,50.23-37.21,4.17-8.54,6.42-18.39,4.36-27.69-5.24-23.7-27.2-23.28-42.83-10.36l-4-12.49s-1.61,18.44-19,25.36c3.43,2.71-12.57,31.73-12.57,31.73C357.12,527.23,358.53,531.49,360.53,535.47Z"/><path class="cls-5" d="M46,546.55l28.62,63.8s-7.84,1.08-5.29,5.35c0,0,8.32,2.13,8.88-2.7,0,0-5.68-32.78-6.34-57.57-.28-10.79-3-18.82-3.7-19.94A22.16,22.16,0,0,0,70.14,537a.31.31,0,0,0,.1.08,44.64,44.64,0,0,0,8.41,2.9,18.19,18.19,0,0,0,5.26,1.12,64.15,64.15,0,0,0,7.65-1.2c-.72,1.81-3.16,4.33-4.09,6.08a43,43,0,0,0-2.36,4.76c-.53,1.38-.74,2.58-1.12,3.93-.47,1.73.05,2.43,0,4.22a8.72,8.72,0,0,0,.46,4c.28.73.57-1.7,1.07-1.09s0,3.57.75,3.15c1.08-.61,1.44-.46,1.94-1.57a9,9,0,0,0,.79-4.19c0-1.18.19-2.36.24-3.54,0-.58-.59-1.13-.66-1.71a6.35,6.35,0,0,1,0-1.57,3.19,3.19,0,0,1,.29-1.25c.22-.29.25-.86.49-1.13a16,16,0,0,1,1.64-1.43,8,8,0,0,1,2.32-1.2c.41-.17.7-.57,1.1-.77s.51-.82.9-1.12c1.81-1.42,4-2.33,5.84-3.74a34.68,34.68,0,0,1,5.36-3.4,0,0,0,0,1,0,0s0,0,.08,0a8.84,8.84,0,0,1,.83-.38,4.82,4.82,0,0,1,.69-.39c.08,0,.25,0,.33,0s1.42.08,3.91.18c13,.51,55.61,1.72,77.34-3.3,0,0,1.15,27.84,29.84,31.54l.33.06c-.3,1.13-10.18,38-12.14,38.51s-11.42,4-6,7.45c0,0,3.17,2.12,6.29,1.27,0,0,25.74-41,25.74-52.4,0,0,2-.86-4.27-6.83,0,0-2.55-6.82.57-15.9s13.36-31.82,7.67-70.17c0,0-5.68-25.57-52.27-28.69,0,0-53.68.57-64.49-5.68s-25.28-15.35-25.28-25.57l.44-.11.42-.11c.27-.08.54-.14.83-.21,5.82-1.54,24.53-6.91,24.16-12.08,0,0,6.76-5.82,4.74-10.22,0,0-9.12-9.14-16.82-18.42-.21-.26-.43-.53-.62-.78-.42-.5-.81-1-1.23-1.52-4.84-6.05-8.67-11.84-8.51-14.79,0,0,3.12-28.69-7.09-38.91,0,0-10.52,14.2-10.81,31A119.08,119.08,0,0,0,60,340.6l-3.69-38.36S30.76,320.72,19.79,380c-.26,1.34-.49,2.71-.73,4.09-.56,3.32-1,6.7-1.37,10.11C11.26,454.92,35,528,46,546.55Z"/><path class="cls-6" d="M17.69,394.17c3.1,5.27,8.94,12.93,19.94,23.51,0,0-1.82,87.46,32.51,119.29a.31.31,0,0,0,.1.08c3.55,2.46,11.32,6.59,19.84,3.26,0,0,0,0,0,0s.84.35.75.48l-.11,0c0,.05-.14.14-.2.24s-.18.53-.44,1c-.08.13.22.41.13.56-.48.78-1.6,1.7-2.24,2.85-.09.21-.49.34-.6.56-.24.48.15,1.06-.1,1.57-.16.34-.5.54-.66.87s-.67.54-.81.89c0,0,.06.15,0,.17,1.36,1,1.69.88,3,1.69,1.61-2.42,3.77-3.78,6.13-5.41,0,0,0-1,.08-1.05.41-.35,1.44.82,1.87.45a2.68,2.68,0,0,0,.23-.17c.16-.14.33-.3.51-.43a40.62,40.62,0,0,1,3.66-2.84s.07-.05.1-.06a5.48,5.48,0,0,1,.49-.35,39.18,39.18,0,0,1,4.71-2.95,0,0,0,0,1,0,0s0,0,.08,0a8.84,8.84,0,0,1,.83-.38c.27-.13.21-.31.46-.39h.23c.08,0,.25,0,.33,0s1.42.08,3.91.18l-.69-2.22v-.06l-4-12.8s-19.38-20-22.79-47c0,0-6-26.13-2.55-46.87,0,0,1.62-17.26,13.34-20.74l.44-.11a3.74,3.74,0,0,1,.42-.11c.27-.08.54-.14.83-.21,5.82-1.54,24.53-6.91,24.16-12.08,0,0,6.76-5.82,4.74-10.22q-8.09-.58-16.17-1.27c-3.81-.33-7.23-.06-10.83-1.5a121.32,121.32,0,0,1-12.2-6.18,67,67,0,0,0-31.79-7.51,61.59,61.59,0,0,0-31.6,8.61q-2,1.23-4,2.63c-1.8,1.3-3.64,2.75-5.47,4.36C14.32,384.33,13.59,387.17,17.69,394.17Z"/><path class="cls-7" d="M121.62,395.42c-12.24,6.21-30.4,5.57-43.46,2.31"/><path class="cls-8" d="M125.64,386.78a7.44,7.44,0,0,0,3.85-3.63c.72-1.34,1.54-3.68-.39-4.42a15.82,15.82,0,0,0-4.41-.91,18.89,18.89,0,0,0-5.2.29,27,27,0,0,0-2.67.74c-.77.24-1.07.39-.69,1.29,1.36,3.28,4.13,7.28,8.16,6.93A5.4,5.4,0,0,0,125.64,386.78Z"/><path class="cls-8" d="M74,367.35a9.79,9.79,0,0,1,13.82,4.85,5.52,5.52,0,0,0,.15-.89,7.39,7.39,0,0,0-14-4Z"/><path class="cls-9" d="M97.33,346.84s-6-5.26-11.93-4.12c0,0-4-10.37,6.68-29C92.08,313.74,99.18,321,97.33,346.84Z"/><path class="cls-10" d="M57.85,342.15s-4.41-29.68-3-34.8c0,0-15.34,21.45-13.78,34.8Z"/></svg>