<svg xmlns="http://www.w3.org/2000/svg" xmlns:xlink="http://www.w3.org/1999/xlink" viewBox="0 0 1024 460"><defs><style>.cls-1{fill:url(#linear-gradient);}.cls-2{fill:url(#linear-gradient-2);}.cls-3{fill:url(#linear-gradient-3);}.cls-4{fill:url(#linear-gradient-4);}.cls-14,.cls-5{fill:none;stroke-miterlimit:10;}.cls-5{stroke:#efefef;}.cls-6{fill:url(#linear-gradient-5);}.cls-7{fill:url(#linear-gradient-6);}.cls-8{fill:url(#linear-gradient-7);}.cls-9{fill:url(#linear-gradient-8);}.cls-10{fill:url(#linear-gradient-9);}.cls-11{fill:url(#linear-gradient-10);}.cls-12{fill:url(#linear-gradient-11);}.cls-13{fill:url(#linear-gradient-12);}.cls-14{stroke:#000;stroke-width:0.5px;}.cls-15{fill:url(#linear-gradient-13);}</style><linearGradient id="linear-gradient" x1="512" y1="500" x2="512" gradientUnits="userSpaceOnUse"><stop offset="0.22" stop-color="#27aae1"/><stop offset="0.83" stop-color="#ee375f"/><stop offset="1" stop-color="#e76b24"/></linearGradient><linearGradient id="linear-gradient-2" x1="512" y1="500" x2="512" y2="315.09" gradientUnits="userSpaceOnUse"><stop offset="0" stop-color="#415224"/><stop offset="1" stop-color="#372311"/></linearGradient><linearGradient id="linear-gradient-3" x1="186.1" y1="125.36" x2="186.1" y2="84.47" gradientUnits="userSpaceOnUse"><stop offset="0.03" stop-color="#cae8ef"/><stop offset="0.44" stop-color="#fff"/></linearGradient><linearGradient id="linear-gradient-4" x1="116.46" y1="71.68" x2="116.46" y2="32.41" xlink:href="#linear-gradient-3"/><linearGradient id="linear-gradient-5" x1="49.99" y1="331.92" x2="271.28" y2="110.62" gradientTransform="translate(64.84)" gradientUnits="userSpaceOnUse"><stop offset="0.16" stop-color="#bc5927"/><stop offset="0.4" stop-color="#ec7d2a"/></linearGradient><linearGradient id="linear-gradient-6" x1="182.08" y1="378.29" x2="182.08" y2="107.04" gradientTransform="translate(64.84)" gradientUnits="userSpaceOnUse"><stop offset="0.22" stop-color="#ddbb7f"/><stop offset="0.43" stop-color="#f9d78e"/></linearGradient><linearGradient id="linear-gradient-7" x1="155.9" y1="268.97" x2="155.9" y2="397.6" gradientTransform="translate(64.84)" gradientUnits="userSpaceOnUse"><stop offset="0" stop-color="#171717"/><stop offset="0.36" stop-color="#231f20"/></linearGradient><linearGradient id="linear-gradient-8" x1="205.14" y1="267.85" x2="205.14" y2="397.18" gradientTransform="translate(64.84)" gradientUnits="userSpaceOnUse"><stop offset="0" stop-color="#171717"/><stop offset="0.37" stop-color="#231f20"/></linearGradient><linearGradient id="linear-gradient-9" x1="149.04" y1="96.21" x2="118.75" y2="65.92" gradientTransform="translate(64.84)" gradientUnits="userSpaceOnUse"><stop offset="0.22" stop-color="#ddbb7f"/><stop offset="0.52" stop-color="#f9d78e"/></linearGradient><linearGradient id="linear-gradient-10" x1="204.02" y1="85.79" x2="204.02" y2="45.6" xlink:href="#linear-gradient-9"/><linearGradient id="linear-gradient-11" x1="70.06" y1="446.78" x2="4.54" y2="333.3" gradientTransform="translate(64.84)" gradientUnits="userSpaceOnUse"><stop offset="0.82" stop-color="#bc5927"/><stop offset="1" stop-color="#e37729"/><stop offset="1" stop-color="#ec7d2a"/></linearGradient><linearGradient id="linear-gradient-12" x1="63.91" y1="450.33" x2="6.58" y2="351.04" gradientTransform="translate(64.84)" gradientUnits="userSpaceOnUse"><stop offset="0.35" stop-color="#ddbb7f"/><stop offset="0.74" stop-color="#f9d78e"/></linearGradient><linearGradient id="linear-gradient-13" x1="9.54" y1="-388.92" x2="22.36" y2="-435.94" gradientTransform="translate(356.74 561.69) rotate(-41.24)" gradientUnits="userSpaceOnUse"><stop offset="0.01" stop-color="#006838"/><stop offset="0.66" stop-color="#60451d"/></linearGradient></defs><title>banner</title><g id="Layer_2" data-name="Layer 2"><rect class="cls-1" width="1024" height="500"/><path class="cls-2" d="M0,340.78s434.72-55.6,1024-3.21V500H0Z"/><path class="cls-3" d="M58.66,93.87l-.49,0c8.24.75,20.18-4.41,28.51-5.81C161.34,75.4,297.89,100.12,314,105c-9.53,2.19-17.58,8-26.89,10.71A244.62,244.62,0,0,1,252,123.11a252.81,252.81,0,0,1-69.45-.29,248.26,248.26,0,0,1-66.66-19.28C96.55,94.84,79.74,95.78,58.66,93.87Z"/><path class="cls-4" d="M16.12,71.68s19.9-29.94,104.12-15c0,0,69.36,17.2,96.57,5.39,0,0-90-2.18-100.35-21.43S22.39,37.46,16.12,71.68Z"/></g><g id="Layer_1" data-name="Layer 1"><path class="cls-5" d="M443.3,216.69s-55.61,55.61-133.67,31-17.11-71.7,27.8-44.94-77,53.5-188.19,42.8"/><path class="cls-6" d="M290.58,280.38c10.75,15.45,10.08,92.71-21.5,92.71l-2.82.49c-6.24,1-22.15,3.47-40.55,4.71-22.15,1.51-47.93,1.28-64.78-5.2-11.75-4.52-20.59-13.77-23-26.28a48.4,48.4,0,0,1,1.91-24.16c2.33-7.17,7.92-12.69,12.53-18.43a94.51,94.51,0,0,0,7-9.88c2.14-3.48,3.7-7.28,5.77-10.78,4.39-7.36,7.79-15.29,11.12-23.2,1.87-4.47,3.49-9,5.13-13.56,2.47-6.86,2.1-13.94,3.65-20.91.92-4.18,2.23-8.42,3.39-12.56,2.92-10.46,6.35-20.92,11.28-30.63a51.24,51.24,0,0,1,9.13-13.33c.17-.17.34-.34.51-.49l-.91-.86,0,0-.67-.62-.05-.06c-.41-.37-.88-.82-1.41-1.32-.08-.07-.15-.17-.26-.26-5.84-5.56-18-17.26-25.32-25.32a.76.76,0,0,0-.13-.14,1.37,1.37,0,0,0-.16-.18l-.33-.41-.62-.75c-.09-.12-.18-.22-.28-.34l-.59-.72-.23-.3c-1-1.28-2-2.5-2.63-3.31l-.38-.51a.21.21,0,0,0,0-.06.54.54,0,0,0-.05-.11,1.87,1.87,0,0,1-.17-.31l21.5-22.84S181.39,76,187.12,56.68c0,0,35.35,12.1,40.85,28.89,0,0,8.19-2.7,23-3.35,0,0,2.67-31.59,14.77-41.66,0,0,21.27,16.15,20.15,45,0,0,25.54,19.47,32.92,21.48,0,.12,0,.24-.07.36-.06.33-.13.67-.2,1-.12.54-.23,1.08-.35,1.62l-.48,2.17c-.2.89-.4,1.77-.61,2.66l-.75,3.09c-.29,1.16-.58,2.31-.89,3.47s-.66,2.52-1,3.78-.76,2.71-1.15,4-.84,2.84-1.27,4.25-.93,2.94-1.41,4.4-1,3-1.54,4.48-1.09,3-1.66,4.51-1.17,3-1.79,4.49-1.26,3-1.92,4.4-1.33,2.86-2,4.27-1.41,2.72-2.17,4.06-1.49,2.56-2.29,3.8-1.57,2.36-2.41,3.49-1.65,2.12-2.54,3.12c-.37.41-.76-.17-1.15.23-.18.2-.47.43-.66.62a5.33,5.33,0,0,0-.67,1c-.59,1.26-.55,3.68-.67,5.06-.16,1.79-.72,3.42-.76,5.22-.41,17.32-2.69,34.51-4.92,51.67-1,7.58-1.38,14-.23,21.57C284.29,267.05,286.38,274.35,290.58,280.38Z"/><path class="cls-7" d="M313.39,135.54c-.43,1.45-.89,2.89-1.37,4.32a110.73,110.73,0,0,1-16.93,31.68c-1.63,2.12-4.12,4.21-5.28,6.6s-.37,6-.6,8.59c-.32,3.4-.47,6.85-2.36,9.76a59.06,59.06,0,0,0-3,5.95,158.25,158.25,0,0,0-9.76,24.92,190,190,0,0,0-6.41,29.15,188.1,188.1,0,0,0-1.55,35.89q.47,8.72,1.74,17.35L270,350l-3.73,23.55c-6.24,1-22.15,3.47-40.54,4.71-.95-5-1.15-15,2.26-35,6.43-37.68,0-2.24,0-2.24V301.21c-.16-2.77-.23-5.54-.27-8.3q-.17-10.61.36-21.18a282.11,282.11,0,0,1,2.75-28.41,181.83,181.83,0,0,1,6.88-30c1-2.94,1.8-6,3-8.87,2.15-5.14,7-10.83,2.16-16.14-1.73-1.88-4.2-2.85-6.55-3.84-23.05-9.68-43.1-27.13-58-47-.29-.39-3.43-4-3.22-4.16,4.72-2.82,10.63-4.58,15.84-6.31,10-3.3,20.77-5.88,31.35-5.09,5.42.41,10.89,1.83,15.28,5.12L255,141.78l9.41-15.69s6.7-19.69,54.4-19c-1.12,0-2.16,13.94-2.39,15.33A109.52,109.52,0,0,1,313.39,135.54Z"/><path class="cls-8" d="M198.09,275.24s22.22,41,26.83,71.88c0,0,7.66,34.71,7.21,46.8,0,0,3.14,5.37,10.75,3.13,0,0,3.14-4.14-6.38-9.85l-1.91-79.49S233,282.63,219.82,269c0,0-1.12,4.92-4.71,6.72l-13.21-4.93Z"/><path class="cls-9" d="M269.75,267.85s17.47,11,13.21,33.14l3.81-2.46s-3.81,40.53-13.66,54.41c0,0-6.72,41.2-9.63,43.44,0,0-6.94,1.79-8.28,0,0,0-6.5-4.25,3.8-6.94,0,0,4.93-32.47,5.38-39.19S271.32,277.92,269.75,267.85Z"/><path d="M242.41,129a2.09,2.09,0,0,1,1.85-.36,39.15,39.15,0,0,0,6.31.35,37.83,37.83,0,0,0,12.36-2.43,3.18,3.18,0,0,1,1.72-.31c1.42.3,1,3,1,4a15.39,15.39,0,0,1-1.46,5.31c-1,2.11-2.86,5-5.09,6-4.46,2.07-9.66-1-12.68-4.12a17.43,17.43,0,0,1-4.07-6.54C242,130,242.06,129.34,242.41,129Z"/><path d="M233.09,116.9a4.91,4.91,0,0,1-.53,3,9.44,9.44,0,0,0-8.77-3,10.35,10.35,0,0,0-3.64,1.26c0-2.77,2.37-5.27,5.66-5.77C229.37,111.87,232.63,113.88,233.09,116.9Z"/><path d="M268.61,112.39a4.91,4.91,0,0,0,1.42,2.76,9.45,9.45,0,0,1,7.45-5.56,10.32,10.32,0,0,1,3.85.11c-.82-2.67-3.86-4.34-7.15-3.83C270.63,106.43,268.13,109.35,268.61,112.39Z"/><path class="cls-10" d="M201.12,105.39s-13.23-13.74-12.43-44.56c0,0,24.82,8.81,35.6,25Z"/><path class="cls-11" d="M255.53,82.43s2.13-30.34,9.63-36.83c0,0,17,9,17,40.19Z"/><path class="cls-12" d="M164.88,418.55a22.79,22.79,0,0,1-.82,3.71,19.83,19.83,0,0,1-.95,2.1,13.05,13.05,0,0,1-.65,1.22,35.37,35.37,0,0,1-4.68,6.2,7,7,0,0,1-.85.88,3.53,3.53,0,0,1-.33.35c-.22.2-.4.39-.61.57q-.87.85-1.77,1.65c-.39.34-.76.66-1.14,1a40.79,40.79,0,0,1-14,5.78c-.19,0-.4.09-.59.12-1.2.12-2.4.23-3.58.32-.34,0-.65.06-1,.08-1.56.11-3.12.22-4.71.3l-2.73.13c-.6,0-1.21.05-1.81.07-.92,0-1.82.07-2.76.08s-2.14,0-3.21,0h-.49c-2.88,0-5.66-.08-8.35-.21h-.12l-.35,0c-1,0-2-.11-3-.17s-2.22-.17-3.31-.26l-1.41-.13-.82-.09c-1.12-.11-2.23-.23-3.31-.38-2.57-.33-5.13-.74-7.66-1.22-1.09-.2-2.19-.42-3.26-.65s-2.16-.49-3.23-.76c-1.76-.41-3.45-.88-5.11-1.37l-.1,0a89.54,89.54,0,0,1-9.63-3.41c-1.82-.75-3.66-1.57-5.42-2.45-.07,0-.12-.06-.18-.08l-1.81-.94c-1.31-.7-2.62-1.43-3.9-2.19s-2.5-1.56-3.74-2.39c-.82-.57-1.63-1.13-2.44-1.73s-1.81-1.36-2.68-2.06a1.16,1.16,0,0,0-.22-.18l-.76-.66c-.16-.12-.31-.26-.47-.39-.54-.45-1.06-.91-1.58-1.38h0c-.78-.72-1.54-1.45-2.3-2.19-.38-.38-.75-.75-1.12-1.14s-.61-.63-.91-1c-1.14-1.23-2.25-2.51-3.31-3.84-.61-.74-1.18-1.49-1.73-2.26s-.93-1.26-1.34-1.9-.78-1.12-1.14-1.7-.73-1.15-1.09-1.75c-.47-.82-.95-1.64-1.4-2.47l0-.12c-.74-1.37-1.41-2.77-2.06-4.2-.32-.69-.6-1.39-.9-2.09s-.59-1.48-.85-2.25c-.09-.27-.21-.56-.3-.84s-.17-.55-.25-.8c-.28-.82-.52-1.66-.73-2.5-.09-.3-.15-.58-.22-.87s-.08-.33-.12-.5c-.08-.35-.15-.69-.23-1a.34.34,0,0,0,0-.15,1.66,1.66,0,0,0,0-.22c-.17-.79-.32-1.56-.44-2.33-8.4-53.34,115.62-62.5,115.62-62.5l-3.27,22.87c-14,1-15.85,13.41-15.85,13.41a10.56,10.56,0,0,0,.81,5.28c4.71,11.65,26.73,23.27,26.73,23.27,9.73,4.23,13.19,1.57,13.41,1.39l-6.36,9c.33.32.68.64,1,1s.66.67,1,1C163.35,404.37,165.8,411.58,164.88,418.55Z"/><path class="cls-13" d="M164.88,418.55a22.79,22.79,0,0,1-.82,3.71,24.78,24.78,0,0,1-5.88,9.7,29.93,29.93,0,0,1-5.1,4.23,40.79,40.79,0,0,1-14,5.78c-.19,0-.4.09-.59.12-7,1.45-14.13,1.5-21.24,1.28-5.19-.17-10.39-.49-15.56-1.05l-.82-.09a132.45,132.45,0,0,1-20.7-3.88c-11.9-3.29-23.31-8.73-32.75-16.63-.16-.12-.31-.26-.47-.39-.54-.45-1.06-.91-1.58-1.38h0c-.78-.72-1.54-1.45-2.3-2.19-.38-.38-.75-.75-1.12-1.14s-.61-.63-.91-1c-1.14-1.23-2.25-2.51-3.31-3.84-.61-.74-1.18-1.49-1.73-2.26s-.93-1.26-1.34-1.9-.78-1.12-1.14-1.7-.73-1.15-1.09-1.75c-.47-.82-.95-1.64-1.4-2.47l0-.12c-.74-1.37-1.41-2.77-2.06-4.2-.32-.69-.6-1.39-.9-2.09s-.59-1.48-.85-2.25c-.09-.27-.21-.56-.3-.84s-.17-.55-.25-.8c-.28-.82-.52-1.66-.73-2.5-.09-.3-.15-.58-.22-.87s-.08-.33-.12-.5c-.08-.35-.15-.69-.23-1a.34.34,0,0,0,0-.15,1.66,1.66,0,0,0,0-.22c-.17-.79-.32-1.56-.44-2.33.55-.77,10.55-14.41,20.58-17,0,0,6.51-2,24.19-1.36a128.51,128.51,0,0,0,1.13-13S78.51,359,81,358.54c0,0,35.68-.42,41.12,4.37,4.71,11.65,26.73,23.27,26.73,23.27,9.73,4.23,13.19,1.57,13.41,1.39l-6.36,9c.33.32.68.64,1,1s.66.67,1,1C163.35,404.37,165.8,411.58,164.88,418.55Z"/><path class="cls-14" d="M235.44,147.22s15.06,8.11,21.08-5.16c0,0,7.54,8.84,21.21.38"/><path class="cls-15" d="M64.52,231.24l.36-.31,9.62.09c-.21-1,.58-1,1.3-1.12a2.81,2.81,0,0,0,2.75-2.12c.07-.27.42-.66.64-.66a19.21,19.21,0,0,1,3.48.25c2,.38,2,.44,1.9-1.54,0-.56.07-1.17.78-1a24.21,24.21,0,0,1,4.29,1.41c2.19,1,4.28,2.3,6.42,3.44a7.57,7.57,0,0,0,1.29.33,21.08,21.08,0,0,0-.77-2.22c-.62-1.27-1.34-2.49-2-3.77-.28-.59-.34-1.21.55-1.5a1.1,1.1,0,0,0,.51-.87c0-1.65-.2-3.29-.26-4.93a20.12,20.12,0,0,1,.14-2.19,17.24,17.24,0,0,1,2,1.83c1.07,1,2.19,2,3.34,2.87.29.23.8.15,1.19.28a3.16,3.16,0,0,1,1.1.5c.29.23.43.65.67.95.51.62,1,1.18,1.8.28a1,1,0,0,1,.92,0c.86.77,1.66,1.61,2.47,2.43.21.22.35.58.6.69a2.23,2.23,0,0,1,1.24,1.7c.16.6.83,1.06,1.27,1.58a10.3,10.3,0,0,0,1.07-1.34c.53-1,1-2,2.39-1.82l.31.36a13.36,13.36,0,0,0,.64,1.32c.47.75,1,1.47,1.48,2.22a6.6,6.6,0,0,0,.68,1.23,3.84,3.84,0,0,1,1.08,2.89,4.89,4.89,0,0,0,.9,3.46,1.05,1.05,0,0,1,0,1,24,24,0,0,1-2.67,3.19,17.38,17.38,0,0,1-2.75,1.8l.07.36L124,244l-.06.32c-3.28-.27-6.48-1.36-10-1.42.82,1,1.39,1.64,2,2.29,2.5,2.63,2.61,5.83,2.17,9.14-.13,1-.64,1.5-1.74,1.15a.82.82,0,0,0-.78.24c-.58,1.18-1.08,2.4-1.61,3.61l-.35.32a4.4,4.4,0,0,0-1.44.31c-1.36.84-2.65,1.8-4,2.66-1,.6-1.47.34-1.6-.77-.07-.66,0-1.34-.11-2a.89.89,0,0,0-.41-.6c-.11-.06-.46.13-.56.3a9.69,9.69,0,0,1-2.85,2.48,17.56,17.56,0,0,1-4.5,2.25c-1,.35-1.48.26-1.52-.9,0-.89-.36-1-1.21-.54C94,263.55,92.5,264,91,264.63l0-.46c-.47-.24-1-.75-1.38-.67-1.78.38-3.52.92-5.27,1.41-.74.21-1.47.46-2.39.74.69-2.36,2.28-4,1.93-6.35,0-.15.17-.35.28-.5.63-.89,1.28-1.77,1.89-2.67.17-.25.37-.67.27-.87-.69-1.34.36-1.71,1.17-2.22.53-.33,1.1-.6,1.64-.92.91-.54,1.83-1.07,2.71-1.66.21-.14.44-.61.35-.76a1.44,1.44,0,0,0-.8-.53,2.82,2.82,0,0,0-.82,0c-2.09,0-4.17.09-6.26.06a1.29,1.29,0,0,1-1-.64c-.23-.76-.61-.93-1.37-.92-.6,0-1.61-.24-1.71-.58-.23-.85-.81-1-1.42-1.18a15,15,0,0,1-1.77-.66c-.71-.34-.94-.84-.22-1.44.21-.18.42-.35.62-.55.93-.94.85-1.59-.32-2.17-.91-.45-1.84-.84-2.78-1.26,0-.23,0-.41.11-.52.78-1,.25-1.47-.7-1.93-.48-.24-.77-.87-1.15-1.32a28.08,28.08,0,0,0-4.17-2.89C67.24,232.45,65.86,231.88,64.52,231.24Z"/></g></svg>