<svg xmlns="http://www.w3.org/2000/svg" xmlns:xlink="http://www.w3.org/1999/xlink" viewBox="0 0 1024 460"><defs><style>.cls-1{fill:url(#linear-gradient);}.cls-2{fill:url(#linear-gradient-2);}.cls-3{fill:#fff;}.cls-4{fill:url(#linear-gradient-3);}.cls-5{fill:url(#linear-gradient-4);}.cls-6{fill:url(#linear-gradient-5);}.cls-7{fill:url(#linear-gradient-6);}.cls-8{fill:url(#linear-gradient-7);}.cls-9{fill:url(#linear-gradient-8);}.cls-10{fill:url(#linear-gradient-9);}.cls-11{fill:url(#linear-gradient-10);}.cls-12{fill:url(#linear-gradient-11);}.cls-13{fill:url(#linear-gradient-12);}.cls-14{fill:url(#linear-gradient-13);}.cls-15{fill:none;stroke:#000;stroke-miterlimit:10;stroke-width:0.5px;}.cls-16{fill:url(#linear-gradient-14);}</style><linearGradient id="linear-gradient" x1="512" y1="500" x2="512" gradientUnits="userSpaceOnUse"><stop offset="0" stop-color="#21409a"/><stop offset="1" stop-color="#101435"/><stop offset="1" stop-color="#0e1232"/></linearGradient><linearGradient id="linear-gradient-2" x1="512" y1="500" x2="512" y2="315.09" gradientUnits="userSpaceOnUse"><stop offset="0" stop-color="#273318"/><stop offset="0.68" stop-color="#122816"/></linearGradient><linearGradient id="linear-gradient-3" x1="1058.89" y1="438.78" x2="1058.89" y2="300.92" gradientTransform="matrix(-0.98, 0.19, 0.19, 0.98, 1031.42, -202.94)" gradientUnits="userSpaceOnUse"><stop offset="0.2" stop-color="#bc5927"/><stop offset="0.75" stop-color="#ec7d2a"/></linearGradient><linearGradient id="linear-gradient-4" x1="941.78" y1="397.38" x2="941.78" y2="353.44" gradientTransform="matrix(-0.98, 0.19, 0.19, 0.98, 1031.42, -202.94)" gradientUnits="userSpaceOnUse"><stop offset="0" stop-color="#ec7d2a"/><stop offset="0.5" stop-color="#bf5c28"/></linearGradient><linearGradient id="linear-gradient-5" x1="877.5" y1="410.22" x2="877.5" y2="131.02" gradientTransform="matrix(-0.98, 0.19, 0.19, 0.98, 1031.42, -202.94)" gradientUnits="userSpaceOnUse"><stop offset="0.16" stop-color="#bc5927"/><stop offset="0.4" stop-color="#ec7d2a"/></linearGradient><linearGradient id="linear-gradient-6" x1="810.61" y1="360.4" x2="810.61" y2="202.61" gradientTransform="matrix(-0.98, 0.19, 0.19, 0.98, 1031.42, -202.94)" gradientUnits="userSpaceOnUse"><stop offset="0.22" stop-color="#ddbb7f"/><stop offset="0.43" stop-color="#f9d78e"/></linearGradient><linearGradient id="linear-gradient-7" x1="849.32" y1="479.47" x2="849.32" y2="397.38" gradientTransform="matrix(-0.98, 0.19, 0.19, 0.98, 1031.42, -202.94)" gradientUnits="userSpaceOnUse"><stop offset="0" stop-color="#171717"/><stop offset="0.36" stop-color="#231f20"/></linearGradient><linearGradient id="linear-gradient-8" x1="893.1" y1="486.4" x2="893.1" y2="407.23" xlink:href="#linear-gradient-7"/><linearGradient id="linear-gradient-9" x1="950.86" y1="456.21" x2="950.86" y2="389.27" xlink:href="#linear-gradient-7"/><linearGradient id="linear-gradient-10" x1="1010.53" y1="460.71" x2="1010.53" y2="397.93" xlink:href="#linear-gradient-7"/><linearGradient id="linear-gradient-11" x1="806.43" y1="238.65" x2="806.43" y2="223.32" xlink:href="#linear-gradient-7"/><linearGradient id="linear-gradient-12" x1="759.09" y1="196.63" x2="759.09" y2="144.82" gradientTransform="matrix(-0.98, 0.19, 0.19, 0.98, 1031.42, -202.94)" gradientUnits="userSpaceOnUse"><stop offset="0.22" stop-color="#ddbb7f"/><stop offset="0.52" stop-color="#f9d78e"/></linearGradient><linearGradient id="linear-gradient-13" x1="839.51" y1="189.73" x2="839.51" y2="137.44" xlink:href="#linear-gradient-12"/><linearGradient id="linear-gradient-14" x1="54.92" y1="430.35" x2="54.92" y2="364.78" gradientUnits="userSpaceOnUse"><stop offset="0.35" stop-color="#ddbb7f"/><stop offset="0.74" stop-color="#f9d78e"/></linearGradient></defs><title>banner</title><g id="Layer_2" data-name="Layer 2"><rect class="cls-1" width="1024" height="500"/><path class="cls-2" d="M0,340.78s434.72-55.6,1024-3.21V500H0Z"/><circle class="cls-3" cx="705.73" cy="107.21" r="1.51"/><circle class="cls-3" cx="410.66" cy="43.16" r="2.85"/><circle class="cls-3" cx="30.1" cy="215.35" r="2.96"/><circle class="cls-3" cx="926.81" cy="187.2" r="3.85"/><circle class="cls-3" cx="854.89" cy="24.32" r="3.16"/><circle class="cls-3" cx="38.12" cy="96.72" r="2.04"/><circle class="cls-3" cx="107.93" cy="121.1" r="1.9"/><circle class="cls-3" cx="133.12" cy="44.58" r="1.43"/><circle class="cls-3" cx="199.53" cy="23.79" r="0.83"/><circle class="cls-3" cx="276.9" cy="25.57" r="0.95"/><circle class="cls-3" cx="379.35" cy="213.87" r="1.48"/><circle class="cls-3" cx="661.86" cy="235" r="2.4"/><circle class="cls-3" cx="766.73" cy="247.7" r="2.3"/><circle class="cls-3" cx="863.01" cy="281.94" r="4.96"/><circle class="cls-3" cx="950.57" cy="257.47" r="1.34"/><circle class="cls-3" cx="981.69" cy="128.41" r="2.52"/><circle class="cls-3" cx="993.61" cy="49.75" r="1.6"/><circle class="cls-3" cx="853.29" cy="117.86" r="3.24"/><circle class="cls-3" cx="590.49" cy="71.14" r="2.67"/><circle class="cls-3" cx="452.09" cy="216.09" r="2.22"/><circle class="cls-3" cx="108.88" cy="206.52" r="0.95"/><circle class="cls-3" cx="534.69" cy="284.42" r="2.48"/><circle class="cls-3" cx="518.2" cy="132.95" r="2.03"/><circle class="cls-3" cx="533.79" cy="25.9" r="1.58"/><circle class="cls-3" cx="706.49" cy="39.55" r="0.75"/><circle class="cls-3" cx="63.76" cy="294.87" r="3.11"/></g><g id="Layer_4" data-name="Layer 4"><path class="cls-4" d="M14.72,411.06s.88,20.23,31.39,19.25c0,0,29.65-1.3,50.07-25.81a73.56,73.56,0,0,0,11.94-20.29l2.73-51.8L94.78,297.92l-8.54-15.17s.48,39.82-24.34,82h0a172.55,172.55,0,0,1-15,21.56S7.56,388.91,14.72,411.06Z"/><path class="cls-5" d="M177.38,363.21s16.85,1.05,15.65-17.34l1.76-30.27-39.44,7.49s11.13,22.27,6.82,25.38c0,0-8,5.77-6.08,10.95Z"/><path class="cls-6" d="M87.27,287.58s8.33,35.32,19.55,65.2c0,0-3.68,9.84-.17,24.84,0,0,6.09,6.35,17,2,0,0,21-1,21.94-49.55,0,0,5.16-7.19,55.42-12.48,0,0,16.7,48.42,18.2,51.07,0,0,15.3-1.91,14.9-5.76,0,0-4.65-45-5.13-47.67v0l28.86-4.49,7.26,41.72s13.41-1.56,14-8.85c0,0-.45-17.89,18.77-52.55.07,0,2.63-.83,7.82-53.4,0,0,2.9-18.81,13-32.48h0c.78-1.08,1.6-2.1,2.47-3.09,0,0,27.35-36.54,29.64-45.14,0,0-13.61-18.31-22.3-22.87,0,0,11.35-27.95,2.6-60.24,0,0-27.15,15.27-34.74,45.77,0,0-5.08-2.63-35.47,4.13,0,0-25-37.07-33.82-40.62,0,0-8.14,20.82.35,60.34,0,0-14.82,9.69-19.16,16.06l0,0c.6.76,15.47,19.63,16,24,0,0-22.25,17-33.1,20a145.5,145.5,0,0,1-33.23,12.52S73.79,238.87,87.27,287.58Z"/><path class="cls-7" d="M228.53,315.29l.48-.07,28.86-4.51A165.59,165.59,0,0,0,291,258.06c12-31.5,13.74-36.89,18.2-42.63a86.4,86.4,0,0,1,9.52-10.29c.78-1.08,1.6-2.1,2.47-3.09,8.82-11.78,17.62-23.76,25.21-36.37,1.45-2.4,4.57-6.39,4.35-9.29-2.24.13-4.59,2-7,2.33a31,31,0,0,1-10.6-.41c-5.29-1-10.45-2.71-15.81-3.18-11-1-19,5.83-24.88,14.48L281.8,182.24c.57-.67-12.79-12.33-13.72-13.1-8.47-7-16.93-10-27.92-9.14-5.22.42-10.5,1.18-15.74.56-5.4-.64-10.63-2-16.13-1a128.66,128.66,0,0,0,16,24s13.41,21.63,22.09,33.85C246.35,217.39,265.61,261.24,228.53,315.29Z"/><path class="cls-8" d="M279,344.34s2,67.77,3.19,73.92c0,0,9.61.78,7.32,6.77,0,0-5.47,3-11.19,2.12l-13.2-74.72Z"/><path class="cls-9" d="M234.14,362.89l13.1,69s9.34.19,8,6.31c0,0-7.21,4.14-13.39,2.54l-22.67-72.1Z"/><path class="cls-10" d="M177.38,363.21l9.3,49s10.54,3.09,8.84,7c0,0-3.27,2.58-10.25,1.94l-29.18-61.72Z"/><path class="cls-11" d="M120,380.74l5.31,50.37s6.61,2.12,4.61,4.79c0,0-1.39,3-9.77,1.85l-13.48-60.13Z"/><path class="cls-12" d="M281.81,182.25s12.53-11.52,11.31-13.57c-1.8-3.05-8.14-2.31-10.95-2a32.86,32.86,0,0,0-6.86,1.45c-1.32.45-5.13,1.6-5.59,3.13a1.52,1.52,0,0,0,.34,1.33A38.36,38.36,0,0,0,281.81,182.25Z"/><path class="cls-13" d="M330.18,77.56s-24.74,30.49-28.08,43.86l22,10S338.42,113.22,330.18,77.56Z"/><path class="cls-14" d="M251.67,125S239.75,95.7,230.16,89c0,0-10.73,9.71.13,53.2Z"/><path class="cls-15" d="M303.71,180.11s-13.34,10.75-21.9,2.14c0,0-6,8.15-22,2.71"/><path d="M264.36,154.42a3.5,3.5,0,0,1-1.21,2.42c-1.58-2.22-5-3.85-9-4a15,15,0,0,0-4.25.41c.55-2.29,3.68-3.95,7.39-3.79C261.3,149.61,264.47,151.84,264.36,154.42Z"/><path d="M295.58,153a3.89,3.89,0,0,0,1.47,2.46c1.32-2.53,4.53-4.61,8.5-5.19a13.94,13.94,0,0,1,4.28,0c-.81-2.4-4.11-3.85-7.78-3.31C298.07,147.53,295.18,150.23,295.58,153Z"/><path class="cls-16" d="M96.18,404.51c-20.41,24.5-50.07,25.8-50.07,25.8a52.06,52.06,0,0,1-10.8-.66c-5.24-.91-10.7-2.88-14.56-6.69a22.75,22.75,0,0,1-6.27-11.85c-.52-2.74-1.15-5.68-.63-8.43.89-4.75,5.3-7.92,9.52-10.14-1.46-1-4.43-3-6.49-3.3,0,0,9-1.07,12.85.53a64.15,64.15,0,0,1,17.18-3.43,172.44,172.44,0,0,0,15-21.56c-1.19,13.51,6.88,24.92,6.88,24.92,5.75,7.89,12.22,7.64,12.22,7.64-10,6.63-6.23,9.34-6.23,9.34C79.94,409.8,95.18,404.82,96.18,404.51Z"/></g></svg>