<svg id="Layer_1" data-name="Layer 1" xmlns="http://www.w3.org/2000/svg" xmlns:xlink="http://www.w3.org/1999/xlink" viewBox="0 0 480 500"><defs><style>.cls-1{fill:url(#linear-gradient);}.cls-2{fill:url(#linear-gradient-2);}.cls-3{fill:url(#linear-gradient-3);}.cls-4{fill:url(#linear-gradient-4);}.cls-5{fill:url(#linear-gradient-5);}.cls-6{fill:url(#linear-gradient-6);}.cls-7{fill:none;stroke:#000;stroke-miterlimit:10;stroke-width:0.5px;}</style><linearGradient id="linear-gradient" x1="240" y1="500" x2="240" gradientUnits="userSpaceOnUse"><stop offset="0.22" stop-color="#27aae1"/><stop offset="0.83" stop-color="#ee375f"/><stop offset="1" stop-color="#e76b24"/></linearGradient><linearGradient id="linear-gradient-2" x1="240" y1="500" x2="240" y2="315.09" gradientUnits="userSpaceOnUse"><stop offset="0" stop-color="#415224"/><stop offset="1" stop-color="#372311"/></linearGradient><linearGradient id="linear-gradient-3" x1="-45.83" y1="594.32" x2="162.03" y2="386.45" gradientTransform="matrix(-1, 0, 0, 1, 494.05, 0)" gradientUnits="userSpaceOnUse"><stop offset="0.16" stop-color="#bc5927"/><stop offset="0.4" stop-color="#ec7d2a"/></linearGradient><linearGradient id="linear-gradient-4" x1="78.17" y1="637.88" x2="78.17" y2="383.03" gradientTransform="matrix(-1, 0, 0, 1, 494.05, 0)" gradientUnits="userSpaceOnUse"><stop offset="0.22" stop-color="#ddbb7f"/><stop offset="0.43" stop-color="#f9d78e"/></linearGradient><linearGradient id="linear-gradient-5" x1="47.21" y1="372.91" x2="18.76" y2="344.46" gradientTransform="matrix(-1, 0, 0, 1, 494.05, 0)" gradientUnits="userSpaceOnUse"><stop offset="0.22" stop-color="#ddbb7f"/><stop offset="0.52" stop-color="#f9d78e"/></linearGradient><linearGradient id="linear-gradient-6" x1="98.85" y1="363.13" x2="98.85" y2="325.37" xlink:href="#linear-gradient-5"/></defs><title>banner-cel-min</title><rect class="cls-1" width="480" height="500"/><path class="cls-2" d="M0,340.78s203.78-55.6,480-3.21V500H0Z"/><path class="cls-3" d="M374.79,545.91C364.7,560.42,365.32,633,395,633c0,0,.94.18,2.65.47,5.85,1,20.8,3.25,38.09,4.42,20.8,1.41,45,1.2,60.85-4.89,11-4.24,19.33-12.93,21.63-24.68a45.5,45.5,0,0,0-1.79-22.7c-2.2-6.73-7.44-11.91-11.78-17.31A89.58,89.58,0,0,1,498.1,559c-2-3.27-3.47-6.84-5.43-10.12a174.42,174.42,0,0,1-10.43-21.8c-1.76-4.2-3.28-8.46-4.82-12.73-2.33-6.44-2-13.1-3.43-19.65-.87-3.92-2.1-7.91-3.19-11.79-2.74-9.83-6-19.66-10.59-28.78a48.11,48.11,0,0,0-8.58-12.52c-.16-.16-.32-.32-.48-.46l.85-.81s0,0,0,0l.63-.58,0-.05c.38-.35.82-.78,1.33-1.24.07-.07.14-.16.24-.25,5.48-5.22,16.93-16.21,23.78-23.78l.12-.13.15-.17.31-.39.59-.7c.08-.11.17-.21.26-.32L480,412l.23-.28c1-1.2,1.88-2.34,2.46-3.11l.35-.47,0-.06a.31.31,0,0,1,.05-.1l.16-.29-20.19-21.46s14.22-32.35,8.83-50.49c0,0-33.2,11.37-38.36,27.14,0,0-7.7-2.54-21.59-3.15,0,0-2.51-29.67-13.88-39.13,0,0-20,15.17-18.92,42.28,0,0-23.85,18.28-30.78,20.18,0,.11.58.49.61.6.06.32.39.5.46.81.1.51-.14.91,0,1.42.15.68.66,1.39.82,2.06.18.84-.59,1.61-.4,2.45s.47,1.93.71,2.9.54,2.17.83,3.26.62,2.37.95,3.56.71,2.53,1.08,3.8.79,2.66,1.2,4,.86,2.76,1.32,4.13.95,2.81,1.44,4.21,1,2.83,1.56,4.24,1.11,2.82,1.69,4.22,1.17,2.76,1.8,4.13,1.25,2.68,1.92,4,1.32,2.56,2,3.82,1.4,2.4,2.15,3.57,1.47,2.21,2.27,3.28,1.54,2,2.38,2.93c.35.39.71-.16,1.08.22.18.18.45.4.63.58a5.13,5.13,0,0,1,.62.9c.56,1.18.52,3.46.63,4.75.15,1.69.68,3.21.72,4.9.38,16.27,2.52,32.43,4.62,48.54.92,7.12,1.3,13.17.21,20.26C380.7,533.39,378.73,540.24,374.79,545.91Z"/><path class="cls-4" d="M353.37,409.86q.6,2,1.29,4.05a103.85,103.85,0,0,0,15.89,29.76c1.53,2,3.88,4,5,6.2s.34,5.66.56,8.07c.3,3.2.44,6.43,2.22,9.16a56.31,56.31,0,0,1,2.81,5.6,149.59,149.59,0,0,1,9.17,23.41,180.25,180.25,0,0,1,6,27.38,177.54,177.54,0,0,1,1.45,33.71c-.29,5.45-.84,10.89-1.63,16.29l-2,37.85,3.51,22.12c5.85,1,20.8,3.25,38.08,4.42.89-4.67,1.08-14.07-2.12-32.86-6-35.39,0-2.11,0-2.11V565.47c.15-2.59.21-5.2.25-7.8q.15-9.95-.34-19.88a268.1,268.1,0,0,0-2.58-26.69,171.2,171.2,0,0,0-6.46-28.22c-.91-2.76-1.69-5.67-2.8-8.34-2-4.82-6.61-10.16-2-15.15,1.62-1.77,3.94-2.68,6.15-3.61,21.65-9.09,40.48-25.49,54.5-44.15.27-.37,3.22-3.79,3-3.9-4.43-2.65-10-4.31-14.88-5.93-9.38-3.1-19.5-5.53-29.45-4.78-5.08.38-10.22,1.72-14.35,4.81l-16.42,13.89L399.39,401a1,1,0,0,1-.1-.26q-.17-.36-.36-.72c-.2-.38-.43-.75-.67-1.12a16.26,16.26,0,0,0-1.05-1.42c-.47-.58-1-1.14-1.5-1.67s-1.32-1.24-2-1.82-1.71-1.31-2.61-1.9-2.14-1.32-3.26-1.9c-1.29-.67-2.62-1.27-4-1.82-1.56-.63-3.15-1.18-4.76-1.67-1.85-.56-3.73-1-5.62-1.44q-3.26-.69-6.54-1.12c-2.5-.34-5-.58-7.53-.74-2.86-.19-5.72-.27-8.58-.28h-1.61c-.16,0-.69-.15-.75,0s.23.62.27.74a22.88,22.88,0,0,1,1,5.75c.05.78.23,1.58.23,2.37A102.67,102.67,0,0,0,353.37,409.86Z"/><path d="M420,403.69a2,2,0,0,0-1.74-.34,35.74,35.74,0,0,1-17.54-2,3,3,0,0,0-1.62-.29c-1.32.28-1,2.78-.88,3.74a14.38,14.38,0,0,0,1.37,5c.94,2,2.69,4.69,4.78,5.66,4.19,1.93,9.08-.91,11.91-3.88a16.41,16.41,0,0,0,3.83-6.14C420.42,404.62,420.37,404,420,403.69Z"/><path d="M428.79,392.34a4.62,4.62,0,0,0,.5,2.85,8.9,8.9,0,0,1,8.24-2.82,9.58,9.58,0,0,1,3.42,1.19c0-2.6-2.23-4.95-5.32-5.42C432.29,387.62,429.23,389.51,428.79,392.34Z"/><path d="M395.43,388.11a4.58,4.58,0,0,1-1.34,2.59,8.86,8.86,0,0,0-7-5.22,9.73,9.73,0,0,0-3.62.1c.78-2.5,3.63-4.08,6.72-3.59C393.53,382.51,395.88,385.26,395.43,388.11Z"/><path class="cls-5" d="M458.83,381.53s12.42-12.9,11.67-41.86c0,0-23.31,8.28-33.44,23.46Z"/><path class="cls-6" d="M407.71,360s-2-28.5-9-34.6c0,0-16,8.46-16,37.76Z"/><path class="cls-7" d="M426.59,420.82s-14.15,7.62-19.8-4.84c0,0-7.08,8.31-19.93.35"/></svg>