<svg id="Layer_1" data-name="Layer 1" xmlns="http://www.w3.org/2000/svg" xmlns:xlink="http://www.w3.org/1999/xlink" viewBox="0 0 992 500"><defs><style>.cls-1{fill:url(#linear-gradient);}.cls-2{fill:url(#linear-gradient-2);}.cls-3{fill:#fff;}.cls-4{fill:url(#linear-gradient-3);}.cls-5{fill:url(#linear-gradient-4);}.cls-6{fill:url(#linear-gradient-5);}.cls-7{fill:url(#linear-gradient-6);}.cls-8{fill:url(#linear-gradient-7);}.cls-9{fill:url(#linear-gradient-8);}.cls-10{fill:url(#linear-gradient-9);}.cls-11{fill:url(#linear-gradient-10);}.cls-12{fill:url(#linear-gradient-11);}.cls-13{fill:url(#linear-gradient-12);}.cls-14{fill:url(#linear-gradient-13);}.cls-15{fill:none;stroke:#000;stroke-miterlimit:10;stroke-width:0.5px;}.cls-16{fill:url(#linear-gradient-14);}</style><linearGradient id="linear-gradient" x1="496" y1="500" x2="496" gradientUnits="userSpaceOnUse"><stop offset="0" stop-color="#21409a"/><stop offset="1" stop-color="#101435"/><stop offset="1" stop-color="#0e1232"/></linearGradient><linearGradient id="linear-gradient-2" x1="496" y1="500" x2="496" y2="315.09" gradientUnits="userSpaceOnUse"><stop offset="0" stop-color="#273318"/><stop offset="0.68" stop-color="#122816"/></linearGradient><linearGradient id="linear-gradient-3" x1="1882.74" y1="354.53" x2="1882.74" y2="230.3" gradientTransform="matrix(-0.98, 0.19, 0.19, 0.98, 1853.77, -280.3)" gradientUnits="userSpaceOnUse"><stop offset="0.2" stop-color="#bc5927"/><stop offset="0.75" stop-color="#ec7d2a"/></linearGradient><linearGradient id="linear-gradient-4" x1="1777.22" y1="317.22" x2="1777.22" y2="277.63" gradientTransform="matrix(-0.98, 0.19, 0.19, 0.98, 1853.77, -280.3)" gradientUnits="userSpaceOnUse"><stop offset="0" stop-color="#ec7d2a"/><stop offset="0.5" stop-color="#bf5c28"/></linearGradient><linearGradient id="linear-gradient-5" x1="1719.29" y1="328.8" x2="1719.29" y2="77.2" gradientTransform="matrix(-0.98, 0.19, 0.19, 0.98, 1853.77, -280.3)" gradientUnits="userSpaceOnUse"><stop offset="0.16" stop-color="#bc5927"/><stop offset="0.4" stop-color="#ec7d2a"/></linearGradient><linearGradient id="linear-gradient-6" x1="1659.01" y1="283.9" x2="1659.01" y2="141.71" gradientTransform="matrix(-0.98, 0.19, 0.19, 0.98, 1853.77, -280.3)" gradientUnits="userSpaceOnUse"><stop offset="0.22" stop-color="#ddbb7f"/><stop offset="0.43" stop-color="#f9d78e"/></linearGradient><linearGradient id="linear-gradient-7" x1="1693.9" y1="391.19" x2="1693.9" y2="317.22" gradientTransform="matrix(-0.98, 0.19, 0.19, 0.98, 1853.77, -280.3)" gradientUnits="userSpaceOnUse"><stop offset="0" stop-color="#171717"/><stop offset="0.36" stop-color="#231f20"/></linearGradient><linearGradient id="linear-gradient-8" x1="1733.35" y1="397.44" x2="1733.35" y2="326.1" xlink:href="#linear-gradient-7"/><linearGradient id="linear-gradient-9" x1="1785.4" y1="370.23" x2="1785.4" y2="309.91" xlink:href="#linear-gradient-7"/><linearGradient id="linear-gradient-10" x1="1839.17" y1="374.29" x2="1839.17" y2="317.72" xlink:href="#linear-gradient-7"/><linearGradient id="linear-gradient-11" x1="1655.25" y1="174.19" x2="1655.25" y2="160.37" xlink:href="#linear-gradient-7"/><linearGradient id="linear-gradient-12" x1="1612.59" y1="136.32" x2="1612.59" y2="89.63" gradientTransform="matrix(-0.98, 0.19, 0.19, 0.98, 1853.77, -280.3)" gradientUnits="userSpaceOnUse"><stop offset="0.22" stop-color="#ddbb7f"/><stop offset="0.52" stop-color="#f9d78e"/></linearGradient><linearGradient id="linear-gradient-13" x1="1685.05" y1="130.1" x2="1685.05" y2="82.98" xlink:href="#linear-gradient-12"/><linearGradient id="linear-gradient-14" x1="53.93" y1="423.38" x2="53.93" y2="364.3" gradientUnits="userSpaceOnUse"><stop offset="0.35" stop-color="#ddbb7f"/><stop offset="0.74" stop-color="#f9d78e"/></linearGradient></defs><title>banner-tablet</title><rect class="cls-1" width="992" height="500"/><path class="cls-2" d="M0,340.78s421.14-55.6,992-3.21V500H0Z"/><circle class="cls-3" cx="705.73" cy="107.21" r="1.51"/><circle class="cls-3" cx="410.66" cy="43.16" r="2.85"/><circle class="cls-3" cx="30.1" cy="215.35" r="2.96"/><circle class="cls-3" cx="926.81" cy="187.2" r="3.85"/><circle class="cls-3" cx="854.89" cy="24.32" r="3.16"/><circle class="cls-3" cx="38.12" cy="96.72" r="2.04"/><circle class="cls-3" cx="107.93" cy="121.1" r="1.9"/><circle class="cls-3" cx="133.12" cy="44.58" r="1.43"/><circle class="cls-3" cx="199.53" cy="23.79" r="0.83"/><circle class="cls-3" cx="276.9" cy="25.57" r="0.95"/><circle class="cls-3" cx="379.35" cy="213.87" r="1.48"/><circle class="cls-3" cx="661.86" cy="235" r="2.4"/><circle class="cls-3" cx="766.73" cy="247.7" r="2.3"/><circle class="cls-3" cx="863.01" cy="281.94" r="4.96"/><circle class="cls-3" cx="950.57" cy="257.47" r="1.34"/><circle class="cls-3" cx="981.69" cy="128.41" r="2.52"/><circle class="cls-3" cx="853.29" cy="117.86" r="3.24"/><circle class="cls-3" cx="590.49" cy="71.14" r="2.67"/><circle class="cls-3" cx="452.09" cy="216.09" r="2.22"/><circle class="cls-3" cx="108.88" cy="206.52" r="0.95"/><circle class="cls-3" cx="534.69" cy="284.42" r="2.48"/><circle class="cls-3" cx="518.2" cy="132.95" r="2.03"/><circle class="cls-3" cx="533.79" cy="25.9" r="1.58"/><circle class="cls-3" cx="706.49" cy="39.55" r="0.75"/><circle class="cls-3" cx="63.76" cy="294.87" r="3.11"/><path class="cls-4" d="M17.7,406s.81,18.23,28.29,17.35c0,0,26.73-1.17,45.12-23.26a66,66,0,0,0,10.76-18.28l2.47-46.68L89.85,304.05l-7.69-13.67s.43,35.88-21.94,73.9v0a155.39,155.39,0,0,1-13.52,19.42S11.26,386,17.7,406Z"/><path class="cls-5" d="M164.29,362.88s15.18.95,14.1-15.62L180,320l-35.54,6.75s10,20.07,6.14,22.87c0,0-7.25,5.2-5.48,9.86Z"/><path class="cls-6" d="M83.08,294.73s7.51,31.83,17.62,58.75c0,0-3.32,8.87-.16,22.39,0,0,5.5,5.72,15.35,1.79,0,0,18.94-.94,19.78-44.65,0,0,4.64-6.48,49.94-11.25,0,0,15,43.64,16.39,46,0,0,13.79-1.73,13.43-5.19,0,0-4.19-40.58-4.62-43v0l26-4,6.54,37.59s12.08-1.4,12.6-8c0,0-.4-16.12,16.92-47.35.06,0,2.37-.75,7.05-48.12,0,0,2.61-16.95,11.68-29.27h0c.71-1,1.44-1.89,2.23-2.78,0,0,24.64-32.93,26.7-40.68,0,0-12.26-16.5-20.09-20.61,0,0,10.23-25.18,2.34-54.28,0,0-24.46,13.76-31.3,41.24,0,0-4.57-2.37-32,3.72,0,0-22.52-33.4-30.48-36.6,0,0-7.33,18.77.32,54.38,0,0-13.35,8.72-17.27,14.47l0,0c.54.69,13.94,17.69,14.39,21.65,0,0-20.05,15.28-29.83,18a131,131,0,0,1-29.94,11.28S70.94,250.84,83.08,294.73Z"/><path class="cls-7" d="M210.38,319.7l.43-.06,26-4.06a149.18,149.18,0,0,0,29.82-47.45c10.8-28.38,12.39-33.24,16.41-38.41a78.69,78.69,0,0,1,8.57-9.28c.71-1,1.44-1.89,2.23-2.78,7.95-10.62,15.88-21.41,22.72-32.78,1.3-2.16,4.11-5.75,3.92-8.37-2,.12-4.14,1.76-6.28,2.11a27.88,27.88,0,0,1-9.55-.38c-4.77-.89-9.42-2.44-14.24-2.86-9.93-.88-17.12,5.25-22.43,13l-9.61,11.39c.51-.61-11.52-11.12-12.37-11.81-7.63-6.27-15.25-9-25.15-8.23-4.71.38-9.47,1.06-14.19.5s-9.57-1.81-14.53-.94A115.68,115.68,0,0,0,206.53,201s12.09,19.48,19.91,30.5C226.44,231.48,243.79,271,210.38,319.7Z"/><path class="cls-8" d="M255.86,345.88s1.82,61.07,2.88,66.61c0,0,8.66.7,6.6,6.1,0,0-4.93,2.7-10.08,1.91l-11.9-67.33Z"/><path class="cls-9" d="M215.43,362.59l11.8,62.2s8.42.17,7.26,5.69c0,0-6.5,3.73-12.07,2.29l-20.42-65Z"/><path class="cls-10" d="M164.29,362.88,172.66,407s9.51,2.79,8,6.31c0,0-2.94,2.33-9.23,1.76l-26.3-55.63Z"/><path class="cls-11" d="M112.56,378.68l4.78,45.39s6,1.91,4.16,4.31c0,0-1.26,2.69-8.81,1.67l-12.15-54.18Z"/><path class="cls-12" d="M258.39,199.81s11.29-10.37,10.19-12.23c-1.62-2.74-7.33-2.07-9.86-1.78a29.64,29.64,0,0,0-6.19,1.3c-1.19.41-4.62,1.44-5,2.82a1.33,1.33,0,0,0,.3,1.2A34.37,34.37,0,0,0,258.39,199.81Z"/><path class="cls-13" d="M302,105.48S279.68,133,276.67,145l19.81,9S309.4,137.61,302,105.48Z"/><path class="cls-14" d="M231.23,148.18s-10.74-26.35-19.39-32.36c0,0-9.67,8.75.13,47.93Z"/><path class="cls-15" d="M278.13,197.88s-12,9.7-19.74,1.93c0,0-5.38,7.35-19.84,2.45"/><path d="M242.66,174.74a3.16,3.16,0,0,1-1.08,2.18c-1.43-2-4.5-3.47-8.12-3.62a13.2,13.2,0,0,0-3.83.37c.5-2.07,3.32-3.56,6.66-3.42C239.9,170.4,242.76,172.42,242.66,174.74Z"/><path d="M270.8,173.44a3.55,3.55,0,0,0,1.32,2.22c1.19-2.28,4.08-4.16,7.66-4.68a12.47,12.47,0,0,1,3.86,0c-.73-2.16-3.71-3.47-7-3C273,168.53,270.43,171,270.8,173.44Z"/><path class="cls-16" d="M91.11,400.1C72.72,422.17,46,423.35,46,423.35a46.63,46.63,0,0,1-9.73-.6c-4.72-.81-9.64-2.6-13.12-6a20.47,20.47,0,0,1-5.64-10.68c-.48-2.47-1-5.13-.58-7.6.8-4.28,4.78-7.14,8.59-9.14-1.32-.92-4-2.67-5.85-3,0,0,8.06-1,11.57.47a58.36,58.36,0,0,1,15.48-3.09A156.12,156.12,0,0,0,60.23,364.3c-1.08,12.17,6.19,22.45,6.19,22.45,5.18,7.11,11,6.89,11,6.89-9,6-5.61,8.42-5.61,8.42C76.48,404.87,90.21,400.38,91.11,400.1Z"/></svg>