<svg id="Layer_1" data-name="Layer 1" xmlns="http://www.w3.org/2000/svg" xmlns:xlink="http://www.w3.org/1999/xlink" viewBox="0 0 480 500"><defs><style>.cls-1{fill:url(#linear-gradient);}.cls-2{fill:url(#linear-gradient-2);}.cls-3{fill:url(#linear-gradient-3);}.cls-4{fill:url(#linear-gradient-4);}.cls-5{fill:url(#linear-gradient-5);}.cls-6{fill:url(#linear-gradient-6);}.cls-7{fill:url(#linear-gradient-7);}.cls-8{fill:url(#linear-gradient-8);}.cls-9{fill:url(#linear-gradient-9);}.cls-10{fill:url(#linear-gradient-10);}.cls-11{fill:url(#linear-gradient-11);}.cls-12{fill:none;stroke:#231f20;stroke-miterlimit:10;stroke-width:0.5px;}.cls-13{fill:#231f20;}.cls-14{fill:url(#linear-gradient-12);}.cls-15{fill:url(#linear-gradient-13);}</style><linearGradient id="linear-gradient" x1="240" y1="500" x2="240" gradientUnits="userSpaceOnUse"><stop offset="0" stop-color="#fff"/><stop offset="1" stop-color="#2dc3e7"/></linearGradient><linearGradient id="linear-gradient-2" x1="240" y1="500" x2="240" y2="315.09" gradientUnits="userSpaceOnUse"><stop offset="0" stop-color="#195634"/><stop offset="1" stop-color="#093a21"/></linearGradient><linearGradient id="linear-gradient-3" x1="296.24" y1="466.94" x2="296.24" y2="424.87" gradientTransform="matrix(-1, 0, 0, 1, 435.84, 0)" gradientUnits="userSpaceOnUse"><stop offset="0.59" stop-color="#ec7d2a"/><stop offset="0.88" stop-color="#bc5927"/></linearGradient><linearGradient id="linear-gradient-4" x1="293.34" y1="467.14" x2="293.34" y2="435.58" gradientTransform="matrix(-1, 0, 0, 1, 435.84, 0)" gradientUnits="userSpaceOnUse"><stop offset="0" stop-color="#171717"/><stop offset="0.36" stop-color="#231f20"/></linearGradient><linearGradient id="linear-gradient-5" x1="162.46" y1="449.15" x2="162.46" y2="374.57" gradientTransform="matrix(-1, 0, 0, 1, 435.84, 0)" gradientUnits="userSpaceOnUse"><stop offset="0.3" stop-color="#bc5927"/><stop offset="1" stop-color="#e37729"/></linearGradient><linearGradient id="linear-gradient-6" x1="120.96" y1="441.17" x2="120.96" y2="377.84" gradientTransform="matrix(-1, 0, 0, 1, 435.84, 0)" gradientUnits="userSpaceOnUse"><stop offset="0.35" stop-color="#ddbb7f"/><stop offset="0.74" stop-color="#f9d78e"/></linearGradient><linearGradient id="linear-gradient-7" x1="308.37" y1="481.54" x2="308.37" y2="255.11" gradientTransform="matrix(-1, 0, 0, 1, 435.84, 0)" gradientUnits="userSpaceOnUse"><stop offset="0.24" stop-color="#bc5927"/><stop offset="0.47" stop-color="#ec7d2a"/></linearGradient><linearGradient id="linear-gradient-8" x1="244.17" y1="479.65" x2="244.17" y2="441.05" xlink:href="#linear-gradient-4"/><linearGradient id="linear-gradient-9" x1="349.88" y1="434.64" x2="349.88" y2="303.07" gradientTransform="matrix(-1, 0, 0, 1, 435.84, 0)" gradientUnits="userSpaceOnUse"><stop offset="0.22" stop-color="#ddbb7f"/><stop offset="0.43" stop-color="#f9d78e"/></linearGradient><linearGradient id="linear-gradient-10" x1="320.26" y1="446.16" x2="320.26" y2="404.87" xlink:href="#linear-gradient-4"/><linearGradient id="linear-gradient-11" x1="355.32" y1="482.66" x2="355.32" y2="431.33" xlink:href="#linear-gradient-4"/><linearGradient id="linear-gradient-12" x1="334.98" y1="287.28" x2="334.98" y2="263.41" gradientTransform="matrix(-1, 0, 0, 1, 435.84, 0)" gradientUnits="userSpaceOnUse"><stop offset="0.22" stop-color="#ddbb7f"/><stop offset="0.52" stop-color="#f9d78e"/></linearGradient><linearGradient id="linear-gradient-13" x1="365.09" y1="283.9" x2="365.09" y2="258.8" xlink:href="#linear-gradient-12"/></defs><title>banner-cel</title><rect class="cls-1" width="480" height="500"/><path class="cls-2" d="M0,340.78s203.78-55.6,480-3.21V500H0Z"/><path class="cls-3" d="M137.85,438.74c3.15,4.23.27,24.24.27,24.24-4.35.53-3.58,3-3.58,3,4,2.2,5.69,0,5.69,0,4.17-9.44,8.27-25.48,10.1-29.15.19-.39.71-1.86.71-1.86a7.19,7.19,0,0,1,.68-10.08l-23.93.17c-1.89,7,5.57,11.89,8.4,13.36h0A4.45,4.45,0,0,0,137.85,438.74Z"/><path class="cls-4" d="M134.24,466.09c4,2.19,6.15.27,6.15.27,4.17-9.44,9.43-27.21,10.47-30.78L136.2,438.4c.64.33,1,.51,1,.51,3.15,4.23.42,24,.42,24C133.3,463.48,134.24,466.09,134.24,466.09Z"/><path class="cls-5" d="M203.36,407.36S221.81,427.43,262,436c0,0,16,6.56,16,13.11,0,0,4.51-9,2-12.7,2.86,4.27,16.75,4.81,22.33,4.72l1.15,0c17.09-.67,29-12,36.23-26.84,3-6.16,4.63-13.27,3.15-20-3.78-17.1-19.62-16.8-30.89-7.47l-2.87-9s-1.16,13.31-13.67,18.3a27.16,27.16,0,0,1-8.46,1.79c-20.49,1.23-38.51,5.32-80.32-23.36Z"/><path class="cls-6" d="M295.16,423.34c1.44,2.86-2.25,8.2-2.25,8.2a45.82,45.82,0,0,1,9.41,9.63l1.15,0c17.09-.67,29-12,36.23-26.84,3-6.16,4.63-13.27,3.15-20-3.78-17.1-19.62-16.8-30.89-7.47l-2.87-9s-1.16,13.31-13.67,18.3c2.48,1.95-9.07,22.89-9.07,22.89C292.7,417.39,293.72,420.46,295.16,423.34Z"/><path class="cls-7" d="M68.32,431.33l20.65,46s-5.66.78-3.82,3.86c0,0,6,1.53,6.4-1.95,0,0-4.1-23.64-4.57-41.52-.2-7.79-2.16-13.58-2.66-14.39a13.62,13.62,0,0,0,1.39,1.07.13.13,0,0,0,.07.06,32.82,32.82,0,0,0,6.06,2.09,13.25,13.25,0,0,0,3.79.81,47.89,47.89,0,0,0,5.53-.87c-.53,1.3-2.29,3.13-3,4.39a31.24,31.24,0,0,0-1.7,3.43c-.38,1-.53,1.86-.81,2.84-.34,1.24,0,1.75,0,3a6.33,6.33,0,0,0,.34,2.9c.2.54.4-1.22.77-.78s0,2.58.54,2.27c.78-.44,1-.33,1.4-1.13a6.51,6.51,0,0,0,.57-3c0-.85.14-1.7.17-2.56,0-.42-.43-.81-.47-1.23a4.37,4.37,0,0,1,0-1.14,2.37,2.37,0,0,1,.21-.89c.16-.21.18-.62.35-.82a11.45,11.45,0,0,1,1.18-1,6,6,0,0,1,1.68-.87c.3-.12.51-.41.8-.55s.36-.59.64-.81c1.31-1,2.91-1.68,4.21-2.7A25.52,25.52,0,0,1,112,425.4h0l.06,0a6.46,6.46,0,0,1,.6-.27,3.6,3.6,0,0,1,.5-.29s.18,0,.23,0l2.82.12c9.42.37,40.11,1.25,55.79-2.38,0,0,.82,20.09,21.52,22.76l.24,0c-.22.81-7.34,27.38-8.76,27.78s-8.23,2.91-4.34,5.37a6.31,6.31,0,0,0,4.54.92s18.56-29.61,18.56-37.8c0,0,1.43-.62-3.08-4.92a18.26,18.26,0,0,1,.42-11.48c2.25-6.55,9.63-22.95,5.53-50.61,0,0-4.1-18.44-37.7-20.7,0,0-38.73.42-46.52-4.09s-18.24-11.07-18.24-18.44a1.87,1.87,0,0,1,.32-.08l.3-.08a5.84,5.84,0,0,1,.6-.15c4.2-1.12,17.7-5,17.43-8.72,0,0,4.88-4.19,3.42-7.37,0,0-6.58-6.6-12.13-13.29l-.45-.56-.89-1.09c-3.49-4.37-6.25-8.55-6.14-10.67,0,0,2.26-20.7-5.11-28.07,0,0-7.59,10.25-7.8,22.33a86.66,86.66,0,0,0-15.36-.82L75.7,255.11s-18.4,13.33-26.31,56.06c-.19,1-.36,2-.53,3-.41,2.39-.73,4.83-1,7.29C43.23,365.23,60.38,417.94,68.32,431.33Z"/><path class="cls-8" d="M180.43,478.85s3.11,1.25,5.4.63c0,0,18.29-30.12,18.29-38.43,0,0-8.45.34-10.39,3.74v0c-.22.83-7.49,27.62-8.93,28S176.48,476.35,180.43,478.85Z"/><path class="cls-9" d="M47.87,321.42c2.24,3.8,6.45,9.32,14.38,17,0,0-1.31,63.08,23.46,86a.13.13,0,0,0,.07.06c2.56,1.77,8.16,4.75,14.31,2.34,0,0,0,0,0,0s.61.25.54.35l-.08,0a1.58,1.58,0,0,0-.14.17c-.12.17-.13.38-.32.68-.06.09.16.3.09.4-.34.57-1.15,1.24-1.61,2.06-.07.15-.35.25-.43.41-.18.34.11.76-.08,1.13s-.36.39-.48.63-.47.39-.58.64c0,0,0,.11,0,.12,1,.7,1.22.63,2.14,1.22a14.65,14.65,0,0,1,4.42-3.9s0-.73,0-.76c.3-.25,1.05.59,1.36.33l.16-.13a3.79,3.79,0,0,1,.37-.31,28.06,28.06,0,0,1,2.64-2l.07-.05a3.27,3.27,0,0,1,.36-.25A28.54,28.54,0,0,1,112,425.4h0l.06,0a6.46,6.46,0,0,1,.6-.27c.19-.09.14-.22.33-.28h.17s.18,0,.23,0l2.82.12-.49-1.59,0-.05L112.84,414s-14-14.46-16.44-33.92c0,0-4.3-18.84-1.84-33.8,0,0,1.17-12.45,9.62-15a1.87,1.87,0,0,1,.32-.08,1.22,1.22,0,0,1,.3-.08,5.84,5.84,0,0,1,.6-.15c4.2-1.12,17.7-5,17.43-8.72,0,0,4.88-4.19,3.42-7.37q-5.84-.42-11.66-.92c-2.75-.23-5.22,0-7.82-1.07a90.84,90.84,0,0,1-8.8-4.47,48.34,48.34,0,0,0-22.92-5.41,44.34,44.34,0,0,0-22.8,6.21c-1,.59-1.94,1.22-2.86,1.89-1.3.95-2.63,2-4,3.15C45.44,314.32,44.91,316.37,47.87,321.42Z"/><path class="cls-10" d="M96.19,446.08c.13.16.7,0,1,0l.19-.06a2.48,2.48,0,0,0,.37-.17,3.62,3.62,0,0,0,.32-.22l.2-.17a.6.6,0,0,1,.08-.08l.12-.14a3,3,0,0,0,.26-.34,4.36,4.36,0,0,0,.33-.6c.08-.17.14-.34.21-.52s0-.09,0-.14a3.59,3.59,0,0,0,.11-.41s0,0,0,0c0-.18.09-.38.12-.59s.08-.56.11-.88a1.62,1.62,0,0,0,0-.22,19.93,19.93,0,0,0-.28-5,5.4,5.4,0,0,0-.08-.58.29.29,0,0,0,0-.09,1.57,1.57,0,0,1,0-.3.37.37,0,0,1,0-.11l0-.1a16.31,16.31,0,0,1,4.63-4.12l.1-.07.36-.26c2.18-1.51,4.35-3,6.55-4.52l.42-.28c.61-.4,1.22-.8,1.84-1.19h0c.82-.56,1.64-1.08,2.47-1.59s1.64-1,2.46-1.54q4.6-2.79,9.34-5.35c3-1.63,5.91-3.57,9-5.05,0,0-5.06-8.05-13.38-6.15,0,0-4.92,4-10.34,8.86-5,4.41-10.34,9.49-12.75,12.8,0,0,0,0,0,0l-.07.09L100,427l-.09.14c-.12.17-.28.41-.46.71-.06.09-.12.2-.18.3-.35.56-.77,1.28-1.23,2.1-.07.15-.17.3-.25.46-.17.35-.35.71-.54,1.07l-.34.73c-.13.25-.24.5-.35.76a.05.05,0,0,1,0,0C94.72,437.45,93.49,442.62,96.19,446.08Z"/><path class="cls-11" d="M84.31,481.94s8,2.25,8.4-1.23c0,0-3.19-25.95-5.72-43h0l-18.66-6.4L88.21,477S82.47,478.86,84.31,481.94Z"/><path class="cls-12" d="M122.84,322.32c-8.83,4.48-21.93,4-31.35,1.67"/><path class="cls-13" d="M125.73,316.09a5.37,5.37,0,0,0,2.78-2.62c.52-1,1.11-2.65-.28-3.19a11.55,11.55,0,0,0-3.18-.66,13.48,13.48,0,0,0-3.75.22,18.36,18.36,0,0,0-1.93.53c-.55.17-.76.28-.49.93,1,2.37,3,5.25,5.88,5A4.17,4.17,0,0,0,125.73,316.09Z"/><path class="cls-13" d="M88.49,302.07a7.07,7.07,0,0,1,10,3.5,2.84,2.84,0,0,0,.1-.64,5.33,5.33,0,0,0-10.07-2.86Z"/><path class="cls-14" d="M105.32,287.28s-4.31-3.79-8.61-3c0,0-2.87-7.48,4.82-20.9C101.53,263.41,106.65,268.63,105.32,287.28Z"/><path class="cls-15" d="M76.84,283.9s-3.18-21.42-2.16-25.1c0,0-11.06,15.47-9.93,25.1Z"/></svg>