<svg id="Layer_1" data-name="Layer 1" xmlns="http://www.w3.org/2000/svg" xmlns:xlink="http://www.w3.org/1999/xlink" viewBox="0 0 480 500"><defs><style>.cls-1{fill:url(#linear-gradient);}.cls-2{fill:url(#linear-gradient-2);}.cls-3{fill:url(#linear-gradient-3);}.cls-4{fill:url(#linear-gradient-4);}.cls-5{fill:url(#linear-gradient-5);}.cls-6{fill:url(#linear-gradient-6);}.cls-7{fill:url(#linear-gradient-7);}.cls-8{fill:url(#linear-gradient-8);}.cls-9{fill:url(#linear-gradient-9);}.cls-10{fill:url(#linear-gradient-10);}.cls-11{fill:url(#linear-gradient-11);}.cls-12{fill:url(#linear-gradient-12);}.cls-13{fill:url(#linear-gradient-13);}.cls-14{fill:none;stroke:#000;stroke-miterlimit:10;stroke-width:0.5px;}.cls-15{fill:url(#linear-gradient-14);}</style><linearGradient id="linear-gradient" x1="239.86" y1="500" x2="239.86" gradientUnits="userSpaceOnUse"><stop offset="0" stop-color="#21409a"/><stop offset="1" stop-color="#101435"/><stop offset="1" stop-color="#0e1232"/></linearGradient><linearGradient id="linear-gradient-2" x1="239.86" y1="500" x2="239.86" y2="315.09" gradientUnits="userSpaceOnUse"><stop offset="0" stop-color="#273318"/><stop offset="0.68" stop-color="#122816"/></linearGradient><linearGradient id="linear-gradient-3" x1="897.23" y1="500.55" x2="897.23" y2="416.89" gradientTransform="matrix(-0.98, 0.19, 0.19, 0.98, 838.75, -184.82)" gradientUnits="userSpaceOnUse"><stop offset="0.2" stop-color="#bc5927"/><stop offset="0.75" stop-color="#ec7d2a"/></linearGradient><linearGradient id="linear-gradient-4" x1="826.17" y1="475.42" x2="826.17" y2="448.76" gradientTransform="matrix(-0.98, 0.19, 0.19, 0.98, 838.75, -184.82)" gradientUnits="userSpaceOnUse"><stop offset="0" stop-color="#ec7d2a"/><stop offset="0.5" stop-color="#bf5c28"/></linearGradient><linearGradient id="linear-gradient-5" x1="787.16" y1="483.22" x2="787.16" y2="313.79" gradientTransform="matrix(-0.98, 0.19, 0.19, 0.98, 838.75, -184.82)" gradientUnits="userSpaceOnUse"><stop offset="0.16" stop-color="#bc5927"/><stop offset="0.4" stop-color="#ec7d2a"/></linearGradient><linearGradient id="linear-gradient-6" x1="746.57" y1="452.98" x2="746.57" y2="357.23" gradientTransform="matrix(-0.98, 0.19, 0.19, 0.98, 838.75, -184.82)" gradientUnits="userSpaceOnUse"><stop offset="0.22" stop-color="#ddbb7f"/><stop offset="0.43" stop-color="#f9d78e"/></linearGradient><linearGradient id="linear-gradient-7" x1="770.07" y1="525.23" x2="770.07" y2="475.42" gradientTransform="matrix(-0.98, 0.19, 0.19, 0.98, 838.75, -184.82)" gradientUnits="userSpaceOnUse"><stop offset="0" stop-color="#171717"/><stop offset="0.36" stop-color="#231f20"/></linearGradient><linearGradient id="linear-gradient-8" x1="796.63" y1="529.44" x2="796.63" y2="481.4" xlink:href="#linear-gradient-7"/><linearGradient id="linear-gradient-9" x1="831.68" y1="511.12" x2="831.68" y2="470.5" xlink:href="#linear-gradient-7"/><linearGradient id="linear-gradient-10" x1="867.89" y1="513.85" x2="867.89" y2="475.75" xlink:href="#linear-gradient-7"/><linearGradient id="linear-gradient-11" x1="744.04" y1="379.1" x2="744.04" y2="369.8" xlink:href="#linear-gradient-7"/><linearGradient id="linear-gradient-12" x1="715.31" y1="353.6" x2="715.31" y2="322.16" gradientTransform="matrix(-0.98, 0.19, 0.19, 0.98, 838.75, -184.82)" gradientUnits="userSpaceOnUse"><stop offset="0.22" stop-color="#ddbb7f"/><stop offset="0.52" stop-color="#f9d78e"/></linearGradient><linearGradient id="linear-gradient-13" x1="764.11" y1="349.42" x2="764.11" y2="317.69" xlink:href="#linear-gradient-12"/><linearGradient id="linear-gradient-14" x1="39.67" y1="477.14" x2="39.67" y2="437.35" gradientUnits="userSpaceOnUse"><stop offset="0.35" stop-color="#ddbb7f"/><stop offset="0.74" stop-color="#f9d78e"/></linearGradient></defs><title>banner-cel</title><rect class="cls-1" x="-0.27" width="480.27" height="500"/><path class="cls-2" d="M-.27,340.78s203.89-55.6,480.27-3.21V500H-.27Z"/><path class="cls-3" d="M15.27,465.44s.54,12.27,19.05,11.68c0,0,18-.79,30.38-15.66A44.44,44.44,0,0,0,72,449.14l1.66-31.43-9.75-20.93-5.19-9.2s.3,24.16-14.76,49.76h0a105.53,105.53,0,0,1-9.1,13.08S10.93,452,15.27,465.44Z"/><path class="cls-4" d="M114,436.4s10.23.64,9.49-10.52l1.08-18.37-23.94,4.54s6.76,13.52,4.14,15.4c0,0-4.88,3.5-3.69,6.65Z"/><path class="cls-5" d="M59.3,390.51a378.93,378.93,0,0,0,11.86,39.56s-2.23,6-.1,15.07c0,0,3.7,3.86,10.33,1.21,0,0,12.76-.63,13.32-30.07,0,0,3.13-4.36,33.63-7.57,0,0,10.13,29.38,11,31,0,0,9.28-1.16,9-3.49,0,0-2.82-27.33-3.11-28.93h0l17.51-2.73,4.41,25.32s8.13-.95,8.48-5.37c0,0-.27-10.86,11.4-31.89,0,0,1.59-.51,4.74-32.4,0,0,1.76-11.42,7.87-19.72h0a22.73,22.73,0,0,1,1.5-1.87s16.59-22.18,18-27.4c0,0-8.26-11.1-13.53-13.87a62.72,62.72,0,0,0,1.58-36.56s-16.48,9.27-21.08,27.77c0,0-3.08-1.59-21.53,2.51,0,0-15.16-22.49-20.52-24.64,0,0-4.94,12.63.21,36.61,0,0-9,5.88-11.62,9.75a0,0,0,0,0,0,0c.37.47,9.39,11.92,9.7,14.59,0,0-13.5,10.29-20.09,12.13a88.56,88.56,0,0,1-20.16,7.59S51.12,361,59.3,390.51Z"/><path class="cls-6" d="M145,407.32l.29,0,17.51-2.74a100.45,100.45,0,0,0,20.09-32c7.27-19.11,8.33-22.38,11-25.86a52.17,52.17,0,0,1,5.78-6.25,22.73,22.73,0,0,1,1.5-1.87,267.81,267.81,0,0,0,15.3-22.08c.87-1.45,2.76-3.87,2.63-5.63-1.35.08-2.78,1.18-4.22,1.41a18.53,18.53,0,0,1-6.43-.25c-3.21-.6-6.34-1.64-9.59-1.93-6.69-.58-11.53,3.54-15.1,8.79l-6.48,7.67c.35-.41-7.76-7.49-8.33-8-5.13-4.22-10.27-6.07-16.94-5.54-3.16.25-6.37.72-9.55.34s-6.45-1.22-9.79-.64a78.62,78.62,0,0,0,9.7,14.59s8.14,13.12,13.4,20.53C155.83,347.91,167.52,374.52,145,407.32Z"/><path class="cls-7" d="M175.65,425s1.22,41.12,1.93,44.85c0,0,5.84.48,4.45,4.11a12.15,12.15,0,0,1-6.79,1.29l-8-45.34Z"/><path class="cls-8" d="M148.42,436.2l8,41.89s5.67.11,4.89,3.83c0,0-4.38,2.51-8.13,1.54L139.37,439.7Z"/><path class="cls-9" d="M114,436.4l5.64,29.72S126,468,125,470.37c0,0-2,1.57-6.22,1.18L101.06,434.1Z"/><path class="cls-10" d="M79.15,447l3.22,30.56s4,1.29,2.8,2.91c0,0-.85,1.81-5.93,1.12l-8.18-36.49Z"/><path class="cls-11" d="M177.35,326.59s7.6-7,6.86-8.24c-1.09-1.84-4.94-1.39-6.64-1.2a19.63,19.63,0,0,0-4.16.88c-.81.27-3.12,1-3.4,1.9a.91.91,0,0,0,.21.8A23.09,23.09,0,0,0,177.35,326.59Z"/><path class="cls-12" d="M206.7,263.06s-15,18.51-17,26.62L203,295.76S211.7,284.7,206.7,263.06Z"/><path class="cls-13" d="M159.06,291.82S151.82,274.07,146,270c0,0-6.51,5.89.09,32.28Z"/><path class="cls-14" d="M190.64,325.29s-8.1,6.53-13.29,1.3c0,0-3.62,5-13.36,1.64"/><path d="M166.76,309.71a2.17,2.17,0,0,1-.73,1.46,7.15,7.15,0,0,0-5.47-2.44A9,9,0,0,0,158,309c.34-1.39,2.24-2.39,4.49-2.3C164.9,306.78,166.82,308.14,166.76,309.71Z"/><path d="M185.7,308.83a2.4,2.4,0,0,0,.9,1.49,6.87,6.87,0,0,1,5.16-3.15,8.63,8.63,0,0,1,2.59,0c-.49-1.46-2.49-2.34-4.72-2C187.22,305.52,185.46,307.16,185.7,308.83Z"/><path class="cls-15" d="M64.71,461.46c-12.39,14.87-30.39,15.66-30.39,15.66a32.63,32.63,0,0,1-6.55-.4,16.51,16.51,0,0,1-8.83-4.06,16.22,16.22,0,0,1-4.19-12.31c.54-2.88,3.22-4.81,5.78-6.16a12.18,12.18,0,0,0-3.94-2s5.43-.66,7.79.31a39.57,39.57,0,0,1,10.43-2.08,105.53,105.53,0,0,0,9.1-13.08c-.73,8.2,4.17,15.12,4.17,15.12,3.49,4.79,7.42,4.64,7.42,4.64-6.08,4-3.78,5.67-3.78,5.67C54.85,464.67,64.1,461.65,64.71,461.46Z"/></svg>