<svg xmlns="http://www.w3.org/2000/svg" xmlns:xlink="http://www.w3.org/1999/xlink" viewBox="0 0 1024 460"><defs><style>.cls-1{fill:url(#linear-gradient);}.cls-2{fill:url(#linear-gradient-2);}.cls-3{fill:url(#linear-gradient-3);}.cls-4{fill:url(#linear-gradient-4);}.cls-5{fill:url(#linear-gradient-5);}.cls-6{fill:url(#linear-gradient-6);}.cls-7{fill:url(#linear-gradient-7);}.cls-8{fill:url(#linear-gradient-8);}.cls-9{fill:url(#linear-gradient-9);}.cls-10{fill:url(#linear-gradient-10);}.cls-11{fill:url(#linear-gradient-11);}.cls-12{fill:url(#linear-gradient-12);}.cls-13{fill:url(#linear-gradient-13);}.cls-14{fill:none;stroke:#231f20;stroke-miterlimit:10;stroke-width:0.5px;}.cls-15{fill:#231f20;}.cls-16{fill:url(#linear-gradient-14);}.cls-17{fill:url(#linear-gradient-15);}</style><linearGradient id="linear-gradient" x1="512" y1="500" x2="512" gradientUnits="userSpaceOnUse"><stop offset="0" stop-color="#fff"/><stop offset="1" stop-color="#2dc3e7"/></linearGradient><linearGradient id="linear-gradient-2" x1="512" y1="500" x2="512" y2="315.09" gradientUnits="userSpaceOnUse"><stop offset="0" stop-color="#195634"/><stop offset="1" stop-color="#093a21"/></linearGradient><linearGradient id="linear-gradient-3" x1="178.4" y1="104.63" x2="178.4" y2="60.06" gradientUnits="userSpaceOnUse"><stop offset="0.03" stop-color="#cae8ef"/><stop offset="0.44" stop-color="#fff"/></linearGradient><linearGradient id="linear-gradient-4" x1="336.55" y1="88.44" x2="336.55" y2="54.07" xlink:href="#linear-gradient-3"/><linearGradient id="linear-gradient-5" x1="314.89" y1="407.21" x2="314.89" y2="343.83" gradientTransform="matrix(-1, 0, 0, 1, 479.84, 0)" gradientUnits="userSpaceOnUse"><stop offset="0.59" stop-color="#ec7d2a"/><stop offset="0.88" stop-color="#bc5927"/></linearGradient><linearGradient id="linear-gradient-6" x1="310.52" y1="407.51" x2="310.52" y2="359.97" gradientTransform="matrix(-1, 0, 0, 1, 479.84, 0)" gradientUnits="userSpaceOnUse"><stop offset="0" stop-color="#171717"/><stop offset="0.36" stop-color="#231f20"/></linearGradient><linearGradient id="linear-gradient-7" x1="113.36" y1="380.41" x2="113.36" y2="268.06" gradientTransform="matrix(-1, 0, 0, 1, 479.84, 0)" gradientUnits="userSpaceOnUse"><stop offset="0.3" stop-color="#bc5927"/><stop offset="1" stop-color="#e37729"/></linearGradient><linearGradient id="linear-gradient-8" x1="50.85" y1="368.39" x2="50.85" y2="272.99" gradientTransform="matrix(-1, 0, 0, 1, 479.84, 0)" gradientUnits="userSpaceOnUse"><stop offset="0.35" stop-color="#ddbb7f"/><stop offset="0.74" stop-color="#f9d78e"/></linearGradient><linearGradient id="linear-gradient-9" x1="333.17" y1="429.21" x2="333.17" y2="88.11" gradientTransform="matrix(-1, 0, 0, 1, 479.84, 0)" gradientUnits="userSpaceOnUse"><stop offset="0.24" stop-color="#bc5927"/><stop offset="0.47" stop-color="#ec7d2a"/></linearGradient><linearGradient id="linear-gradient-10" x1="236.46" y1="426.36" x2="236.46" y2="368.21" xlink:href="#linear-gradient-6"/><linearGradient id="linear-gradient-11" x1="395.7" y1="358.55" x2="395.7" y2="160.35" gradientTransform="matrix(-1, 0, 0, 1, 479.84, 0)" gradientUnits="userSpaceOnUse"><stop offset="0.22" stop-color="#ddbb7f"/><stop offset="0.43" stop-color="#f9d78e"/></linearGradient><linearGradient id="linear-gradient-12" x1="351.07" y1="375.91" x2="351.07" y2="313.71" xlink:href="#linear-gradient-6"/><linearGradient id="linear-gradient-13" x1="403.9" y1="430.89" x2="403.9" y2="353.57" xlink:href="#linear-gradient-6"/><linearGradient id="linear-gradient-14" x1="373.25" y1="136.56" x2="373.25" y2="100.6" gradientTransform="matrix(-1, 0, 0, 1, 479.84, 0)" gradientUnits="userSpaceOnUse"><stop offset="0.22" stop-color="#ddbb7f"/><stop offset="0.52" stop-color="#f9d78e"/></linearGradient><linearGradient id="linear-gradient-15" x1="418.62" y1="131.47" x2="418.62" y2="93.66" xlink:href="#linear-gradient-14"/></defs><title>banner</title><g id="Layer_2" data-name="Layer 2"><rect class="cls-1" width="1024" height="500"/><path class="cls-2" d="M0,340.78s434.72-55.6,1024-3.21V500H0Z"/><path class="cls-3" d="M43.13,104.63c.16-.81,12.2-3.83,13.43-4.23q9.55-3.11,19.36-5.29a206.47,206.47,0,0,1,73.76-2.56c20.07,2.87,39.91,7.83,60.24,8.58,10,.37,19.72.41,29.71,1,10.87.68,21.76,1.33,32.66,1.21a224.56,224.56,0,0,0,26.31-1.5,63.82,63.82,0,0,0,9.4-1.77c1.18-.35,4.66-2.54,5.66-2.42q-23.28-2.79-46.45-6.58C243,87.1,219,83.37,195.85,74.52c-12.4-4.73-24.57-10.54-37.72-12.94C149.46,60,140,60,131.21,60.11c-18.27.23-37.09,2.71-54.12,9.59C61.43,76,46.64,87.21,43.13,104.63Z"/><path class="cls-4" d="M229.71,69.18h-.06c14.54,2.15,28.62,6.53,43.2,8.33,27.76,3.41,55.53-2.16,83.41-1.13a376,376,0,0,1,44.68,4.32c13.8,2.18,28.68,8.08,42.51,7.74-.46,0-5.34-7.72-5.9-8.36-16-18.27-42.85-26.34-66.49-26-22.1.34-43.21,6.5-64.62,11.19C281.94,70.63,255.14,70.25,229.71,69.18Z"/></g><g id="Layer_4" data-name="Layer 4"><path class="cls-5" d="M162.3,364.73c4.75,6.37.42,36.51.42,36.51-6.56.8-5.4,4.5-5.4,4.5,6,3.31,8.58,0,8.58,0,6.27-14.22,12.46-38.39,15.21-43.92.29-.58,1.07-2.8,1.07-2.8-6.58-8.64,1-15.19,1-15.19l-36,.26c-2.84,10.51,8.39,17.91,12.65,20.13h0A6.62,6.62,0,0,0,162.3,364.73Z"/><path class="cls-6" d="M156.87,405.92c6,3.31,9.27.42,9.27.42,6.27-14.22,14.2-41,15.76-46.37l-22.08,4.25c1,.5,1.57.76,1.57.76,4.75,6.37.63,36.22.63,36.22C155.45,402,156.87,405.92,156.87,405.92Z"/><path class="cls-7" d="M261,317.45s27.78,30.24,88.28,43.22c0,0,24.08,9.87,24.08,19.74,0,0,6.79-13.58,3.08-19.14,4.3,6.45,25.22,7.26,33.64,7.12l1.73-.05c25.74-1,43.65-18.12,54.57-40.43,4.54-9.28,7-20,4.75-30.08-5.7-25.76-29.56-25.3-46.54-11.26L420.28,273s-1.75,20-20.6,27.56a40.35,40.35,0,0,1-12.74,2.7c-30.87,1.85-58,8-121-35.19Z"/><path class="cls-8" d="M399.29,341.53c2.16,4.31-3.4,12.35-3.4,12.35a69.24,69.24,0,0,1,14.19,14.51l1.73-.05c25.74-1,43.65-18.12,54.57-40.43,4.54-9.28,7-20,4.75-30.08-5.7-25.76-29.56-25.3-46.54-11.26L420.28,273s-1.75,20-20.6,27.56C403.41,303.49,386,335,386,335,395.58,332.57,397.12,337.2,399.29,341.53Z"/><path class="cls-9" d="M57.57,353.57l31.1,69.32s-8.53,1.17-5.76,5.82c0,0,9,2.31,9.66-2.94,0,0-6.18-35.62-6.89-62.55-.31-11.73-3.26-20.46-4-21.67a24,24,0,0,0,2.1,1.61.41.41,0,0,0,.1.09A49.79,49.79,0,0,0,93,346.4c2,.54,3.64,1.25,5.71,1.21,2.39,0,6-.94,8.32-1.3-.79,2-3.44,4.71-4.45,6.61a45.15,45.15,0,0,0-2.56,5.17,42.37,42.37,0,0,0-1.22,4.27c-.51,1.88.06,2.64,0,4.59a9.37,9.37,0,0,0,.51,4.37c.3.8.61-1.85,1.16-1.18s0,3.88.81,3.42c1.17-.66,1.56-.5,2.11-1.71a9.58,9.58,0,0,0,.85-4.54c.05-1.29.22-2.57.26-3.85,0-.64-.64-1.23-.7-1.86a6.13,6.13,0,0,1,0-1.71,3.66,3.66,0,0,1,.31-1.35c.25-.32.28-.94.54-1.24a18.82,18.82,0,0,1,1.78-1.55,8.82,8.82,0,0,1,2.53-1.31c.45-.18.76-.62,1.2-.83s.55-.89,1-1.22c2-1.54,4.38-2.52,6.34-4.06a38.72,38.72,0,0,1,5.82-3.7h.06l.08-.06c.3-.15.59-.29.9-.41a6.49,6.49,0,0,1,.75-.43c.09,0,.27,0,.36,0s1.54.09,4.25.19c14.18.56,60.42,1.87,84-3.58,0,0,1.25,30.25,32.43,34.27l.36.06c-.33,1.23-11.06,41.25-13.2,41.85s-12.4,4.39-6.53,8.1c0,0,3.44,2.3,6.83,1.38,0,0,28-44.6,28-56.95,0,0,2.15-.93-4.64-7.41,0,0-2.78-7.41.62-17.29s14.51-34.57,8.33-76.24c0,0-6.17-27.78-56.79-31.17,0,0-58.34.62-70.08-6.17S111.59,214,111.59,202.94a3.51,3.51,0,0,1,.49-.12l.45-.12c.29-.09.58-.16.9-.23,6.32-1.68,26.65-7.52,26.25-13.13,0,0,7.35-6.32,5.15-11.1,0,0-9.91-9.94-18.27-20-.23-.28-.47-.57-.68-.85-.45-.54-.88-1.09-1.33-1.65-5.27-6.58-9.43-12.87-9.25-16.07,0,0,3.39-31.18-7.71-42.28,0,0-11.43,15.43-11.74,33.64,0,0-8.65-1.54-23.14-1.23l-4-41.67S41,108.18,29,172.56c-.27,1.45-.53,2.94-.79,4.45-.61,3.6-1.09,7.27-1.49,11C19.78,254,45.6,333.39,57.57,353.57Z"/><path class="cls-10" d="M226.46,425.15s4.68,1.88,8.13,1c0,0,27.55-45.37,27.55-57.89,0,0-12.73.51-15.65,5.63l0,0c-.33,1.24-11.29,41.6-13.45,42.21S220.5,421.39,226.46,425.15Z"/><path class="cls-11" d="M26.76,188c3.37,5.73,9.71,14,21.66,25.55,0,0-2,95,35.34,129.62a.41.41,0,0,0,.1.09c3.86,2.67,12.3,7.15,21.56,3.53,0,0,0,0,0,0s.92.38.81.52l-.11,0a2.39,2.39,0,0,0-.22.26c-.18.25-.2.58-.48,1-.08.14.24.45.14.61-.52.85-1.74,1.85-2.43,3.1-.1.22-.53.36-.65.61-.26.52.16,1.15-.11,1.71-.18.36-.55.58-.72.94s-.72.59-.88,1c0,0,.06.16,0,.18,1.48,1,1.83.95,3.22,1.83,1.75-2.63,4.09-4.11,6.66-5.87,0,0,0-1.11.09-1.14.45-.38,1.57.89,2,.49l.25-.19a6.19,6.19,0,0,1,.55-.47,44.4,44.4,0,0,1,4-3.08l.11-.07a5.08,5.08,0,0,1,.53-.38,45.18,45.18,0,0,1,5.11-3.21h.06l.08-.06c.3-.15.59-.29.9-.41s.22-.34.5-.42h.25c.09,0,.27,0,.36,0s1.54.09,4.25.19l-.75-2.41,0-.07-4.33-13.9s-21.06-21.77-24.76-51.1c0,0-6.48-28.39-2.78-50.92,0,0,1.77-18.76,14.5-22.53a3.51,3.51,0,0,1,.49-.12,1.43,1.43,0,0,1,.45-.12c.29-.09.58-.16.9-.23,6.32-1.68,26.65-7.52,26.25-13.13,0,0,7.35-6.32,5.15-11.1q-8.79-.63-17.56-1.39c-4.15-.35-7.87-.06-11.78-1.62a135.12,135.12,0,0,1-13.26-6.72,72.72,72.72,0,0,0-34.53-8.16,67,67,0,0,0-34.34,9.35c-1.48.89-2.92,1.85-4.32,2.86-1.95,1.42-3.95,3-5.94,4.74C23.1,177.3,22.31,180.39,26.76,188Z"/><path class="cls-12" d="M99.55,375.79c.19.25,1.06,0,1.54-.07l.3-.08a3.47,3.47,0,0,0,.55-.26c.18-.11.33-.21.49-.33l.29-.26a.68.68,0,0,0,.12-.12,1.8,1.8,0,0,0,.19-.21,5.09,5.09,0,0,0,.39-.5,6.28,6.28,0,0,0,.5-.92,7,7,0,0,0,.31-.78l.07-.21a3.5,3.5,0,0,0,.15-.62s0,0,0-.05c.07-.28.14-.58.19-.89s.12-.85.16-1.33a1.83,1.83,0,0,0,0-.33,30.61,30.61,0,0,0-.42-7.53q0-.45-.12-.87a.33.33,0,0,0,0-.14,2.42,2.42,0,0,1-.06-.45.86.86,0,0,1,0-.17,1.11,1.11,0,0,1,.07-.16c1.75-2.63,4.42-4.43,7-6.2l.14-.1c.19-.14.36-.28.55-.4,3.28-2.27,6.55-4.57,9.86-6.81l.64-.41c.92-.61,1.84-1.22,2.77-1.8h0c1.23-.84,2.46-1.63,3.72-2.4s2.46-1.55,3.71-2.32q6.93-4.2,14.06-8.05c4.58-2.46,8.91-5.39,13.63-7.6,0,0-7.62-12.14-20.16-9.27,0,0-7.41,6.06-15.57,13.34-7.46,6.65-15.57,14.3-19.21,19.29,0,0,0,0,0,0l-.11.13-.08.13-.14.2c-.17.26-.42.63-.69,1.08l-.28.45c-.52.85-1.16,1.92-1.85,3.17-.11.22-.25.45-.37.69-.26.52-.54,1.06-.81,1.61-.18.36-.35.73-.52,1.09s-.37.76-.52,1.15a.07.07,0,0,1,0,.06C97.34,362.79,95.48,370.58,99.55,375.79Z"/><path class="cls-13" d="M81.65,429.81S93.71,433.2,94.31,428c0,0-4.81-39.1-8.62-64.73v0l-28.11-9.64L87.52,422.4S78.88,425.17,81.65,429.81Z"/><path class="cls-14" d="M139.69,189.35c-13.3,6.74-33,6.05-47.23,2.51"/><path class="cls-15" d="M144.06,180a8.06,8.06,0,0,0,4.18-3.94c.79-1.46,1.68-4-.42-4.81a17.37,17.37,0,0,0-4.79-1,20.66,20.66,0,0,0-5.66.31,28.79,28.79,0,0,0-2.89.81c-.85.25-1.16.42-.75,1.4,1.48,3.56,4.49,7.91,8.87,7.53A6.32,6.32,0,0,0,144.06,180Z"/><path class="cls-15" d="M88,158.85a10.65,10.65,0,0,1,15,5.27,5.45,5.45,0,0,0,.16-1A8,8,0,0,0,88,158.85Z"/><path class="cls-16" d="M113.3,136.56s-6.48-5.71-13-4.47c0,0-4.33-11.27,7.25-31.49C107.59,100.6,115.31,108.47,113.3,136.56Z"/><path class="cls-17" d="M70.39,131.47s-4.78-32.26-3.24-37.81c0,0-16.67,23.3-15,37.81Z"/></g></svg>