<svg id="Layer_1" data-name="Layer 1" xmlns="http://www.w3.org/2000/svg" xmlns:xlink="http://www.w3.org/1999/xlink" viewBox="0 0 992 500"><defs><style>.cls-1{fill:url(#linear-gradient);}.cls-2{fill:url(#linear-gradient-2);}.cls-3{fill:url(#linear-gradient-3);}.cls-4{fill:url(#linear-gradient-4);}.cls-5{fill:url(#linear-gradient-5);}.cls-6{fill:url(#linear-gradient-6);}.cls-7{fill:url(#linear-gradient-7);}.cls-8{fill:url(#linear-gradient-8);}.cls-9{fill:url(#linear-gradient-9);}.cls-10{fill:url(#linear-gradient-10);}.cls-11{fill:url(#linear-gradient-11);}.cls-12{fill:url(#linear-gradient-12);}.cls-13{fill:url(#linear-gradient-13);}.cls-14{fill:none;stroke:#231f20;stroke-miterlimit:10;stroke-width:0.5px;}.cls-15{fill:#231f20;}.cls-16{fill:url(#linear-gradient-14);}.cls-17{fill:url(#linear-gradient-15);}</style><linearGradient id="linear-gradient" x1="496" y1="500" x2="496" gradientUnits="userSpaceOnUse"><stop offset="0" stop-color="#fff"/><stop offset="1" stop-color="#2dc3e7"/></linearGradient><linearGradient id="linear-gradient-2" x1="496" y1="500" x2="496" y2="315.09" gradientUnits="userSpaceOnUse"><stop offset="0" stop-color="#195634"/><stop offset="1" stop-color="#093a21"/></linearGradient><linearGradient id="linear-gradient-3" x1="128.91" y1="104.63" x2="128.91" y2="60.06" gradientUnits="userSpaceOnUse"><stop offset="0.03" stop-color="#cae8ef"/><stop offset="0.44" stop-color="#fff"/></linearGradient><linearGradient id="linear-gradient-4" x1="280.54" y1="85.92" x2="280.54" y2="51.56" xlink:href="#linear-gradient-3"/><linearGradient id="linear-gradient-5" x1="1312.29" y1="385.12" x2="1312.29" y2="323.24" gradientTransform="matrix(-1, 0, 0, 1, 1459.84, 0)" gradientUnits="userSpaceOnUse"><stop offset="0.59" stop-color="#ec7d2a"/><stop offset="0.88" stop-color="#bc5927"/></linearGradient><linearGradient id="linear-gradient-6" x1="1308.02" y1="385.41" x2="1308.02" y2="339" gradientTransform="matrix(-1, 0, 0, 1, 1459.84, 0)" gradientUnits="userSpaceOnUse"><stop offset="0" stop-color="#171717"/><stop offset="0.36" stop-color="#231f20"/></linearGradient><linearGradient id="linear-gradient-7" x1="1115.54" y1="358.96" x2="1115.54" y2="249.27" gradientTransform="matrix(-1, 0, 0, 1, 1459.84, 0)" gradientUnits="userSpaceOnUse"><stop offset="0.3" stop-color="#bc5927"/><stop offset="1" stop-color="#e37729"/></linearGradient><linearGradient id="linear-gradient-8" x1="1054.52" y1="347.22" x2="1054.52" y2="254.09" gradientTransform="matrix(-1, 0, 0, 1, 1459.84, 0)" gradientUnits="userSpaceOnUse"><stop offset="0.35" stop-color="#ddbb7f"/><stop offset="0.74" stop-color="#f9d78e"/></linearGradient><linearGradient id="linear-gradient-9" x1="1330.13" y1="406.6" x2="1330.13" y2="73.59" gradientTransform="matrix(-1, 0, 0, 1, 1459.84, 0)" gradientUnits="userSpaceOnUse"><stop offset="0.24" stop-color="#bc5927"/><stop offset="0.47" stop-color="#ec7d2a"/></linearGradient><linearGradient id="linear-gradient-10" x1="1235.72" y1="403.81" x2="1235.72" y2="347.04" xlink:href="#linear-gradient-6"/><linearGradient id="linear-gradient-11" x1="1391.18" y1="337.62" x2="1391.18" y2="144.12" gradientTransform="matrix(-1, 0, 0, 1, 1459.84, 0)" gradientUnits="userSpaceOnUse"><stop offset="0.22" stop-color="#ddbb7f"/><stop offset="0.43" stop-color="#f9d78e"/></linearGradient><linearGradient id="linear-gradient-12" x1="1347.61" y1="354.56" x2="1347.61" y2="293.84" xlink:href="#linear-gradient-6"/><linearGradient id="linear-gradient-13" x1="1399.18" y1="408.23" x2="1399.18" y2="332.75" xlink:href="#linear-gradient-6"/><linearGradient id="linear-gradient-14" x1="1369.27" y1="120.9" x2="1369.27" y2="85.79" gradientTransform="matrix(-1, 0, 0, 1, 1459.84, 0)" gradientUnits="userSpaceOnUse"><stop offset="0.22" stop-color="#ddbb7f"/><stop offset="0.52" stop-color="#f9d78e"/></linearGradient><linearGradient id="linear-gradient-15" x1="1413.55" y1="115.93" x2="1413.55" y2="79.01" xlink:href="#linear-gradient-14"/></defs><title>banner-tablet</title><rect class="cls-1" width="992" height="500"/><path class="cls-2" d="M0,340.78s421.14-55.6,992-3.21V500H0Z"/><path class="cls-3" d="M-6.35,104.63c.16-.81,12.2-3.83,13.43-4.23q9.54-3.11,19.36-5.29a206.45,206.45,0,0,1,73.76-2.56c20.07,2.87,39.91,7.83,60.24,8.58,10,.37,19.72.41,29.71,1,10.87.68,21.76,1.33,32.66,1.21a224.56,224.56,0,0,0,26.31-1.5,63.82,63.82,0,0,0,9.4-1.77c1.18-.35,4.66-2.54,5.66-2.42q-23.28-2.79-46.46-6.58c-24.25-4-48.17-7.73-71.36-16.58C134,69.79,121.79,64,108.65,61.58,100,60,90.54,60,81.73,60.11c-18.27.23-37.09,2.71-54.12,9.59C12,76-2.84,87.21-6.35,104.63Z"/><path class="cls-4" d="M173.69,66.67h-.05c14.53,2.14,28.61,6.53,43.2,8.32,27.75,3.41,55.52-2.16,83.41-1.13a375.81,375.81,0,0,1,44.67,4.33c13.8,2.17,28.69,8.07,42.52,7.73-.47,0-5.35-7.72-5.91-8.36-16-18.27-42.84-26.34-66.49-26-22.1.33-43.21,6.5-64.61,11.18C225.92,68.11,199.12,67.73,173.69,66.67Z"/><path class="cls-5" d="M145,343.64c4.63,6.23.4,35.65.4,35.65-6.4.78-5.26,4.39-5.26,4.39,5.83,3.23,8.37,0,8.37,0,6.12-13.88,12.16-37.48,14.85-42.88.28-.56,1-2.73,1-2.73-6.43-8.43,1-14.83,1-14.83l-35.19.26c-2.77,10.26,8.18,17.48,12.34,19.65h0A6.39,6.39,0,0,0,145,343.64Z"/><path class="cls-6" d="M139.67,383.86c5.83,3.23,9,.41,9,.41,6.12-13.88,13.87-40,15.39-45.27l-21.56,4.15c1,.49,1.54.74,1.54.74,4.63,6.22.61,35.36.61,35.36C138.28,380,139.67,383.86,139.67,383.86Z"/><path class="cls-7" d="M241.32,297.49S268.44,327,327.5,339.68c0,0,23.51,9.64,23.51,19.28,0,0,6.63-13.26,3-18.69,4.19,6.29,24.62,7.09,32.83,7l1.7-.05c25.12-1,42.61-17.69,53.27-39.46,4.43-9.07,6.82-19.52,4.64-29.38-5.57-25.14-28.87-24.7-45.44-11l-4.21-13.25s-1.7,19.56-20.1,26.9a39.81,39.81,0,0,1-12.45,2.64c-30.13,1.81-56.64,7.83-118.12-34.36Z"/><path class="cls-8" d="M376.32,321c2.11,4.21-3.31,12.05-3.31,12.05a67.53,67.53,0,0,1,13.84,14.17l1.7-.05c25.12-1,42.61-17.69,53.27-39.46,4.43-9.07,6.82-19.52,4.64-29.38-5.57-25.14-28.87-24.7-45.44-11l-4.21-13.25s-1.7,19.56-20.1,26.9c3.63,2.87-13.34,33.66-13.34,33.66C372.7,312.25,374.21,316.77,376.32,321Z"/><path class="cls-9" d="M42.72,332.75l30.36,67.67s-8.32,1.15-5.62,5.68c0,0,8.84,2.26,9.43-2.87,0,0-6-34.77-6.73-61.06-.3-11.45-3.17-20-3.92-21.15a23.76,23.76,0,0,0,2.05,1.57s.06.07.1.08a47.69,47.69,0,0,0,8.92,3.08c2,.53,3.55,1.22,5.58,1.18A68.28,68.28,0,0,0,91,325.66c-.77,1.92-3.36,4.6-4.35,6.45a46.44,46.44,0,0,0-2.5,5.05A40.31,40.31,0,0,0,83,341.33c-.51,1.84,0,2.58,0,4.48a9.21,9.21,0,0,0,.49,4.27c.29.78.59-1.8,1.13-1.15s0,3.79.79,3.33c1.15-.64,1.53-.48,2.06-1.66a9.53,9.53,0,0,0,.84-4.44c0-1.25.2-2.5.25-3.76,0-.62-.63-1.2-.69-1.81a6.66,6.66,0,0,1,0-1.67,3.51,3.51,0,0,1,.31-1.32c.24-.31.27-.92.53-1.21a17.81,17.81,0,0,1,1.73-1.51,8.41,8.41,0,0,1,2.47-1.28c.44-.17.74-.6,1.17-.81s.54-.87,1-1.19c1.92-1.5,4.27-2.46,6.19-4a38.09,38.09,0,0,1,5.68-3.6.06.06,0,0,1,0,0l.09-.05a8.82,8.82,0,0,1,.88-.41c.29-.13.44-.33.73-.41.08,0,.27,0,.35,0s1.5.08,4.14.18c13.85.54,59,1.83,82-3.5,0,0,1.22,29.54,31.66,33.47l.35.05c-.32,1.2-10.8,40.27-12.88,40.86s-12.11,4.29-6.38,7.9c0,0,3.36,2.25,6.67,1.35,0,0,27.3-43.54,27.3-55.59,0,0,2.1-.92-4.53-7.24,0,0-2.7-7.24.61-16.87s14.17-33.75,8.13-74.44c0,0-6-27.12-55.44-30.43,0,0-56.95.61-68.41-6S95.46,196.54,95.46,185.7a3.23,3.23,0,0,1,.47-.12l.44-.12.88-.22c6.17-1.64,26-7.34,25.64-12.82,0,0,7.16-6.17,5-10.83,0,0-9.67-9.71-17.84-19.55-.22-.27-.46-.56-.66-.83-.44-.52-.86-1.06-1.3-1.61-5.14-6.42-9.2-12.56-9-15.69,0,0,3.31-30.43-7.53-41.27,0,0-11.16,15.06-11.46,32.84,0,0-8.44-1.51-22.59-1.21L53.58,73.59S26.51,93.19,14.87,156c-.27,1.42-.52,2.87-.78,4.34-.59,3.52-1.06,7.11-1.45,10.72C5.83,235.54,31,313.05,42.72,332.75Z"/><path class="cls-10" d="M207.6,402.63s4.57,1.84,7.93.93c0,0,26.9-44.3,26.9-56.52,0,0-12.43.5-15.27,5.5l0,0c-.33,1.21-11,40.61-13.13,41.21S201.78,399,207.6,402.63Z"/><path class="cls-11" d="M12.64,171.1c3.3,5.6,9.49,13.72,21.15,25,0,0-1.92,92.77,34.5,126.54,0,0,.06.07.1.08,3.77,2.61,12,7,21,3.45,0,0,0,0,0,0s.9.37.8.51l-.11,0c0,.05-.15.15-.22.25-.17.25-.19.57-.46,1-.09.13.23.44.13.59-.51.83-1.69,1.81-2.37,3-.1.22-.52.36-.64.59-.25.51.16,1.13-.11,1.67-.17.36-.53.57-.7.92s-.7.58-.85.95c0,0,.06.16,0,.17,1.44,1,1.79.93,3.14,1.8,1.71-2.57,4-4,6.5-5.74.05,0,0-1.08.08-1.11.44-.38,1.54.87,2,.48l.24-.19c.17-.15.35-.32.54-.46a44.25,44.25,0,0,1,3.89-3l.1-.06a3.87,3.87,0,0,1,.53-.37,42.11,42.11,0,0,1,5-3.13.06.06,0,0,1,0,0l.09-.05a8.82,8.82,0,0,1,.88-.41c.29-.13.21-.32.48-.41h.25c.08,0,.27,0,.35,0s1.5.08,4.14.18l-.72-2.35,0-.06-4.23-13.58S87.63,286,84,257.41c0,0-6.32-27.72-2.7-49.71,0,0,1.72-18.32,14.15-22a3.23,3.23,0,0,1,.47-.12,2.4,2.4,0,0,1,.44-.12l.88-.22c6.17-1.64,26-7.34,25.64-12.82,0,0,7.16-6.17,5-10.83-5.72-.42-11.44-.86-17.15-1.36-4.05-.35-7.68-.06-11.49-1.58a130,130,0,0,1-13-6.57,71,71,0,0,0-33.71-8,65.44,65.44,0,0,0-33.53,9.13q-2.16,1.31-4.21,2.79C13,157.43,11,159,9.07,160.67,9.07,160.67,8.29,163.68,12.64,171.1Z"/><path class="cls-12" d="M83.71,354.45c.18.23,1,.05,1.5-.07l.29-.09A2.65,2.65,0,0,0,86,354a3.88,3.88,0,0,0,.47-.32,2.52,2.52,0,0,0,.29-.26.41.41,0,0,0,.12-.11,1.8,1.8,0,0,0,.19-.21,3.92,3.92,0,0,0,.37-.49,6.34,6.34,0,0,0,.49-.89,7.52,7.52,0,0,0,.3-.76l.07-.21a3.2,3.2,0,0,0,.15-.61s0,0,0-.05c.07-.27.14-.55.19-.86s.11-.83.15-1.3c0-.1,0-.22,0-.32a29.71,29.71,0,0,0-.4-7.36c0-.28-.07-.57-.12-.84a.58.58,0,0,0,0-.14,1.75,1.75,0,0,1-.07-.44.63.63,0,0,1,.08-.32c1.71-2.57,4.32-4.33,6.82-6.05l.13-.1.54-.39c3.2-2.22,6.4-4.47,9.63-6.65l.62-.4c.9-.59,1.79-1.19,2.71-1.76h0c1.2-.81,2.4-1.59,3.64-2.33s2.4-1.53,3.62-2.27q6.76-4.11,13.73-7.86c4.46-2.4,8.69-5.26,13.3-7.43,0,0-7.44-11.85-19.68-9,0,0-7.23,5.92-15.2,13-7.29,6.49-15.2,14-18.75,18.83,0,0,0,0,0,0l-.1.13-.08.12-.14.2c-.17.26-.4.61-.67,1.05-.09.14-.17.29-.28.44-.5.83-1.13,1.88-1.8,3.1-.11.22-.24.44-.36.67l-.79,1.58-.51,1.06c-.19.37-.36.74-.51,1.12a.09.09,0,0,1,0,.06C81.54,341.75,79.73,349.36,83.71,354.45Z"/><path class="cls-13" d="M66.23,407.18s11.77,3.31,12.36-1.81c0,0-4.7-38.16-8.42-63.19h0l-27.44-9.42L72,399.94S63.53,402.65,66.23,407.18Z"/><path class="cls-14" d="M122.89,172.43c-13,6.59-32.25,5.91-46.1,2.45"/><path class="cls-15" d="M127.15,163.26a7.81,7.81,0,0,0,4.09-3.84c.77-1.42,1.63-3.91-.41-4.69a17,17,0,0,0-4.68-1,20,20,0,0,0-5.52.31,27.59,27.59,0,0,0-2.83.79c-.82.25-1.13.41-.73,1.37,1.44,3.48,4.38,7.72,8.66,7.34A5.53,5.53,0,0,0,127.15,163.26Z"/><path class="cls-15" d="M72.38,142.66a10.23,10.23,0,0,1,5.94-1.27A10.34,10.34,0,0,1,87,147.8a5.1,5.1,0,0,0,.16-1,7.84,7.84,0,0,0-14.82-4.19Z"/><path class="cls-16" d="M97.13,120.9s-6.33-5.58-12.66-4.37c0,0-4.22-11,7.08-30.74C91.55,85.79,99.09,93.48,97.13,120.9Z"/><path class="cls-17" d="M55.24,115.93S50.57,84.44,52.08,79c0,0-16.28,22.75-14.62,36.92Z"/></svg>