<svg id="Layer_1" data-name="Layer 1" xmlns="http://www.w3.org/2000/svg" viewBox="0 0 300 150"><defs><style>.cls-1{fill:#563e7d;}.cls-2{fill:#fff;}</style></defs><title>cards</title><rect class="cls-1" x="-0.04" width="300" height="150"/><path class="cls-2" d="M128.83,31h24q9.67,0,14.06,4.74t4.37,15.45v3.91q0,12.67-9.06,15.14A11.19,11.19,0,0,1,170,76.9q2.26,5.25,2.26,13.9,0,14.11-4.22,21.38t-15.24,7.26h-24Zm20.91,33.27a3.12,3.12,0,0,0,3.09-1.7,11.21,11.21,0,0,0,.82-4.79V48.88q0-4.32-3.81-4.32h-3.71V64.23Zm5,33.06v-11a12.46,12.46,0,0,0-1.18-6.08,4.41,4.41,0,0,0-4.17-2.06h-3.3v25.65l1.75.1Q154.78,103.88,154.78,97.29Z"/></svg>