<svg id="Layer_1" data-name="Layer 1" xmlns="http://www.w3.org/2000/svg" viewBox="0 0 300 150"><defs><style>.cls-1{fill:#3abeee;}.cls-2{fill:#fff;}</style></defs><title>cards</title><rect class="cls-1" width="300" height="150"/><path class="cls-2" d="M103,31h23.38q10.6,0,15.14,6.85t4.54,20q0,13.18-4,19.88t-14.42,6.7h-7.21v35H103ZM121.4,68.45a7.49,7.49,0,0,0,4.68-1.18,5.61,5.61,0,0,0,2-3.4,32.79,32.79,0,0,0,.47-6.34c0-3.7-.42-6.38-1.24-8S124.8,47,122.33,47h-2V68.45Z"/><path class="cls-2" d="M155.18,114.29q-5.35-6-5.36-19.26V86.37h17.41v11q0,6.59,4.22,6.59a3.69,3.69,0,0,0,3.3-1.39,8.8,8.8,0,0,0,.93-4.69,21.4,21.4,0,0,0-1-7.16A15.89,15.89,0,0,0,172,86q-1.59-1.91-5.72-5.92l-7.62-7.62q-8.85-8.65-8.86-19.16,0-11.33,5.21-17.25t15.19-5.92q11.94,0,17.2,6.33t5.25,19.83h-18l-.11-6.08a3.88,3.88,0,0,0-1-2.78,3.6,3.6,0,0,0-2.73-1,4,4,0,0,0-3.09,1.13,4.42,4.42,0,0,0-1,3.09q0,4.34,4.94,9L182,69.48a59,59,0,0,1,6,6.65,26.15,26.15,0,0,1,3.82,7.41,31.89,31.89,0,0,1,1.44,10.15q0,13.08-4.79,19.82t-15.81,6.75Q160.53,120.26,155.18,114.29Z"/></svg>