<svg id="Layer_1" data-name="Layer 1" xmlns="http://www.w3.org/2000/svg" viewBox="0 0 300 150"><defs><style>.cls-1{fill:#5aa845;}.cls-2{fill:#fff;}</style></defs><title>cards</title><rect class="cls-1" width="300" height="150"/><path class="cls-2" d="M114.73,117.89a18.11,18.11,0,0,1-7.77-7,20.66,20.66,0,0,1-2.84-11.07V77.72h17.41V98.84a6.45,6.45,0,0,0,1,3.76,4,4,0,0,0,6,.1,6,6,0,0,0,1-3.66V31h17.82V97.29a25.65,25.65,0,0,1-2.73,12.1,19.58,19.58,0,0,1-7.62,8,21.89,21.89,0,0,1-11.18,2.83A25.18,25.18,0,0,1,114.73,117.89Z"/><path class="cls-2" d="M157.68,114.29q-5.35-6-5.35-19.26V86.37h17.4v11q0,6.59,4.23,6.59a3.67,3.67,0,0,0,3.29-1.39,8.8,8.8,0,0,0,.93-4.69,21.4,21.4,0,0,0-1-7.16A15.67,15.67,0,0,0,174.52,86c-1.06-1.27-3-3.24-5.71-5.92l-7.63-7.62q-8.85-8.65-8.85-19.16,0-11.33,5.2-17.25t15.19-5.92q12,0,17.2,6.33t5.25,19.83h-18l-.1-6.08a3.88,3.88,0,0,0-1-2.78,3.6,3.6,0,0,0-2.73-1,4,4,0,0,0-3.09,1.13,4.42,4.42,0,0,0-1,3.09q0,4.34,4.94,9l10.3,9.89a58.24,58.24,0,0,1,6,6.65,26.14,26.14,0,0,1,3.81,7.41,31.89,31.89,0,0,1,1.44,10.15q0,13.08-4.79,19.82t-15.81,6.75Q163,120.26,157.68,114.29Z"/></svg>