<svg id="Layer_1" data-name="Layer 1" xmlns="http://www.w3.org/2000/svg" viewBox="0 0 300 150"><defs><style>.cls-1{fill:#d11e84;}.cls-2{fill:#fff;}</style></defs><title>cards</title><rect class="cls-1" width="300" height="150"/><path class="cls-2" d="M83.84,114q-5.46-6.28-5.46-19.26V71.44q0-9.78,2.11-15.91a16.88,16.88,0,0,1,7.11-9.22q5-3.09,13.85-3.09,9.69,0,15.76,5t6.08,14.12V73.91H105V63.3a10.17,10.17,0,0,0-.83-4.58,3.24,3.24,0,0,0-3.19-1.6c-3,0-4.43,2.1-4.43,6.28V100a8.37,8.37,0,0,0,1.08,4.38,3.85,3.85,0,0,0,6.49.05,7.94,7.94,0,0,0,1-4.53L105,87.2h18.33v13.18q0,9.27-6,14.58t-15.6,5.3Q89.3,120.26,83.84,114Z"/><path class="cls-2" d="M127.92,97.6l.11-6h18l.1,8.85a6.8,6.8,0,0,0,1,4.07,4,4,0,0,0,3.4,1.39c2.41,0,3.61-2,3.61-5.87a11.9,11.9,0,0,0-1.7-6.8A24.28,24.28,0,0,0,147.08,88l-9.58-7.41a25.33,25.33,0,0,1-7.1-7.88c-1.45-2.72-2.17-6.54-2.17-11.49a16,16,0,0,1,3-9.83,18.56,18.56,0,0,1,8.09-6.13,29.27,29.27,0,0,1,11.22-2.06q21.94,0,21.94,21.83V66.5H153.88V63.61A10.82,10.82,0,0,0,153,59a3,3,0,0,0-2.93-1.91,3.61,3.61,0,0,0-2.83,1.08,4.18,4.18,0,0,0-1,2.94,7.34,7.34,0,0,0,3.19,6.38l11.12,8.14a35.06,35.06,0,0,1,9.17,9.63q3.19,5.2,3.19,13.13,0,10.52-6,16.18t-16.69,5.66Q127.92,120.26,127.92,97.6Z"/><path class="cls-2" d="M176.85,97.6l.1-6h18l.1,8.85a6.73,6.73,0,0,0,1,4.07,3.94,3.94,0,0,0,3.4,1.39c2.4,0,3.6-2,3.6-5.87a11.82,11.82,0,0,0-1.7-6.8A24.2,24.2,0,0,0,196,88l-9.58-7.41a25.25,25.25,0,0,1-7.11-7.88c-1.44-2.72-2.16-6.54-2.16-11.49a15.93,15.93,0,0,1,3-9.83,18.53,18.53,0,0,1,8.08-6.13,29.32,29.32,0,0,1,11.23-2.06q21.93,0,21.94,21.83V66.5H202.8V63.61a11,11,0,0,0-.87-4.58A3,3,0,0,0,199,57.12a3.63,3.63,0,0,0-2.83,1.08,4.23,4.23,0,0,0-1,2.94,7.37,7.37,0,0,0,3.19,6.38l11.13,8.14a35.21,35.21,0,0,1,9.17,9.63q3.18,5.2,3.19,13.13,0,10.52-6,16.18t-16.68,5.66Q176.85,120.26,176.85,97.6Z"/></svg>