<svg id="Layer_1" data-name="Layer 1" xmlns="http://www.w3.org/2000/svg" viewBox="0 0 480 500"><defs><style>.cls-1{fill:#fff;}</style></defs><title>conocimientos</title><path class="cls-1" d="M294,125.08V42.46h82.61v82.62Zm17.87-38.36-1.62.26a6.06,6.06,0,0,0-2.48,1,5.9,5.9,0,0,0-2.47,3,5.65,5.65,0,0,0-.23,2.55c.06.43.17.85.25,1.28a5.83,5.83,0,0,0,.77,1.88,3.21,3.21,0,0,0,1.66,1.46c.78.3,1.55.64,2.33,1,1,.41,2,.84,3,1.24a12.06,12.06,0,0,1,2.41,1.34,7.81,7.81,0,0,1,2.78,3.63c.27.68.5,1.38.72,2.08.16.49.29,1,.43,1.48s.32,1.15.49,1.72a11.32,11.32,0,0,0,.4,1.11,13.6,13.6,0,0,0,.86,1.9,4.21,4.21,0,0,0,4.65,1.88,8.32,8.32,0,0,0,3.28-1.44,13.25,13.25,0,0,0,2.34-2.15,8.5,8.5,0,0,0,.84-1.06,7,7,0,0,0,1-3,14,14,0,0,0,0-2.59l-.18-2.15c0-.59-.1-1.18-.11-1.77s0-1.47,0-2.2.11-1.37.15-2c0-.46,0-.92,0-1.38s0-1.11,0-1.65c-.07-.87-.21-1.73-.32-2.59a5.31,5.31,0,0,0-1.17-2.6,4.85,4.85,0,0,0-1.41-1.14,1.93,1.93,0,0,0-.51-.27,19.78,19.78,0,0,0-2.11-.54c-.8-.14-1.61-.2-2.42-.27-.62-.05-1.24-.07-1.86-.08-.85,0-1.7,0-2.54,0s-1.54.08-2.31.11c-.6,0-1.21,0-1.82.06-.95,0-1.9,0-2.86,0ZM350.05,86l.55-.12a4.56,4.56,0,0,0,2-.93,10,10,0,0,0,1.91-2.09c.24-.35.52-.67.73-1a13.84,13.84,0,0,0,1.43-3.07,15,15,0,0,0,.43-1.59,15.28,15.28,0,0,0,.19-1.9,16,16,0,0,0,0-1.7,6.14,6.14,0,0,0-.46-2.15,2.44,2.44,0,0,0-1.33-1.4,3.08,3.08,0,0,0-2.9.24,17.24,17.24,0,0,0-2.1,1.48,42.12,42.12,0,0,0-4.5,4.56,12.79,12.79,0,0,0-2.07,2.83,3.5,3.5,0,0,0-.38,1.7,13,13,0,0,0,.18,1.38,3.32,3.32,0,0,0,.87,1.87,6.94,6.94,0,0,0,2.14,1.33,5.86,5.86,0,0,0,1,.36A6.85,6.85,0,0,0,350.05,86ZM336.82,74l.39,0a2.4,2.4,0,0,0,1.82-.76c.62-.67,1.25-1.32,1.85-2,.85-1,1.68-2,2.48-3s1.55-2,2.29-3a5.72,5.72,0,0,0,1-1.66,3.16,3.16,0,0,0-.24-2.43,2.22,2.22,0,0,0-.89-1.09,4.35,4.35,0,0,0-2.25-.41,11.47,11.47,0,0,0-1.54.15c-.88.14-1.76.29-2.62.51a18,18,0,0,0-1.83.63,9.89,9.89,0,0,0-2.63,1.48,13.26,13.26,0,0,0-3,3.18,4.63,4.63,0,0,0-.65,4,6.43,6.43,0,0,0,1.2,2.21,5.53,5.53,0,0,0,2.33,1.78A7.08,7.08,0,0,0,336.82,74Zm10,30.92c.19,0,.55-.07.9-.15a14.21,14.21,0,0,0,1.58-.44,9.08,9.08,0,0,0,2.24-1.43,12.42,12.42,0,0,0,3.4-4,7.52,7.52,0,0,0,.86-2.77,3.46,3.46,0,0,0-1.1-3,1.62,1.62,0,0,0-.78-.4,3,3,0,0,0-1.44.14c-.92.23-1.82.52-2.72.77-.66.19-1.32.36-2,.53-.46.13-.92.26-1.39.37-.67.16-1.36.25-2,.45a4.47,4.47,0,0,0-2.44,1.9,1.2,1.2,0,0,0-.13.28c-.13.53-.28,1.06-.38,1.6a6,6,0,0,0-.08,1.12,11.52,11.52,0,0,0,.09,1.17,4.22,4.22,0,0,0,.54,1.66,5.18,5.18,0,0,0,2.6,2.08,2.86,2.86,0,0,0,.87.17C345.82,104.89,346.23,104.87,346.8,104.87Zm-28-24.25c.2,0,.45,0,.7-.1a3.56,3.56,0,0,0,1.73-1.15,10.77,10.77,0,0,0,2.59-5.05,17.7,17.7,0,0,0,.32-3.63,19.27,19.27,0,0,0-.21-2.4,10.66,10.66,0,0,0-.4-1.52,2.67,2.67,0,0,0-.86-1.3,2.86,2.86,0,0,0-2.32-.58,5.4,5.4,0,0,0-2.35.86,7.18,7.18,0,0,0-1.9,1.57A8.94,8.94,0,0,0,314.56,70a20.59,20.59,0,0,0-.69,2.28,10.1,10.1,0,0,0-.17,1.9,8.33,8.33,0,0,0,.12,1.66,7,7,0,0,0,1.39,2.82,5.14,5.14,0,0,0,3.62,2ZM346.92,58.8a2.57,2.57,0,0,0,.25.5,4.55,4.55,0,0,0,.64.6,1,1,0,0,0,1.36,0c.59-.51,1.15-1,1.71-1.59.4-.4.79-.8,1.16-1.24s.16-.44-.17-.54a2.93,2.93,0,0,0-1.47-.08,7.17,7.17,0,0,0-2.85,1.18A1.44,1.44,0,0,0,346.92,58.8Zm13.8,6.94a5.23,5.23,0,0,0,0-.56c-.06-.54-.36-.69-.84-.42l-.06,0a10.62,10.62,0,0,0-2.24,2.25.91.91,0,0,0,0,1.17l1,1.34c.28.37.39.39.72.05a4.84,4.84,0,0,0,.89-1.33A6.08,6.08,0,0,0,360.72,65.74Zm-.61,24c0-.35-.2-.52-.43-.44a7.41,7.41,0,0,0-.92.38,6,6,0,0,0-.63.39c-.56.41-1.14.8-1.69,1.23-.31.25-.29.51,0,.82s.34.36.49.56a1.75,1.75,0,0,1,.52,1.1c0,.19.15.25.32.15a1.8,1.8,0,0,0,.37-.3c.35-.47.71-.94,1-1.44a9.36,9.36,0,0,0,.68-1.43A7.13,7.13,0,0,0,360.11,89.77ZM322.57,62.05c.57.22,1.09.4,1.6.62a3.38,3.38,0,0,1,.64.45c.15.11.31.24.46.05a5.45,5.45,0,0,0,.74-1,14.68,14.68,0,0,0,.64-1.83.72.72,0,0,0-.15-.71.39.39,0,0,0-.35-.07,9.19,9.19,0,0,0-.9.43c-.23.12-.45.27-.68.4a6.65,6.65,0,0,0-1.84,1.4A2.71,2.71,0,0,0,322.57,62.05Z"/><path d="M311.83,86.72h2c1,0,1.91,0,2.86,0,.61,0,1.22,0,1.82-.06.77,0,1.54-.09,2.31-.11s1.69,0,2.54,0c.62,0,1.24,0,1.86.08.81.07,1.62.13,2.42.27a19.78,19.78,0,0,1,2.11.54,1.93,1.93,0,0,1,.51.27,4.85,4.85,0,0,1,1.41,1.14,5.31,5.31,0,0,1,1.17,2.6c.11.86.25,1.72.32,2.59.05.54,0,1.1,0,1.65s0,.92,0,1.38c0,.68-.12,1.36-.15,2s0,1.47,0,2.2.07,1.18.11,1.77l.18,2.15a14,14,0,0,1,0,2.59,7,7,0,0,1-1,3,8.5,8.5,0,0,1-.84,1.06,13.25,13.25,0,0,1-2.34,2.15,8.32,8.32,0,0,1-3.28,1.44,4.21,4.21,0,0,1-4.65-1.88,13.6,13.6,0,0,1-.86-1.9,11.32,11.32,0,0,1-.4-1.11c-.17-.57-.33-1.15-.49-1.72s-.27-1-.43-1.48c-.22-.7-.45-1.4-.72-2.08a7.81,7.81,0,0,0-2.78-3.63,12.06,12.06,0,0,0-2.41-1.34c-1-.4-2-.83-3-1.24-.78-.33-1.55-.67-2.33-1a3.21,3.21,0,0,1-1.66-1.46,5.83,5.83,0,0,1-.77-1.88c-.08-.43-.19-.85-.25-1.28a5.65,5.65,0,0,1,.23-2.55,5.9,5.9,0,0,1,2.47-3,6.06,6.06,0,0,1,2.48-1Z"/><path d="M350.05,86a6.85,6.85,0,0,1-2.35-.24,5.86,5.86,0,0,1-1-.36,6.94,6.94,0,0,1-2.14-1.33,3.32,3.32,0,0,1-.87-1.87,13,13,0,0,1-.18-1.38,3.5,3.5,0,0,1,.38-1.7A12.79,12.79,0,0,1,346,76.27a42.12,42.12,0,0,1,4.5-4.56,17.24,17.24,0,0,1,2.1-1.48,3.08,3.08,0,0,1,2.9-.24,2.44,2.44,0,0,1,1.33,1.4,6.14,6.14,0,0,1,.46,2.15,16,16,0,0,1,0,1.7,15.28,15.28,0,0,1-.19,1.9,15,15,0,0,1-.43,1.59,13.84,13.84,0,0,1-1.43,3.07c-.21.37-.49.69-.73,1a10,10,0,0,1-1.91,2.09,4.56,4.56,0,0,1-2,.93Z"/><path d="M336.82,74a7.08,7.08,0,0,1-2.31-.37,5.53,5.53,0,0,1-2.33-1.78,6.43,6.43,0,0,1-1.2-2.21,4.63,4.63,0,0,1,.65-4,13.26,13.26,0,0,1,3-3.18,9.89,9.89,0,0,1,2.63-1.48,18,18,0,0,1,1.83-.63c.86-.22,1.74-.37,2.62-.51a11.47,11.47,0,0,1,1.54-.15,4.35,4.35,0,0,1,2.25.41,2.22,2.22,0,0,1,.89,1.09,3.16,3.16,0,0,1,.24,2.43,5.72,5.72,0,0,1-1,1.66c-.74,1-1.5,2-2.29,3s-1.63,2-2.48,3c-.6.69-1.23,1.34-1.85,2a2.4,2.4,0,0,1-1.82.76Z"/><path d="M346.8,104.87c-.57,0-1,0-1.38,0a2.86,2.86,0,0,1-.87-.17,5.18,5.18,0,0,1-2.6-2.08,4.22,4.22,0,0,1-.54-1.66,11.52,11.52,0,0,1-.09-1.17,6,6,0,0,1,.08-1.12c.1-.54.25-1.07.38-1.6a1.2,1.2,0,0,1,.13-.28,4.47,4.47,0,0,1,2.44-1.9c.66-.2,1.35-.29,2-.45.47-.11.93-.24,1.39-.37.66-.17,1.32-.34,2-.53.9-.25,1.8-.54,2.72-.77a3,3,0,0,1,1.44-.14,1.62,1.62,0,0,1,.78.4,3.46,3.46,0,0,1,1.1,3,7.52,7.52,0,0,1-.86,2.77,12.42,12.42,0,0,1-3.4,4,9.08,9.08,0,0,1-2.24,1.43,14.21,14.21,0,0,1-1.58.44C347.35,104.8,347,104.84,346.8,104.87Z"/><path d="M318.83,80.62a5.14,5.14,0,0,1-3.62-2,7,7,0,0,1-1.39-2.82,8.33,8.33,0,0,1-.12-1.66,10.1,10.1,0,0,1,.17-1.9,20.59,20.59,0,0,1,.69-2.28,8.94,8.94,0,0,1,1.57-2.66,7.18,7.18,0,0,1,1.9-1.57,5.4,5.4,0,0,1,2.35-.86,2.86,2.86,0,0,1,2.32.58,2.67,2.67,0,0,1,.86,1.3,10.66,10.66,0,0,1,.4,1.52,19.27,19.27,0,0,1,.21,2.4,17.7,17.7,0,0,1-.32,3.63,10.77,10.77,0,0,1-2.59,5.05,3.56,3.56,0,0,1-1.73,1.15C319.28,80.58,319,80.59,318.83,80.62Z"/><path d="M346.92,58.8a1.44,1.44,0,0,1,.63-1.18,7.17,7.17,0,0,1,2.85-1.18,2.93,2.93,0,0,1,1.47.08c.33.1.45.2.17.54s-.76.84-1.16,1.24c-.56.54-1.12,1.08-1.71,1.59a1,1,0,0,1-1.36,0,4.55,4.55,0,0,1-.64-.6A2.57,2.57,0,0,1,346.92,58.8Z"/><path d="M360.72,65.74a6.08,6.08,0,0,1-.53,2.55,4.84,4.84,0,0,1-.89,1.33c-.33.34-.44.32-.72-.05l-1-1.34a.91.91,0,0,1,0-1.17,10.62,10.62,0,0,1,2.24-2.25l.06,0c.48-.27.78-.12.84.42A5.23,5.23,0,0,1,360.72,65.74Z"/><path d="M360.11,89.77a7.13,7.13,0,0,1-.29,1,9.36,9.36,0,0,1-.68,1.43c-.3.5-.66,1-1,1.44a1.8,1.8,0,0,1-.37.3c-.17.1-.33,0-.32-.15a1.75,1.75,0,0,0-.52-1.1c-.15-.2-.32-.37-.49-.56s-.3-.57,0-.82c.55-.43,1.13-.82,1.69-1.23a6,6,0,0,1,.63-.39,7.41,7.41,0,0,1,.92-.38C359.91,89.25,360.12,89.42,360.11,89.77Z"/><path d="M322.57,62.05a2.71,2.71,0,0,1,.16-.27,6.65,6.65,0,0,1,1.84-1.4c.23-.13.45-.28.68-.4a9.19,9.19,0,0,1,.9-.43.39.39,0,0,1,.35.07.72.72,0,0,1,.15.71,14.68,14.68,0,0,1-.64,1.83,5.45,5.45,0,0,1-.74,1c-.15.19-.31.06-.46-.05a3.38,3.38,0,0,0-.64-.45C323.66,62.45,323.14,62.27,322.57,62.05Z"/><path class="cls-1" d="M352.26,252.59V170h82.62v82.62Zm17.82-38.36-1.62.26a6.43,6.43,0,0,0-5,4,5.64,5.64,0,0,0-.22,2.55c.06.43.17.85.25,1.28a5.83,5.83,0,0,0,.77,1.88,3.23,3.23,0,0,0,1.65,1.46c.79.3,1.56.64,2.34,1l3,1.25a11.81,11.81,0,0,1,2.41,1.33,7.86,7.86,0,0,1,2.78,3.63c.27.68.5,1.38.72,2.08.16.49.29,1,.43,1.48s.32,1.15.49,1.72a11.32,11.32,0,0,0,.4,1.11,13.11,13.11,0,0,0,.86,1.91A4.21,4.21,0,0,0,384,243a8.22,8.22,0,0,0,3.27-1.44,13,13,0,0,0,2.35-2.15,8.5,8.5,0,0,0,.84-1.06,7,7,0,0,0,1-3,15.05,15.05,0,0,0,0-2.6l-.18-2.15c0-.59-.1-1.18-.11-1.77s0-1.47,0-2.2.11-1.36.15-2.05c0-.46,0-.92,0-1.38s0-1.11,0-1.65c-.08-.87-.21-1.72-.32-2.59a5.31,5.31,0,0,0-1.17-2.6,4.85,4.85,0,0,0-1.41-1.14,2.28,2.28,0,0,0-.51-.27,19.78,19.78,0,0,0-2.11-.54c-.8-.14-1.61-.2-2.42-.27-.62,0-1.24-.07-1.86-.08-.85,0-1.7,0-2.54,0s-1.54.08-2.31.11c-.6,0-1.21.05-1.82.06-.95,0-1.9,0-2.86,0Zm38.23-.73.51-.12a4.64,4.64,0,0,0,2.07-1,9.91,9.91,0,0,0,1.85-2c.24-.35.52-.68.74-1a13.55,13.55,0,0,0,1.43-3.09,15.12,15.12,0,0,0,.43-1.6,14.94,14.94,0,0,0,.19-1.89,15.14,15.14,0,0,0,0-1.65,6.69,6.69,0,0,0-.47-2.17,2.48,2.48,0,0,0-1.34-1.43,3.06,3.06,0,0,0-2.9.26,19.26,19.26,0,0,0-2.1,1.47,43.64,43.64,0,0,0-4.48,4.54,13.28,13.28,0,0,0-2.08,2.85,3.45,3.45,0,0,0-.39,1.62,8.52,8.52,0,0,0,.19,1.41,3.31,3.31,0,0,0,1.37,2.34,9.33,9.33,0,0,0,3,1.35A6.68,6.68,0,0,0,408.31,213.5Zm-13.24-12,.39,0a2.4,2.4,0,0,0,1.82-.76c.62-.67,1.25-1.32,1.85-2,.84-1,1.67-2,2.48-3s1.55-2,2.29-3a5.72,5.72,0,0,0,1-1.66,3.16,3.16,0,0,0-.24-2.43,2.22,2.22,0,0,0-.89-1.09,4.35,4.35,0,0,0-2.25-.41,11.47,11.47,0,0,0-1.54.15c-.88.14-1.76.29-2.62.51a18,18,0,0,0-1.83.63,9.89,9.89,0,0,0-2.63,1.48,13.26,13.26,0,0,0-3,3.18,4.63,4.63,0,0,0-.65,4,6.57,6.57,0,0,0,1.19,2.21,5.62,5.62,0,0,0,2.34,1.78A7.08,7.08,0,0,0,395.07,201.46Zm10,30.92c.19,0,.55-.07.9-.15a13.47,13.47,0,0,0,1.57-.44,9,9,0,0,0,2.25-1.43,12.54,12.54,0,0,0,3.4-4.05,7.52,7.52,0,0,0,.86-2.77,3.48,3.48,0,0,0-1.1-3,1.62,1.62,0,0,0-.78-.4,3,3,0,0,0-1.44.14c-.92.23-1.82.52-2.72.77-.66.19-1.32.36-2,.53-.46.13-.93.26-1.39.37-.67.16-1.36.25-2,.45a4.47,4.47,0,0,0-2.44,1.9,1.2,1.2,0,0,0-.13.28c-.13.53-.29,1.06-.38,1.6a6,6,0,0,0-.08,1.12,11.52,11.52,0,0,0,.09,1.17,4.22,4.22,0,0,0,.54,1.66,5.18,5.18,0,0,0,2.6,2.08,2.86,2.86,0,0,0,.87.17C404.07,232.4,404.47,232.38,405.05,232.38Zm-28-24.25c.2,0,.45,0,.7-.09a3.65,3.65,0,0,0,1.73-1.16,10.77,10.77,0,0,0,2.59-5,17.7,17.7,0,0,0,.32-3.63,19.27,19.27,0,0,0-.21-2.4,10.66,10.66,0,0,0-.4-1.52A2.67,2.67,0,0,0,381,193a2.86,2.86,0,0,0-2.32-.58,5.44,5.44,0,0,0-2.36.86,7.29,7.29,0,0,0-1.89,1.57,8.94,8.94,0,0,0-1.57,2.66,21.26,21.26,0,0,0-.69,2.28,10.1,10.1,0,0,0-.17,1.9,7.65,7.65,0,0,0,.12,1.66,7,7,0,0,0,1.39,2.82,5,5,0,0,0,1.55,1.34A5.12,5.12,0,0,0,377.08,208.13Zm28.09-21.82a2.57,2.57,0,0,0,.25.5,4.55,4.55,0,0,0,.64.6.94.94,0,0,0,1.36,0c.59-.51,1.15-1.05,1.71-1.59.4-.39.79-.8,1.16-1.24s.16-.44-.17-.54a2.93,2.93,0,0,0-1.47-.08,7.17,7.17,0,0,0-2.85,1.18A1.44,1.44,0,0,0,405.17,186.31Zm13.8,6.94c0-.19,0-.37,0-.56-.06-.54-.36-.69-.84-.42l-.06,0a10.62,10.62,0,0,0-2.24,2.25.92.92,0,0,0,0,1.18l1,1.33c.28.37.39.39.72,0a4.6,4.6,0,0,0,.88-1.33A5.94,5.94,0,0,0,419,193.25Zm-.61,24c0-.35-.2-.52-.43-.44a7.41,7.41,0,0,0-.92.38,4.75,4.75,0,0,0-.63.4c-.56.4-1.14.79-1.69,1.22-.31.25-.29.51,0,.82s.34.37.49.56a1.69,1.69,0,0,1,.51,1.1c0,.19.16.25.33.15a1.8,1.8,0,0,0,.37-.3c.35-.47.71-.94,1-1.44a9.36,9.36,0,0,0,.68-1.43A7.13,7.13,0,0,0,418.36,217.28Zm-37.54-27.72c.56.22,1.09.4,1.6.62a3.9,3.9,0,0,1,.64.45c.15.11.31.24.46.05a5.13,5.13,0,0,0,.74-1,14.68,14.68,0,0,0,.64-1.83.72.72,0,0,0-.15-.71.43.43,0,0,0-.35-.07,9.19,9.19,0,0,0-.9.43c-.23.12-.45.27-.68.4A6.49,6.49,0,0,0,381,189.3,1.83,1.83,0,0,0,380.82,189.56Z"/><path d="M370.08,214.23h2c1,0,1.91,0,2.86,0,.61,0,1.22,0,1.82-.06.77,0,1.54-.09,2.31-.11s1.69,0,2.54,0c.62,0,1.24,0,1.86.08.81.07,1.62.13,2.42.27a19.78,19.78,0,0,1,2.11.54,2.28,2.28,0,0,1,.51.27,4.85,4.85,0,0,1,1.41,1.14,5.31,5.31,0,0,1,1.17,2.6c.11.87.24,1.72.32,2.59.05.54,0,1.1,0,1.65s0,.92,0,1.38c0,.69-.12,1.36-.15,2.05s0,1.47,0,2.2.07,1.18.11,1.77l.18,2.15a15.05,15.05,0,0,1,0,2.6,7,7,0,0,1-1,3,8.5,8.5,0,0,1-.84,1.06,13,13,0,0,1-2.35,2.15A8.22,8.22,0,0,1,384,243a4.21,4.21,0,0,1-4.65-1.87,13.11,13.11,0,0,1-.86-1.91,11.32,11.32,0,0,1-.4-1.11c-.17-.57-.33-1.15-.49-1.72s-.27-1-.43-1.48c-.22-.7-.45-1.4-.72-2.08a7.86,7.86,0,0,0-2.78-3.63,11.81,11.81,0,0,0-2.41-1.33l-3-1.25c-.78-.33-1.55-.67-2.34-1a3.23,3.23,0,0,1-1.65-1.46,5.83,5.83,0,0,1-.77-1.88c-.08-.43-.19-.85-.25-1.28a5.64,5.64,0,0,1,.22-2.55,6.43,6.43,0,0,1,5-4Z"/><path d="M408.31,213.5a6.68,6.68,0,0,1-2-.17,9.33,9.33,0,0,1-3-1.35,3.31,3.31,0,0,1-1.37-2.34,8.52,8.52,0,0,1-.19-1.41,3.45,3.45,0,0,1,.39-1.62,13.28,13.28,0,0,1,2.08-2.85,43.64,43.64,0,0,1,4.48-4.54,19.26,19.26,0,0,1,2.1-1.47,3.06,3.06,0,0,1,2.9-.26,2.48,2.48,0,0,1,1.34,1.43,6.69,6.69,0,0,1,.47,2.17,15.14,15.14,0,0,1,0,1.65,14.94,14.94,0,0,1-.19,1.89,15.12,15.12,0,0,1-.43,1.6,13.55,13.55,0,0,1-1.43,3.09c-.22.36-.5.69-.74,1a9.91,9.91,0,0,1-1.85,2,4.64,4.64,0,0,1-2.07,1Z"/><path d="M395.07,201.46a7.08,7.08,0,0,1-2.31-.37,5.62,5.62,0,0,1-2.34-1.78,6.57,6.57,0,0,1-1.19-2.21,4.63,4.63,0,0,1,.65-4,13.26,13.26,0,0,1,3-3.18,9.89,9.89,0,0,1,2.63-1.48,18,18,0,0,1,1.83-.63c.86-.22,1.74-.37,2.62-.51a11.47,11.47,0,0,1,1.54-.15,4.35,4.35,0,0,1,2.25.41,2.22,2.22,0,0,1,.89,1.09,3.16,3.16,0,0,1,.24,2.43,5.72,5.72,0,0,1-1,1.66c-.74,1-1.5,2-2.29,3s-1.64,2-2.48,3c-.6.69-1.23,1.34-1.85,2a2.4,2.4,0,0,1-1.82.76Z"/><path d="M405.05,232.38c-.58,0-1,0-1.38,0a2.86,2.86,0,0,1-.87-.17,5.18,5.18,0,0,1-2.6-2.08,4.22,4.22,0,0,1-.54-1.66,11.52,11.52,0,0,1-.09-1.17,6,6,0,0,1,.08-1.12c.09-.54.25-1.07.38-1.6a1.2,1.2,0,0,1,.13-.28,4.47,4.47,0,0,1,2.44-1.9c.66-.2,1.35-.29,2-.45.46-.11.93-.24,1.39-.37.66-.17,1.32-.34,2-.53.9-.25,1.8-.54,2.72-.77a3,3,0,0,1,1.44-.14,1.62,1.62,0,0,1,.78.4,3.48,3.48,0,0,1,1.1,3,7.52,7.52,0,0,1-.86,2.77,12.54,12.54,0,0,1-3.4,4.05,9,9,0,0,1-2.25,1.43,13.47,13.47,0,0,1-1.57.44C405.6,232.31,405.24,232.35,405.05,232.38Z"/><path d="M377.08,208.13a5.12,5.12,0,0,1-2.07-.64,5,5,0,0,1-1.55-1.34,7,7,0,0,1-1.39-2.82,7.65,7.65,0,0,1-.12-1.66,10.1,10.1,0,0,1,.17-1.9,21.26,21.26,0,0,1,.69-2.28,8.94,8.94,0,0,1,1.57-2.66,7.29,7.29,0,0,1,1.89-1.57,5.44,5.44,0,0,1,2.36-.86A2.86,2.86,0,0,1,381,193a2.67,2.67,0,0,1,.86,1.3,10.66,10.66,0,0,1,.4,1.52,19.27,19.27,0,0,1,.21,2.4,17.7,17.7,0,0,1-.32,3.63,10.77,10.77,0,0,1-2.59,5,3.65,3.65,0,0,1-1.73,1.16C377.53,208.09,377.28,208.1,377.08,208.13Z"/><path d="M405.17,186.31a1.44,1.44,0,0,1,.63-1.18,7.17,7.17,0,0,1,2.85-1.18,2.93,2.93,0,0,1,1.47.08c.33.1.45.2.17.54s-.76.85-1.16,1.24c-.56.54-1.12,1.08-1.71,1.59a.94.94,0,0,1-1.36,0,4.55,4.55,0,0,1-.64-.6A2.57,2.57,0,0,1,405.17,186.31Z"/><path d="M419,193.25a5.94,5.94,0,0,1-.54,2.55,4.6,4.6,0,0,1-.88,1.33c-.33.34-.44.32-.72,0l-1-1.33a.92.92,0,0,1,0-1.18,10.62,10.62,0,0,1,2.24-2.25l.06,0c.48-.27.78-.12.84.42C419,192.88,419,193.06,419,193.25Z"/><path d="M418.36,217.28a7.13,7.13,0,0,1-.29,1,9.36,9.36,0,0,1-.68,1.43c-.3.5-.66,1-1,1.44a1.8,1.8,0,0,1-.37.3c-.17.1-.33,0-.33-.15a1.69,1.69,0,0,0-.51-1.1c-.15-.19-.32-.37-.49-.56s-.3-.57,0-.82c.55-.43,1.13-.82,1.69-1.22a4.75,4.75,0,0,1,.63-.4,7.41,7.41,0,0,1,.92-.38C418.16,216.76,418.37,216.93,418.36,217.28Z"/><path d="M380.82,189.56a1.83,1.83,0,0,1,.16-.26,6.49,6.49,0,0,1,1.84-1.41c.23-.13.45-.28.68-.4a9.19,9.19,0,0,1,.9-.43.43.43,0,0,1,.35.07.72.72,0,0,1,.15.71,14.68,14.68,0,0,1-.64,1.83,5.13,5.13,0,0,1-.74,1c-.15.19-.31.06-.46-.05a3.9,3.9,0,0,0-.64-.45C381.91,190,381.38,189.78,380.82,189.56Z"/><path class="cls-1" d="M285.45,368V285.41h82.61V368Zm17.87-38.36-1.62.26a6.36,6.36,0,0,0-2.48,1,6,6,0,0,0-2.48,3.05,5.66,5.66,0,0,0-.22,2.55c.06.43.17.85.25,1.28a5.67,5.67,0,0,0,.77,1.89,3.27,3.27,0,0,0,1.65,1.46c.79.3,1.56.64,2.34,1l3,1.25a12.1,12.1,0,0,1,2.42,1.33,7.89,7.89,0,0,1,2.78,3.64c.27.68.49,1.38.72,2.07.16.49.29,1,.43,1.49s.32,1.14.49,1.71a9.35,9.35,0,0,0,.4,1.12,13,13,0,0,0,.86,1.9,4.22,4.22,0,0,0,4.65,1.88,8.24,8.24,0,0,0,3.27-1.45,12.57,12.57,0,0,0,2.35-2.14,8.59,8.59,0,0,0,.84-1.07,6.91,6.91,0,0,0,1-3,14.94,14.94,0,0,0,0-2.59c-.06-.72-.13-1.44-.18-2.15s-.1-1.18-.11-1.78,0-1.46,0-2.2.11-1.36.15-2c0-.46,0-.92,0-1.39s0-1.1,0-1.65c-.08-.86-.21-1.72-.32-2.58a5.23,5.23,0,0,0-1.17-2.6,5.05,5.05,0,0,0-1.41-1.15,2.15,2.15,0,0,0-.52-.27c-.69-.19-1.39-.41-2.1-.54s-1.61-.2-2.42-.26q-.93-.07-1.86-.09c-.85,0-1.7,0-2.54,0s-1.54.08-2.31.12c-.6,0-1.21.05-1.82.05h-4.84Zm38.21-.73.56-.12a4.58,4.58,0,0,0,2-.94,10,10,0,0,0,1.91-2.08c.24-.35.52-.68.73-1a14.05,14.05,0,0,0,1.43-3.07,15.12,15.12,0,0,0,.43-1.6,14.94,14.94,0,0,0,.19-1.89,16.26,16.26,0,0,0,0-1.71,6.51,6.51,0,0,0-.46-2.14,2.45,2.45,0,0,0-1.34-1.41,3.06,3.06,0,0,0-2.9.25,20.27,20.27,0,0,0-2.1,1.47,43.94,43.94,0,0,0-4.49,4.56,13.08,13.08,0,0,0-2.07,2.84,3.46,3.46,0,0,0-.38,1.69,12.88,12.88,0,0,0,.18,1.39,3.23,3.23,0,0,0,.87,1.86,6.59,6.59,0,0,0,2.14,1.33,7.28,7.28,0,0,0,1,.37A6.9,6.9,0,0,0,341.53,328.93Zm-13.22-12,.39,0a2.41,2.41,0,0,0,1.82-.77c.62-.67,1.25-1.32,1.85-2,.84-1,1.67-2,2.48-3s1.55-2,2.29-3a5.85,5.85,0,0,0,1-1.66,3.19,3.19,0,0,0-.24-2.44A2.26,2.26,0,0,0,337,303a4.35,4.35,0,0,0-2.25-.41,13.35,13.35,0,0,0-1.54.14c-.88.15-1.76.3-2.62.51-.62.16-1.22.41-1.83.63a10.2,10.2,0,0,0-2.63,1.49,13.21,13.21,0,0,0-3,3.17,4.69,4.69,0,0,0-.66,4,6.88,6.88,0,0,0,1.2,2.21,5.6,5.6,0,0,0,2.34,1.77A6.83,6.83,0,0,0,328.31,316.9Zm10,30.91a8.29,8.29,0,0,0,.9-.15,10.43,10.43,0,0,0,1.57-.44,8.85,8.85,0,0,0,2.25-1.43,12.54,12.54,0,0,0,3.4-4.05,7.47,7.47,0,0,0,.86-2.76,3.46,3.46,0,0,0-1.1-3,1.64,1.64,0,0,0-.78-.41,3.1,3.1,0,0,0-1.45.15c-.91.22-1.81.51-2.71.77l-2,.53c-.46.12-.93.26-1.4.36-.67.16-1.36.25-2,.46a4.42,4.42,0,0,0-2.44,1.89,1.08,1.08,0,0,0-.13.29c-.13.53-.29,1.06-.39,1.6a5.92,5.92,0,0,0-.07,1.12,11.52,11.52,0,0,0,.09,1.17,4.12,4.12,0,0,0,.54,1.65,5.15,5.15,0,0,0,2.6,2.09,3.12,3.12,0,0,0,.87.17C337.31,347.83,337.71,347.81,338.29,347.81Zm-28-24.24a6.75,6.75,0,0,0,.69-.1,3.54,3.54,0,0,0,1.74-1.15,9.59,9.59,0,0,0,2.17-3.59,11,11,0,0,0,.42-1.46,18.53,18.53,0,0,0,.32-3.64,19.11,19.11,0,0,0-.21-2.39,10,10,0,0,0-.4-1.52,2.74,2.74,0,0,0-.86-1.31,2.86,2.86,0,0,0-2.32-.58,5.7,5.7,0,0,0-2.36.86,7.72,7.72,0,0,0-1.89,1.57,9,9,0,0,0-1.58,2.67,22.15,22.15,0,0,0-.68,2.28,10,10,0,0,0-.17,1.9,7.69,7.69,0,0,0,.12,1.66,7,7,0,0,0,1.39,2.81,4.92,4.92,0,0,0,1.55,1.35A5.23,5.23,0,0,0,310.32,323.57Zm28.09-21.83a2,2,0,0,0,.25.51,4,4,0,0,0,.64.59.94.94,0,0,0,1.36,0c.59-.5,1.15-1,1.7-1.58s.8-.81,1.17-1.24.16-.44-.17-.55a3,3,0,0,0-1.48-.07,7.13,7.13,0,0,0-2.85,1.17A1.46,1.46,0,0,0,338.41,301.74Zm13.8,6.94c0-.18,0-.37,0-.55-.06-.55-.36-.7-.84-.42l-.06,0a10.86,10.86,0,0,0-2.24,2.25.92.92,0,0,0,0,1.18l1,1.34c.28.36.39.38.72.05a4.65,4.65,0,0,0,.88-1.34A5.9,5.9,0,0,0,352.21,308.68Zm-.61,24c0-.34-.2-.52-.44-.44s-.61.24-.91.38a6.05,6.05,0,0,0-.63.4c-.57.4-1.14.79-1.69,1.23-.31.25-.29.51,0,.82a6.55,6.55,0,0,1,.49.56,1.67,1.67,0,0,1,.51,1.1c0,.18.16.25.33.14a1.16,1.16,0,0,0,.36-.3,14.41,14.41,0,0,0,1-1.44,9.26,9.26,0,0,0,.68-1.42A6.88,6.88,0,0,0,351.6,332.71ZM314.06,305c.56.22,1.09.4,1.6.63a3.38,3.38,0,0,1,.64.45c.15.11.3.23.46,0a4.86,4.86,0,0,0,.74-1,14.54,14.54,0,0,0,.64-1.82.73.73,0,0,0-.15-.71.39.39,0,0,0-.35-.07c-.31.12-.6.27-.9.42s-.45.28-.68.4a6.49,6.49,0,0,0-1.84,1.41A2.63,2.63,0,0,0,314.06,305Z"/><path d="M303.32,329.66h4.84c.61,0,1.22,0,1.82-.05.77,0,1.54-.1,2.31-.12s1.69,0,2.54,0q.93,0,1.86.09c.81.06,1.62.13,2.42.26s1.41.35,2.1.54a2.15,2.15,0,0,1,.52.27,5.05,5.05,0,0,1,1.41,1.15,5.23,5.23,0,0,1,1.17,2.6c.11.86.24,1.72.32,2.58.05.55,0,1.1,0,1.65s0,.93,0,1.39c0,.68-.12,1.36-.15,2s0,1.47,0,2.2.06,1.19.11,1.78.12,1.43.18,2.15a14.94,14.94,0,0,1,0,2.59,6.91,6.91,0,0,1-1,3,8.59,8.59,0,0,1-.84,1.07,12.57,12.57,0,0,1-2.35,2.14,8.24,8.24,0,0,1-3.27,1.45,4.22,4.22,0,0,1-4.65-1.88,13,13,0,0,1-.86-1.9,9.35,9.35,0,0,1-.4-1.12c-.17-.57-.33-1.14-.49-1.71s-.27-1-.43-1.49c-.23-.69-.45-1.39-.72-2.07a7.89,7.89,0,0,0-2.78-3.64,12.1,12.1,0,0,0-2.42-1.33l-3-1.25c-.78-.32-1.55-.66-2.34-1a3.27,3.27,0,0,1-1.65-1.46,5.67,5.67,0,0,1-.77-1.89c-.08-.43-.19-.85-.25-1.28a5.66,5.66,0,0,1,.22-2.55,6,6,0,0,1,2.48-3.05,6.36,6.36,0,0,1,2.48-1Z"/><path d="M341.53,328.93a6.9,6.9,0,0,1-2.35-.24,7.28,7.28,0,0,1-1-.37,6.59,6.59,0,0,1-2.14-1.33,3.23,3.23,0,0,1-.87-1.86,12.88,12.88,0,0,1-.18-1.39,3.46,3.46,0,0,1,.38-1.69,13.08,13.08,0,0,1,2.07-2.84,43.94,43.94,0,0,1,4.49-4.56,20.27,20.27,0,0,1,2.1-1.47,3.06,3.06,0,0,1,2.9-.25,2.45,2.45,0,0,1,1.34,1.41,6.51,6.51,0,0,1,.46,2.14,16.26,16.26,0,0,1,0,1.71,14.94,14.94,0,0,1-.19,1.89,15.12,15.12,0,0,1-.43,1.6,14.05,14.05,0,0,1-1.43,3.07c-.21.36-.49.69-.73,1a10,10,0,0,1-1.91,2.08,4.58,4.58,0,0,1-2,.94Z"/><path d="M328.31,316.9a6.83,6.83,0,0,1-2.31-.38,5.6,5.6,0,0,1-2.34-1.77,6.88,6.88,0,0,1-1.2-2.21,4.69,4.69,0,0,1,.66-4,13.21,13.21,0,0,1,3-3.17,10.2,10.2,0,0,1,2.63-1.49c.61-.22,1.21-.47,1.83-.63.86-.21,1.74-.36,2.62-.51a13.35,13.35,0,0,1,1.54-.14A4.35,4.35,0,0,1,337,303a2.26,2.26,0,0,1,.89,1.08,3.19,3.19,0,0,1,.24,2.44,5.85,5.85,0,0,1-1,1.66c-.74,1-1.5,2-2.29,3s-1.64,2-2.48,3c-.6.69-1.23,1.34-1.85,2a2.41,2.41,0,0,1-1.82.77Z"/><path d="M338.29,347.81c-.58,0-1,0-1.38,0a3.12,3.12,0,0,1-.87-.17,5.15,5.15,0,0,1-2.6-2.09,4.12,4.12,0,0,1-.54-1.65,11.52,11.52,0,0,1-.09-1.17,5.92,5.92,0,0,1,.07-1.12c.1-.54.26-1.07.39-1.6a1.08,1.08,0,0,1,.13-.29,4.42,4.42,0,0,1,2.44-1.89c.65-.21,1.34-.3,2-.46.47-.1.94-.24,1.4-.36l2-.53c.9-.26,1.8-.55,2.71-.77a3.1,3.1,0,0,1,1.45-.15,1.64,1.64,0,0,1,.78.41,3.46,3.46,0,0,1,1.1,3,7.47,7.47,0,0,1-.86,2.76,12.54,12.54,0,0,1-3.4,4.05,8.85,8.85,0,0,1-2.25,1.43,10.43,10.43,0,0,1-1.57.44A8.29,8.29,0,0,1,338.29,347.81Z"/><path d="M310.32,323.57a5.23,5.23,0,0,1-2.07-.64,4.92,4.92,0,0,1-1.55-1.35,7,7,0,0,1-1.39-2.81,7.69,7.69,0,0,1-.12-1.66,10,10,0,0,1,.17-1.9,22.15,22.15,0,0,1,.68-2.28,9,9,0,0,1,1.58-2.67,7.72,7.72,0,0,1,1.89-1.57,5.7,5.7,0,0,1,2.36-.86,2.86,2.86,0,0,1,2.32.58,2.74,2.74,0,0,1,.86,1.31,10,10,0,0,1,.4,1.52,19.11,19.11,0,0,1,.21,2.39,18.53,18.53,0,0,1-.32,3.64,11,11,0,0,1-.42,1.46,9.59,9.59,0,0,1-2.17,3.59,3.54,3.54,0,0,1-1.74,1.15A6.75,6.75,0,0,1,310.32,323.57Z"/><path d="M338.41,301.74a1.46,1.46,0,0,1,.62-1.18,7.13,7.13,0,0,1,2.85-1.17,3,3,0,0,1,1.48.07c.33.11.45.21.17.55s-.76.84-1.17,1.24-1.11,1.08-1.7,1.58a.94.94,0,0,1-1.36,0,4,4,0,0,1-.64-.59A2,2,0,0,1,338.41,301.74Z"/><path d="M352.21,308.68a5.9,5.9,0,0,1-.54,2.55,4.65,4.65,0,0,1-.88,1.34c-.33.33-.44.31-.72-.05l-1-1.34a.92.92,0,0,1,0-1.18,10.86,10.86,0,0,1,2.24-2.25l.06,0c.48-.28.78-.13.84.42C352.22,308.31,352.21,308.5,352.21,308.68Z"/><path d="M351.6,332.71a6.88,6.88,0,0,1-.29,1,9.26,9.26,0,0,1-.68,1.42,14.41,14.41,0,0,1-1,1.44,1.16,1.16,0,0,1-.36.3c-.17.11-.33,0-.33-.14a1.67,1.67,0,0,0-.51-1.1,6.55,6.55,0,0,0-.49-.56c-.28-.31-.3-.57,0-.82.55-.44,1.12-.83,1.69-1.23a6.05,6.05,0,0,1,.63-.4c.3-.14.6-.27.91-.38S351.61,332.37,351.6,332.71Z"/><path d="M314.06,305a2.63,2.63,0,0,1,.16-.26,6.49,6.49,0,0,1,1.84-1.41c.23-.12.45-.28.68-.4s.59-.3.9-.42a.39.39,0,0,1,.35.07.73.73,0,0,1,.15.71,14.54,14.54,0,0,1-.64,1.82,4.86,4.86,0,0,1-.74,1c-.16.19-.31.07-.46,0a3.38,3.38,0,0,0-.64-.45C315.15,305.39,314.62,305.21,314.06,305Z"/><path class="cls-1" d="M347.32,492.07V409.46h82.61v82.61Zm17.87-38.35-1.63.26a6.18,6.18,0,0,0-2.48,1,6,6,0,0,0-2.47,3.05,5.48,5.48,0,0,0-.22,2.54c.05.43.17.86.25,1.28a5.58,5.58,0,0,0,.77,1.89,3.19,3.19,0,0,0,1.65,1.46c.79.3,1.56.64,2.34,1,1,.42,2,.85,3,1.25a12.43,12.43,0,0,1,2.42,1.34,7.88,7.88,0,0,1,2.78,3.63c.27.68.49,1.38.72,2.08.16.49.29,1,.43,1.48s.31,1.15.49,1.71a10.58,10.58,0,0,0,.39,1.12,12.58,12.58,0,0,0,.87,1.9,4.2,4.2,0,0,0,4.64,1.88,8.41,8.41,0,0,0,3.28-1.44,13,13,0,0,0,2.35-2.15,9.56,9.56,0,0,0,.83-1.07,6.76,6.76,0,0,0,1-3,14.94,14.94,0,0,0,0-2.59c-.05-.72-.12-1.43-.17-2.15s-.1-1.18-.12-1.77c0-.74,0-1.47,0-2.21s.11-1.36.14-2c0-.46,0-.92,0-1.38s0-1.11,0-1.66c-.08-.86-.22-1.72-.32-2.58a5.45,5.45,0,0,0-1.17-2.6,5.2,5.2,0,0,0-1.41-1.15,2.86,2.86,0,0,0-.52-.27,21.7,21.7,0,0,0-2.11-.53c-.79-.14-1.61-.2-2.41-.27-.62-.05-1.25-.08-1.87-.08-.84,0-1.69,0-2.54,0s-1.53.07-2.3.11l-1.82.06h-4.84ZM403.4,453c.19,0,.37-.09.56-.12a4.53,4.53,0,0,0,2-.93,10,10,0,0,0,1.91-2.09c.24-.35.52-.68.74-1a14.53,14.53,0,0,0,1.43-3.07,11.76,11.76,0,0,0,.62-3.49c0-.57,0-1.14,0-1.71a6.56,6.56,0,0,0-.46-2.14,2.48,2.48,0,0,0-1.34-1.41,3.08,3.08,0,0,0-2.9.25,18.94,18.94,0,0,0-2.1,1.48,43.06,43.06,0,0,0-4.5,4.56,13.45,13.45,0,0,0-2.07,2.83,3.38,3.38,0,0,0-.37,1.7,10.86,10.86,0,0,0,.18,1.38,3.28,3.28,0,0,0,.86,1.86,7,7,0,0,0,2.15,1.34,6.76,6.76,0,0,0,1,.36A6.9,6.9,0,0,0,403.4,453Zm-13.22-12,.38,0a2.44,2.44,0,0,0,1.82-.76c.62-.67,1.26-1.33,1.86-2,.84-1,1.67-2,2.48-3s1.54-2,2.29-3a5.69,5.69,0,0,0,.95-1.66,3.11,3.11,0,0,0-.24-2.43,2.18,2.18,0,0,0-.89-1.09,4.33,4.33,0,0,0-2.24-.41,11.31,11.31,0,0,0-1.54.15c-.88.14-1.76.29-2.62.51a18.74,18.74,0,0,0-1.83.62,10,10,0,0,0-2.63,1.49,13.3,13.3,0,0,0-3,3.18,4.69,4.69,0,0,0-.65,4,6.52,6.52,0,0,0,1.2,2.21,5.51,5.51,0,0,0,2.34,1.77A6.79,6.79,0,0,0,390.18,441Zm10,30.92c.18,0,.54-.07.89-.15a12.37,12.37,0,0,0,1.58-.45,8.37,8.37,0,0,0,2.24-1.43,12.43,12.43,0,0,0,3.41-4,7.77,7.77,0,0,0,.86-2.77,3.46,3.46,0,0,0-1.1-3,1.71,1.71,0,0,0-.78-.4,3,3,0,0,0-1.45.14c-.91.22-1.81.52-2.72.77l-2,.53c-.47.13-.93.26-1.4.37-.67.15-1.36.25-2,.45a4.46,4.46,0,0,0-2.44,1.89,1.08,1.08,0,0,0-.13.29c-.14.53-.29,1.06-.39,1.6a5.27,5.27,0,0,0-.07,1.12,11.52,11.52,0,0,0,.09,1.17,4.06,4.06,0,0,0,.54,1.66,5.14,5.14,0,0,0,2.6,2.08,2.74,2.74,0,0,0,.86.17C399.18,471.89,399.58,471.87,400.16,471.87Zm-28-24.25a6.92,6.92,0,0,0,.7-.1,3.54,3.54,0,0,0,1.74-1.15,9.59,9.59,0,0,0,2.17-3.59,10.54,10.54,0,0,0,.41-1.46,17.06,17.06,0,0,0,.32-3.64,21.2,21.2,0,0,0-.2-2.39,10,10,0,0,0-.4-1.52,2.74,2.74,0,0,0-.86-1.3,2.85,2.85,0,0,0-2.33-.58,5.44,5.44,0,0,0-2.35.86,7.29,7.29,0,0,0-1.89,1.56,9,9,0,0,0-1.58,2.67,20.54,20.54,0,0,0-.68,2.28,9.33,9.33,0,0,0-.17,1.9,7.69,7.69,0,0,0,.12,1.66,7.11,7.11,0,0,0,1.38,2.81,5.16,5.16,0,0,0,3.62,2Zm28.1-21.83a1.82,1.82,0,0,0,.25.51,5.13,5.13,0,0,0,.63.6,1,1,0,0,0,1.36,0c.59-.51,1.16-1.05,1.71-1.59a16.87,16.87,0,0,0,1.16-1.24c.29-.34.16-.44-.16-.55a3.09,3.09,0,0,0-1.48-.07,7.23,7.23,0,0,0-2.85,1.18A1.43,1.43,0,0,0,400.28,425.79Zm13.8,6.95a5.19,5.19,0,0,0,0-.56c-.05-.55-.35-.69-.83-.42l-.07,0a11.11,11.11,0,0,0-2.24,2.25.93.93,0,0,0,0,1.18l1,1.34c.27.37.39.38.72.05a4.65,4.65,0,0,0,.88-1.34A5.89,5.89,0,0,0,414.08,432.74Zm-.61,24c0-.35-.2-.53-.44-.44a6,6,0,0,0-.91.38,5.09,5.09,0,0,0-.63.39c-.57.41-1.15.8-1.69,1.23-.32.25-.29.51,0,.82s.34.36.49.56a1.74,1.74,0,0,1,.51,1.1c0,.19.16.25.32.14a1.19,1.19,0,0,0,.37-.29c.35-.47.72-.94,1-1.44a10.41,10.41,0,0,0,.68-1.43C413.32,457.43,413.39,457,413.47,456.77Zm-37.54-27.72c.56.21,1.09.39,1.59.62a3.15,3.15,0,0,1,.65.45c.14.11.3.23.45.05a5.08,5.08,0,0,0,.75-1,16.45,16.45,0,0,0,.63-1.83.69.69,0,0,0-.15-.71.37.37,0,0,0-.34-.07,9.23,9.23,0,0,0-.9.42l-.68.41a6.28,6.28,0,0,0-1.84,1.4A1.28,1.28,0,0,0,375.93,429.05Z"/><path d="M365.19,453.72H370l1.82-.06c.77,0,1.53-.09,2.3-.11s1.7,0,2.54,0c.62,0,1.25,0,1.87.08.8.07,1.62.13,2.41.27a21.7,21.7,0,0,1,2.11.53,2.86,2.86,0,0,1,.52.27,5.2,5.2,0,0,1,1.41,1.15,5.45,5.45,0,0,1,1.17,2.6c.1.86.24,1.72.32,2.58.05.55,0,1.11,0,1.66s0,.92,0,1.38c0,.68-.12,1.36-.14,2s0,1.47,0,2.21c0,.59.07,1.18.12,1.77s.12,1.43.17,2.15a14.94,14.94,0,0,1,0,2.59,6.76,6.76,0,0,1-1,3,9.56,9.56,0,0,1-.83,1.07,13,13,0,0,1-2.35,2.15,8.41,8.41,0,0,1-3.28,1.44,4.2,4.2,0,0,1-4.64-1.88,12.58,12.58,0,0,1-.87-1.9,10.58,10.58,0,0,1-.39-1.12c-.18-.56-.33-1.14-.49-1.71s-.27-1-.43-1.48c-.23-.7-.45-1.4-.72-2.08a7.88,7.88,0,0,0-2.78-3.63,12.43,12.43,0,0,0-2.42-1.34c-1-.4-2-.83-3-1.25-.78-.32-1.55-.66-2.34-1a3.19,3.19,0,0,1-1.65-1.46,5.58,5.58,0,0,1-.77-1.89c-.08-.42-.2-.85-.25-1.28a5.48,5.48,0,0,1,.22-2.54,6,6,0,0,1,2.47-3.05,6.18,6.18,0,0,1,2.48-1Z"/><path d="M403.4,453a6.9,6.9,0,0,1-2.35-.24,6.76,6.76,0,0,1-1-.36,7,7,0,0,1-2.15-1.34,3.28,3.28,0,0,1-.86-1.86,10.86,10.86,0,0,1-.18-1.38,3.38,3.38,0,0,1,.37-1.7,13.45,13.45,0,0,1,2.07-2.83,43.06,43.06,0,0,1,4.5-4.56,18.94,18.94,0,0,1,2.1-1.48,3.08,3.08,0,0,1,2.9-.25,2.48,2.48,0,0,1,1.34,1.41,6.56,6.56,0,0,1,.46,2.14c0,.57.05,1.14,0,1.71a11.76,11.76,0,0,1-.62,3.49,14.53,14.53,0,0,1-1.43,3.07c-.22.36-.5.69-.74,1a10,10,0,0,1-1.91,2.09,4.53,4.53,0,0,1-2,.93C403.77,452.89,403.59,452.94,403.4,453Z"/><path d="M390.18,441a6.79,6.79,0,0,1-2.31-.38,5.51,5.51,0,0,1-2.34-1.77,6.52,6.52,0,0,1-1.2-2.21,4.69,4.69,0,0,1,.65-4,13.3,13.3,0,0,1,3-3.18,10,10,0,0,1,2.63-1.49,18.74,18.74,0,0,1,1.83-.62c.86-.22,1.74-.37,2.62-.51a11.31,11.31,0,0,1,1.54-.15,4.33,4.33,0,0,1,2.24.41,2.18,2.18,0,0,1,.89,1.09,3.11,3.11,0,0,1,.24,2.43,5.69,5.69,0,0,1-.95,1.66c-.75,1-1.51,2-2.29,3s-1.64,2-2.48,3c-.6.68-1.24,1.34-1.86,2a2.44,2.44,0,0,1-1.82.76Z"/><path d="M400.16,471.87c-.58,0-1,0-1.39,0a2.74,2.74,0,0,1-.86-.17,5.14,5.14,0,0,1-2.6-2.08,4.06,4.06,0,0,1-.54-1.66,11.52,11.52,0,0,1-.09-1.17,5.27,5.27,0,0,1,.07-1.12c.1-.54.25-1.07.39-1.6a1.08,1.08,0,0,1,.13-.29,4.46,4.46,0,0,1,2.44-1.89c.65-.2,1.34-.3,2-.45.47-.11.93-.24,1.4-.37l2-.53c.91-.25,1.81-.55,2.72-.77a3,3,0,0,1,1.45-.14,1.71,1.71,0,0,1,.78.4,3.46,3.46,0,0,1,1.1,3,7.77,7.77,0,0,1-.86,2.77,12.43,12.43,0,0,1-3.41,4,8.37,8.37,0,0,1-2.24,1.43,12.37,12.37,0,0,1-1.58.45C400.7,471.8,400.34,471.84,400.16,471.87Z"/><path d="M372.18,447.62a5.16,5.16,0,0,1-3.62-2,7.11,7.11,0,0,1-1.38-2.81,7.69,7.69,0,0,1-.12-1.66,9.33,9.33,0,0,1,.17-1.9,20.54,20.54,0,0,1,.68-2.28,9,9,0,0,1,1.58-2.67,7.29,7.29,0,0,1,1.89-1.56,5.44,5.44,0,0,1,2.35-.86,2.85,2.85,0,0,1,2.33.58,2.74,2.74,0,0,1,.86,1.3,10,10,0,0,1,.4,1.52,21.2,21.2,0,0,1,.2,2.39,17.06,17.06,0,0,1-.32,3.64,10.54,10.54,0,0,1-.41,1.46,9.59,9.59,0,0,1-2.17,3.59,3.54,3.54,0,0,1-1.74,1.15A6.92,6.92,0,0,1,372.18,447.62Z"/><path d="M400.28,425.79a1.43,1.43,0,0,1,.62-1.17,7.23,7.23,0,0,1,2.85-1.18,3.09,3.09,0,0,1,1.48.07c.32.11.45.21.16.55a16.87,16.87,0,0,1-1.16,1.24c-.55.54-1.12,1.08-1.71,1.59a1,1,0,0,1-1.36,0,5.13,5.13,0,0,1-.63-.6A1.82,1.82,0,0,1,400.28,425.79Z"/><path d="M414.08,432.74a5.89,5.89,0,0,1-.54,2.54,4.65,4.65,0,0,1-.88,1.34c-.33.33-.45.32-.72-.05l-1-1.34a.93.93,0,0,1,0-1.18,11.11,11.11,0,0,1,2.24-2.25l.07,0c.48-.27.78-.13.83.42A5.19,5.19,0,0,1,414.08,432.74Z"/><path d="M413.47,456.77c-.08.27-.15.66-.29,1a10.41,10.41,0,0,1-.68,1.43c-.3.5-.67,1-1,1.44a1.19,1.19,0,0,1-.37.29c-.16.11-.33.05-.32-.14a1.74,1.74,0,0,0-.51-1.1c-.15-.2-.33-.37-.49-.56s-.31-.57,0-.82c.54-.43,1.12-.82,1.69-1.23a5.09,5.09,0,0,1,.63-.39,6,6,0,0,1,.91-.38C413.27,456.24,413.48,456.42,413.47,456.77Z"/><path d="M375.93,429.05a1.28,1.28,0,0,1,.16-.27,6.28,6.28,0,0,1,1.84-1.4l.68-.41a9.23,9.23,0,0,1,.9-.42.37.37,0,0,1,.34.07.69.69,0,0,1,.15.71,16.45,16.45,0,0,1-.63,1.83,5.08,5.08,0,0,1-.75,1c-.15.18-.31.06-.45-.05a3.15,3.15,0,0,0-.65-.45C377,429.44,376.49,429.26,375.93,429.05Z"/></svg>