<svg id="Layer_1" data-name="Layer 1" xmlns="http://www.w3.org/2000/svg" xmlns:xlink="http://www.w3.org/1999/xlink" viewBox="0 0 73.9 102.65"><defs><style>.cls-1{fill:url(#linear-gradient);}.cls-2{fill:url(#linear-gradient-2);}.cls-3{fill:url(#linear-gradient-3);}.cls-4{fill:url(#linear-gradient-4);}.cls-5{fill:url(#linear-gradient-5);}.cls-6{fill:url(#linear-gradient-6);}.cls-7{fill:url(#linear-gradient-7);}.cls-8{fill:url(#linear-gradient-8);}.cls-9{fill:none;stroke:#000;stroke-miterlimit:10;stroke-width:0.5px;}.cls-10{fill:url(#linear-gradient-9);}.cls-11{fill:url(#linear-gradient-10);}.cls-12{fill:url(#linear-gradient-11);}</style><linearGradient id="linear-gradient" x1="18.86" y1="73.22" x2="71.18" y2="20.9" gradientTransform="matrix(-1, 0, 0, 1, 68.92, 0)" gradientUnits="userSpaceOnUse"><stop offset="0.16" stop-color="#bc5927"/><stop offset="0.4" stop-color="#ec7d2a"/></linearGradient><linearGradient id="linear-gradient-2" x1="50.09" y1="84.19" x2="50.09" y2="20.05" gradientTransform="matrix(-1, 0, 0, 1, 68.92, 0)" gradientUnits="userSpaceOnUse"><stop offset="0.22" stop-color="#ddbb7f"/><stop offset="0.43" stop-color="#f9d78e"/></linearGradient><linearGradient id="linear-gradient-3" x1="43.9" y1="58.34" x2="43.9" y2="88.75" gradientTransform="matrix(-1, 0, 0, 1, 68.92, 0)" gradientUnits="userSpaceOnUse"><stop offset="0" stop-color="#171717"/><stop offset="0.36" stop-color="#231f20"/></linearGradient><linearGradient id="linear-gradient-4" x1="55.54" y1="58.07" x2="55.54" y2="88.65" gradientTransform="matrix(-1, 0, 0, 1, 68.92, 0)" gradientUnits="userSpaceOnUse"><stop offset="0" stop-color="#171717"/><stop offset="0.37" stop-color="#231f20"/></linearGradient><linearGradient id="linear-gradient-5" x1="42.28" y1="17.49" x2="35.12" y2="10.33" gradientTransform="matrix(-1, 0, 0, 1, 68.92, 0)" gradientUnits="userSpaceOnUse"><stop offset="0.22" stop-color="#ddbb7f"/><stop offset="0.52" stop-color="#f9d78e"/></linearGradient><linearGradient id="linear-gradient-6" x1="55.28" y1="15.03" x2="55.28" y2="5.52" xlink:href="#linear-gradient-5"/><linearGradient id="linear-gradient-7" x1="23.6" y1="100.38" x2="8.11" y2="73.55" gradientTransform="matrix(-1, 0, 0, 1, 68.92, 0)" gradientUnits="userSpaceOnUse"><stop offset="0.82" stop-color="#bc5927"/><stop offset="1" stop-color="#e37729"/><stop offset="1" stop-color="#ec7d2a"/></linearGradient><linearGradient id="linear-gradient-8" x1="22.15" y1="101.22" x2="8.59" y2="77.74" gradientTransform="matrix(-1, 0, 0, 1, 68.92, 0)" gradientUnits="userSpaceOnUse"><stop offset="0.35" stop-color="#ddbb7f"/><stop offset="0.74" stop-color="#f9d78e"/></linearGradient><linearGradient id="linear-gradient-9" x1="113.77" y1="12.65" x2="113.77" y2="18.77" gradientTransform="matrix(-1, 0, 0, 1, 133.75, 0)" gradientUnits="userSpaceOnUse"><stop offset="0" stop-color="#171717"/><stop offset="0.52" stop-color="#231f20"/></linearGradient><linearGradient id="linear-gradient-10" x1="112.94" y1="4.33" x2="112.94" y2="16.77" gradientTransform="matrix(-1, 0, 0, 1, 133.75, 0)" gradientUnits="userSpaceOnUse"><stop offset="0" stop-color="#171717"/><stop offset="0.82" stop-color="#231f20"/></linearGradient><linearGradient id="linear-gradient-11" x1="107.19" y1="10.1" x2="107.19" y2="21.97" gradientTransform="matrix(-1, 0, 0, 1, 133.75, 0)" gradientUnits="userSpaceOnUse"><stop offset="0" stop-color="#eaa83c"/><stop offset="0.82" stop-color="#eeba46"/></linearGradient></defs><title>conocimientos-02</title><path class="cls-1" d="M8.5,61C6,64.69,6.12,83,13.58,83l.67.12c1.47.24,5.24.81,9.59,1.11,5.24.36,11.33.3,15.32-1.23a8.41,8.41,0,0,0,5.44-6.22A11.43,11.43,0,0,0,44.15,71c-.55-1.69-1.87-3-3-4.36a22.28,22.28,0,0,1-1.65-2.33c-.51-.83-.87-1.72-1.37-2.55a43.85,43.85,0,0,1-2.62-5.49c-.45-1-.83-2.13-1.22-3.2-.58-1.62-.49-3.3-.86-5-.22-1-.53-2-.8-3A39.08,39.08,0,0,0,30,37.94a12.16,12.16,0,0,0-2.16-3.15l-.12-.12.22-.2h0l.16-.15h0l.34-.31.06-.06c1.38-1.32,4.26-4.08,6-6t0,0l0-.05.08-.09.15-.18.06-.08a2.09,2.09,0,0,0,.14-.17l.06-.07.62-.78a.62.62,0,0,1,.09-.12s0,0,0,0a0,0,0,0,1,0,0,.3.3,0,0,0,0-.08l-5.08-5.4S34.32,12.71,33,8.14C33,8.14,24.6,11,23.3,15a22.55,22.55,0,0,0-5.43-.79s-.63-7.47-3.49-9.85A13.42,13.42,0,0,0,9.61,15s-6,4.61-7.78,5.08l0,.09c0,.08,0,.16,0,.24l.09.38c0,.17.07.34.11.51s.09.42.14.63l.18.73.21.82.24.9.27.95.3,1c.11.35.22.69.34,1s.23.71.36,1.06l.39,1.07c.14.35.28.71.43,1.06s.29.69.45,1,.31.67.48,1,.34.64.52,1,.35.6.54.9.37.55.57.82.39.5.6.74.18,0,.27.05a1.14,1.14,0,0,0,.16.15,1.14,1.14,0,0,1,.15.23,4.27,4.27,0,0,1,.16,1.19c0,.43.17.81.18,1.24a119.39,119.39,0,0,0,1.16,12.22,17,17,0,0,1,.06,5.09A11.52,11.52,0,0,1,8.5,61Z"/><path class="cls-2" d="M3.11,26.79c.1.34.21.68.32,1a26.25,26.25,0,0,0,4,7.49,10.18,10.18,0,0,1,1.25,1.56,6.23,6.23,0,0,1,.14,2,4.93,4.93,0,0,0,.56,2.31,14.3,14.3,0,0,1,.71,1.41A37.3,37.3,0,0,1,12.4,48.5a45,45,0,0,1,1.51,6.89,44.65,44.65,0,0,1,.37,8.49c-.07,1.37-.21,2.74-.41,4.1l-.5,9.53.88,5.57c1.47.24,5.24.81,9.59,1.11.22-1.18.27-3.54-.54-8.27-1.52-8.91,0-.53,0-.53V66c0-.65.06-1.31.07-2q0-2.51-.09-5a66.13,66.13,0,0,0-.65-6.72A43.22,43.22,0,0,0,21,45.17c-.22-.69-.42-1.43-.7-2.1-.51-1.21-1.66-2.56-.51-3.81a4.1,4.1,0,0,1,1.55-.91A34.38,34.38,0,0,0,35.06,27.24a9.83,9.83,0,0,0,.76-1,19.67,19.67,0,0,0-3.75-1.49,19.35,19.35,0,0,0-7.41-1.2,6.75,6.75,0,0,0-3.61,1.21l-4.13,3.49-2.23-3.7S13.11,19.9,1.83,20.05c.26,0,.51,3.3.56,3.63A25.49,25.49,0,0,0,3.11,26.79Z"/><path class="cls-3" d="M30.37,59.82s-5.26,9.69-6.35,17c0,0-1.81,8.2-1.7,11.06a2.13,2.13,0,0,1-2.54.75s-.74-1,1.51-2.33l.45-18.8s.37-5.93,3.49-9.16a2.64,2.64,0,0,0,1.11,1.59l3.13-1.17Z"/><path class="cls-4" d="M13.42,58.07a7.66,7.66,0,0,0-3.12,7.84l-.9-.58s.9,9.58,3.23,12.86c0,0,1.59,9.75,2.28,10.28,0,0,1.64.42,2,0,0,0,1.53-1-.9-1.64,0,0-1.17-7.68-1.27-9.27S13.05,60.46,13.42,58.07Z"/><path d="M19.89,25.24a.48.48,0,0,0-.44-.09,9.25,9.25,0,0,1-1.49.09A9.08,9.08,0,0,1,15,24.66a.73.73,0,0,0-.41-.07c-.33.07-.24.7-.22.94a3.42,3.42,0,0,0,.34,1.25A3.17,3.17,0,0,0,16,28.21c1.06.48,2.29-.23,3-1a4.15,4.15,0,0,0,1-1.54C20,25.47,20,25.32,19.89,25.24Z"/><path d="M22.09,22.38a1.13,1.13,0,0,0,.13.72,2.23,2.23,0,0,1,2.07-.71,2.37,2.37,0,0,1,.86.3,1.47,1.47,0,0,0-1.34-1.37A1.44,1.44,0,0,0,22.09,22.38Z"/><path d="M13.7,21.32a1.18,1.18,0,0,1-.34.65,2.25,2.25,0,0,0-1.76-1.32,2.5,2.5,0,0,0-.91,0,1.48,1.48,0,0,1,1.69-.91A1.46,1.46,0,0,1,13.7,21.32Z"/><path class="cls-5" d="M29.65,19.66s3.13-3.25,2.94-10.54c0,0-5.87,2.09-8.42,5.91Z"/><path class="cls-6" d="M16.79,14.23s-.51-7.17-2.28-8.71c0,0-4,2.13-4,9.51Z"/><path class="cls-7" d="M38.22,93.71a5.58,5.58,0,0,0,.2.88,5.27,5.27,0,0,0,.22.49l.15.29a9.14,9.14,0,0,0,1.11,1.47l.2.21.08.08.14.13q.21.21.42.39l.27.23a9.69,9.69,0,0,0,3.32,1.37l.14,0,.85.08.23,0,1.12.07.64,0,.43,0,.65,0h.88c.68,0,1.34,0,2-.06h.11l.7,0,.79-.06.33,0,.19,0,.79-.09c.61-.08,1.21-.18,1.81-.29l.77-.15.76-.18c.42-.1.82-.21,1.21-.33h0a20.92,20.92,0,0,0,2.28-.8c.43-.18.87-.37,1.28-.58l0,0,.43-.23q.47-.24.93-.51c.29-.18.59-.37.88-.57l.58-.41.63-.48s0,0,0,0l.18-.15.12-.1.37-.32h0l.54-.52.27-.27.21-.23c.27-.29.54-.59.79-.9l.41-.54c.11-.14.21-.3.31-.45a3.51,3.51,0,0,0,.27-.4c.09-.13.17-.27.26-.41l.33-.59v0c.18-.33.34-.66.49-1l.21-.49c.07-.18.14-.35.2-.53a1.19,1.19,0,0,1,.08-.2c0-.07,0-.13,0-.19s.13-.39.18-.59,0-.14.05-.21l0-.12a2,2,0,0,1,0-.24,0,0,0,0,1,0,0v0c0-.19.08-.37.11-.56C73.33,72.89,44,70.73,44,70.73l.77,5.4a3.91,3.91,0,0,1,3.75,3.17,2.51,2.51,0,0,1-.19,1.25C47.22,83.31,42,86.06,42,86.06c-2.3,1-3.12.36-3.17.32l1.5,2.13-.24.23-.23.24A5.77,5.77,0,0,0,38.22,93.71Z"/><path class="cls-8" d="M38.22,93.71a5.58,5.58,0,0,0,.2.88,5.71,5.71,0,0,0,1.39,2.29,7.16,7.16,0,0,0,1.2,1,9.69,9.69,0,0,0,3.32,1.37l.14,0a21.07,21.07,0,0,0,5,.31c1.23,0,2.46-.12,3.68-.25l.19,0a32.32,32.32,0,0,0,4.9-.92A20.58,20.58,0,0,0,66,94.46l.12-.1.37-.32h0l.54-.52.27-.27.21-.23c.27-.29.54-.59.79-.9l.41-.54c.11-.14.21-.3.31-.45a3.51,3.51,0,0,0,.27-.4c.09-.13.17-.27.26-.41l.33-.59v0c.18-.33.34-.66.49-1l.21-.49c.07-.18.14-.35.2-.53a1.19,1.19,0,0,1,.08-.2c0-.07,0-.13,0-.19s.13-.39.18-.59,0-.14.05-.21l0-.12a2,2,0,0,1,0-.24,0,0,0,0,1,0,0v0c0-.19.08-.37.11-.56-.13-.18-2.5-3.4-4.87-4a19.69,19.69,0,0,0-5.72-.32,30.22,30.22,0,0,1-.27-3.07s-1.85,1.54-2.43,1.43c0,0-8.44-.1-9.72,1C47.22,83.31,42,86.06,42,86.06c-2.3,1-3.12.36-3.17.32l1.5,2.13-.24.23-.23.24A5.77,5.77,0,0,0,38.22,93.71Z"/><path class="cls-9" d="M21.54,29.55s-3.56,1.92-5-1.22c0,0-1.78,2.09-5,.09"/><path class="cls-10" d="M24.59,18.77s-7,.06-10.24-1.35l.1-4.77,11.16.42Z"/><polygon class="cls-11" points="28.2 16.77 9.02 12.84 15.64 4.33 32.6 8.31 28.2 16.77"/><path class="cls-12" d="M21.06,10.1l9.55,2.05a9.33,9.33,0,0,1-.92,6.62,2,2,0,0,1,1.63,2.56s-.16.19.75.64c0,0-4.28-.57-3.05-2.86,0,0,2.27-4.31,1.16-6.47l-9.12-2.09Z"/></svg>