<svg id="Layer_1" data-name="Layer 1" xmlns="http://www.w3.org/2000/svg" xmlns:xlink="http://www.w3.org/1999/xlink" viewBox="0 0 283.9 138.77"><defs><style>.cls-1{fill:url(#linear-gradient);}.cls-2{fill:url(#linear-gradient-2);}.cls-3{fill:#fff;}</style><linearGradient id="linear-gradient" x1="207.67" y1="182.96" x2="76.53" y2="-44.19" gradientUnits="userSpaceOnUse"><stop offset="0" stop-color="#fff"/><stop offset="0.02" stop-color="#eeeef0"/><stop offset="0.08" stop-color="#bfc0c9"/><stop offset="0.15" stop-color="#9597a5"/><stop offset="0.23" stop-color="#707386"/><stop offset="0.3" stop-color="#52556c"/><stop offset="0.39" stop-color="#393c56"/><stop offset="0.49" stop-color="#262946"/><stop offset="0.6" stop-color="#181c3b"/><stop offset="0.74" stop-color="#101434"/><stop offset="1" stop-color="#0e1232"/></linearGradient><linearGradient id="linear-gradient-2" x1="187.39" y1="194.67" x2="97.2" y2="38.46" gradientUnits="userSpaceOnUse"><stop offset="0" stop-color="#fff"/><stop offset="0.15" stop-color="#c7ccc8"/><stop offset="0.31" stop-color="#909b92"/><stop offset="0.47" stop-color="#637266"/><stop offset="0.62" stop-color="#405243"/><stop offset="0.77" stop-color="#273b2a"/><stop offset="0.9" stop-color="#172d1b"/><stop offset="1" stop-color="#122816"/></linearGradient></defs><title>contacto-02</title><rect class="cls-1" width="284.21" height="138.77"/><path class="cls-2" d="M0,94.58s120.65-15.43,284.21-.89v45.08H0Z"/><circle class="cls-3" cx="3.63" cy="5.58" r="0.59"/><circle class="cls-3" cx="6.86" cy="23.85" r="0.62"/><circle class="cls-3" cx="27.3" cy="13.63" r="0.39"/><circle class="cls-3" cx="5.54" cy="76.5" r="1.32"/><circle class="cls-3" cx="12.95" cy="57.68" r="0.53"/><circle class="cls-3" cx="24.09" cy="44.41" r="0.62"/><circle class="cls-3" cx="35.41" cy="35.58" r="0.53"/><circle class="cls-3" cx="58.13" cy="83.76" r="1.19"/><circle class="cls-3" cx="64.28" cy="65.82" r="1.04"/><circle class="cls-3" cx="126.54" cy="60.89" r="1.25"/><circle class="cls-3" cx="63.66" cy="38.35" r="0.62"/><circle class="cls-3" cx="41.19" cy="21.67" r="1.32"/><circle class="cls-3" cx="36.52" cy="72.43" r="0.58"/><circle class="cls-3" cx="40.13" cy="61.16" r="0.27"/><circle class="cls-3" cx="44.62" cy="56.41" r="0.3"/><circle class="cls-3" cx="82.12" cy="60.42" r="0.74"/><circle class="cls-3" cx="85.76" cy="47.79" r="0.27"/><circle class="cls-3" cx="92.03" cy="28.33" r="0.66"/><circle class="cls-3" cx="95.11" cy="17.58" r="0.36"/><circle class="cls-3" cx="94.22" cy="8.5" r="0.71"/><circle class="cls-3" cx="64.17" cy="10.66" r="0.51"/><circle class="cls-3" cx="94.49" cy="79.34" r="0.98"/><circle class="cls-3" cx="110.44" cy="57.68" r="0.53"/><circle class="cls-3" cx="109.46" cy="72.03" r="0.98"/><circle class="cls-3" cx="119.31" cy="44.72" r="0.31"/><circle class="cls-3" cx="121.49" cy="34.51" r="0.53"/><circle class="cls-3" cx="124.55" cy="22.49" r="0.74"/><circle class="cls-3" cx="103.44" cy="38.66" r="0.31"/><circle class="cls-3" cx="119.31" cy="12.94" r="0.31"/><circle class="cls-3" cx="137.23" cy="34.51" r="0.53"/><circle class="cls-3" cx="144.98" cy="25.91" r="0.44"/><circle class="cls-3" cx="139.31" cy="18.3" r="0.36"/></svg>