<svg id="Layer_1" data-name="Layer 1" xmlns="http://www.w3.org/2000/svg" xmlns:xlink="http://www.w3.org/1999/xlink" viewBox="0 0 135.05 147.12"><defs><style>.cls-1{fill:url(#linear-gradient);}.cls-2{fill:url(#linear-gradient-2);}.cls-3{fill:url(#linear-gradient-3);}.cls-4{fill:url(#linear-gradient-4);}.cls-5{fill:url(#linear-gradient-5);}.cls-6{fill:url(#linear-gradient-6);}.cls-7{fill:url(#linear-gradient-7);}.cls-8{fill:url(#linear-gradient-8);}.cls-9{fill:url(#linear-gradient-9);}.cls-10{fill:url(#linear-gradient-10);}.cls-11{fill:url(#linear-gradient-11);}.cls-12{fill:url(#linear-gradient-12);}.cls-13{fill:url(#linear-gradient-13);}.cls-14{fill:url(#linear-gradient-14);}.cls-15{fill:url(#linear-gradient-15);}.cls-16{fill:none;stroke:#000;stroke-miterlimit:10;stroke-width:0.5px;}</style><linearGradient id="linear-gradient" x1="29.55" y1="246.28" x2="29.55" y2="191.07" gradientTransform="matrix(-0.98, 0.19, 0.19, 0.98, 6.86, -106.57)" gradientUnits="userSpaceOnUse"><stop offset="0.2" stop-color="#bc5927"/><stop offset="0.75" stop-color="#eb7d2a"/></linearGradient><linearGradient id="linear-gradient-2" x1="-17.36" y1="229.7" x2="-17.36" y2="212.1" gradientTransform="matrix(-0.98, 0.19, 0.19, 0.98, 6.86, -106.57)" gradientUnits="userSpaceOnUse"><stop offset="0" stop-color="#eb7d2a"/><stop offset="0.5" stop-color="#bf5c27"/></linearGradient><linearGradient id="linear-gradient-3" x1="-43.1" y1="234.85" x2="-43.1" y2="123.02" gradientTransform="matrix(-0.98, 0.19, 0.19, 0.98, 6.86, -106.57)" gradientUnits="userSpaceOnUse"><stop offset="0.16" stop-color="#bc5927"/><stop offset="0.4" stop-color="#eb7d2a"/></linearGradient><linearGradient id="linear-gradient-4" x1="-69.9" y1="214.89" x2="-69.9" y2="151.69" gradientTransform="matrix(-0.98, 0.19, 0.19, 0.98, 6.86, -106.57)" gradientUnits="userSpaceOnUse"><stop offset="0.22" stop-color="#ddba7f"/><stop offset="0.43" stop-color="#f8d68d"/></linearGradient><linearGradient id="linear-gradient-5" x1="-54.39" y1="262.58" x2="-54.39" y2="229.7" gradientTransform="matrix(-0.98, 0.19, 0.19, 0.98, 6.86, -106.57)" gradientUnits="userSpaceOnUse"><stop offset="0" stop-color="#161616"/><stop offset="0.36" stop-color="#231f20"/></linearGradient><linearGradient id="linear-gradient-6" x1="-36.85" y1="265.36" x2="-36.85" y2="233.65" xlink:href="#linear-gradient-5"/><linearGradient id="linear-gradient-7" x1="-13.72" y1="253.26" x2="-13.72" y2="226.45" xlink:href="#linear-gradient-5"/><linearGradient id="linear-gradient-8" x1="10.18" y1="255.07" x2="10.18" y2="229.92" xlink:href="#linear-gradient-5"/><linearGradient id="linear-gradient-9" x1="-71.57" y1="166.13" x2="-71.57" y2="159.98" xlink:href="#linear-gradient-5"/><linearGradient id="linear-gradient-10" x1="-90.53" y1="149.29" x2="-90.53" y2="128.54" gradientTransform="matrix(-0.98, 0.19, 0.19, 0.98, 6.86, -106.57)" gradientUnits="userSpaceOnUse"><stop offset="0.22" stop-color="#ddba7f"/><stop offset="0.52" stop-color="#f8d68d"/></linearGradient><linearGradient id="linear-gradient-11" x1="-58.32" y1="146.53" x2="-58.32" y2="125.59" xlink:href="#linear-gradient-10"/><linearGradient id="linear-gradient-12" x1="16.54" y1="142.81" x2="16.54" y2="116.55" gradientUnits="userSpaceOnUse"><stop offset="0.35" stop-color="#ddba7f"/><stop offset="0.74" stop-color="#f8d68d"/></linearGradient><linearGradient id="linear-gradient-13" x1="105.83" y1="62.93" x2="105.83" y2="44.54" gradientUnits="userSpaceOnUse"><stop offset="0" stop-color="#fff"/><stop offset="0.01" stop-color="#fdfdfb"/><stop offset="0.08" stop-color="#f3efe0"/><stop offset="0.16" stop-color="#eae4ca"/><stop offset="0.26" stop-color="#e3dbb9"/><stop offset="0.38" stop-color="#ded5ae"/><stop offset="0.54" stop-color="#dcd2a7"/><stop offset="1" stop-color="#dbd1a5"/></linearGradient><linearGradient id="linear-gradient-14" x1="105.83" y1="53.74" x2="105.83" y2="44.54" gradientUnits="userSpaceOnUse"><stop offset="0" stop-color="#fff"/><stop offset="0.22" stop-color="#fffefa"/><stop offset="0.48" stop-color="#fefbec"/><stop offset="0.76" stop-color="#fdf5d4"/><stop offset="1" stop-color="#fcefba"/></linearGradient><linearGradient id="linear-gradient-15" x1="102.8" y1="53.55" x2="110.19" y2="53.55" gradientUnits="userSpaceOnUse"><stop offset="0" stop-color="#d66b6b"/><stop offset="0.04" stop-color="#d46768"/><stop offset="0.45" stop-color="#c3424a"/><stop offset="0.79" stop-color="#b92b38"/><stop offset="1" stop-color="#b52331"/></linearGradient></defs><title>contacto</title><path class="cls-1" d="M.44,135.08s.36,8.1,12.57,7.71a30.14,30.14,0,0,0,20.06-10.33,29.48,29.48,0,0,0,4.78-8.13L39,103.58,32.51,89.76l-3.42-6.07a69.78,69.78,0,0,1-9.75,32.85h0a69.49,69.49,0,0,1-6,8.63S-2.42,126.21.44,135.08Z"/><path class="cls-2" d="M65.59,115.92s6.75.42,6.27-7l.71-12.12-15.8,3s4.46,8.92,2.73,10.16c0,0-3.22,2.31-2.44,4.39Z"/><path class="cls-3" d="M29.5,85.62a251.83,251.83,0,0,0,7.83,26.12s-1.47,3.94-.07,10c0,0,2.44,2.54,6.82.79,0,0,8.42-.41,8.79-19.84,0,0,2.07-2.88,22.2-5,0,0,6.69,19.39,7.29,20.46,0,0,6.12-.77,6-2.31,0,0-1.86-18-2-19.1h0l11.56-1.8,2.91,16.71s5.37-.63,5.6-3.55c0,0-.18-7.16,7.52-21,0,0,1-.33,3.13-21.38,0,0,1.16-7.54,5.19-13h0a13.45,13.45,0,0,1,1-1.24s10.95-14.64,11.87-18.08c0,0-5.45-7.33-8.93-9.16a41.47,41.47,0,0,0,1-24.13s-10.87,6.11-13.91,18.33c0,0-2-1-14.21,1.66C99,20,89,5.14,85.49,3.72c0,0-3.26,8.34.14,24.17,0,0-5.93,3.87-7.67,6.43h0c.24.31,6.2,7.87,6.4,9.63,0,0-8.91,6.79-13.26,8A58.28,58.28,0,0,1,57.8,57S24.1,66.12,29.5,85.62Z"/><path class="cls-4" d="M86.08,96.72l.19,0,11.56-1.8A66.26,66.26,0,0,0,111.09,73.8c4.8-12.62,5.5-14.77,7.29-17.07a33.26,33.26,0,0,1,3.81-4.12,13.45,13.45,0,0,1,1-1.24c3.53-4.72,7.06-9.52,10.1-14.57.58-1,1.83-2.56,1.74-3.72-.9.05-1.84.78-2.79.93a12.4,12.4,0,0,1-4.25-.16c-2.11-.4-4.18-1.09-6.33-1.28-4.41-.38-7.6,2.34-10,5.8l-4.27,5.06c.22-.26-5.13-4.94-5.5-5.24a14.6,14.6,0,0,0-11.18-3.66,32.51,32.51,0,0,1-6.31.22c-2.16-.26-4.25-.8-6.46-.42A51.87,51.87,0,0,0,84.37,44s5.37,8.66,8.85,13.55C93.22,57.51,100.93,75.07,86.08,96.72Z"/><path class="cls-5" d="M106.3,108.36s.81,27.14,1.27,29.6c0,0,3.86.32,2.94,2.72a8,8,0,0,1-4.48.85l-5.29-29.93Z"/><path class="cls-6" d="M88.32,115.79l5.25,27.64s3.74.08,3.23,2.53c0,0-2.89,1.66-5.37,1L82.35,118.1Z"/><path class="cls-7" d="M65.59,115.92l3.73,19.61s4.22,1.24,3.54,2.81a6,6,0,0,1-4.11.78L57.06,114.4Z"/><path class="cls-8" d="M42.6,122.94l2.13,20.17s2.65.85,1.85,1.92c0,0-.56,1.19-3.92.74l-5.4-24.08Z"/><path class="cls-9" d="M107.42,43.44s5-4.62,4.53-5.44c-.72-1.22-3.26-.92-4.39-.79a12.16,12.16,0,0,0-2.74.58c-.53.18-2.06.64-2.24,1.25a.58.58,0,0,0,.13.53A15.46,15.46,0,0,0,107.42,43.44Z"/><path class="cls-10" d="M126.79,1.51s-9.91,12.21-11.25,17.56l8.81,4S130.09,15.79,126.79,1.51Z"/><path class="cls-11" d="M95.35,20.49S90.57,8.77,86.73,6.1c0,0-4.3,3.89,0,21.31Z"/><path d="M100.43,32.29a1.46,1.46,0,0,1-.48,1,4.72,4.72,0,0,0-3.61-1.61,5.82,5.82,0,0,0-1.7.16c.22-.92,1.47-1.58,3-1.51S100.47,31.26,100.43,32.29Z"/><path d="M112.93,31.71a1.58,1.58,0,0,0,.59,1,4.56,4.56,0,0,1,3.41-2.08,5.76,5.76,0,0,1,1.71,0c-.32-1-1.65-1.54-3.12-1.32S112.77,30.61,112.93,31.71Z"/><path class="cls-12" d="M33.07,132.46A30.14,30.14,0,0,1,13,142.79a20.82,20.82,0,0,1-4.32-.26,11,11,0,0,1-5.83-2.68A9.09,9.09,0,0,1,.35,135.1a9.45,9.45,0,0,1-.26-3.38c.36-1.9,2.13-3.17,3.82-4.06a8.28,8.28,0,0,0-2.6-1.32s3.58-.43,5.14.21a26,26,0,0,1,6.88-1.37,69.49,69.49,0,0,0,6-8.63,16.71,16.71,0,0,0,2.75,10c2.31,3.15,4.9,3.06,4.9,3.06-4,2.65-2.5,3.74-2.5,3.74C26.56,134.58,32.67,132.58,33.07,132.46Z"/><path class="cls-13" d="M124.38,44.54V60.77a2.16,2.16,0,0,1-2.16,2.16H89.43a2.16,2.16,0,0,1-2.16-2.16V44.54h11.4c3.65,1.22,6,.69,7.31,0h3.19a5.45,5.45,0,0,0,3.15,0Z"/><path class="cls-14" d="M124.38,44.54s-13.85,9.36-18.56,9.2-18.55-9.2-18.55-9.2h11.4c3.65,1.22,6,.69,7.31,0h3.19a5.45,5.45,0,0,0,3.15,0Z"/><path class="cls-15" d="M108.22,57a4.07,4.07,0,0,1-2,.45A3.35,3.35,0,0,1,102.8,54a4.11,4.11,0,0,1,4.11-4.32,3.13,3.13,0,0,1,3.28,3.25c0,1.69-1,2.68-2,2.68a.84.84,0,0,1-.84-1h0a1.78,1.78,0,0,1-1.59,1,1.28,1.28,0,0,1-1.22-1.42,2.66,2.66,0,0,1,2.67-2.67,2.92,2.92,0,0,1,1.21.24l-.39,2c-.16.85,0,1.25.34,1.26.58,0,1.22-.76,1.22-2.06a2.59,2.59,0,0,0-2.73-2.81,3.47,3.47,0,0,0-3.38,3.74,2.82,2.82,0,0,0,2.9,3,3.5,3.5,0,0,0,1.7-.39Zm-.62-4.86a1.7,1.7,0,0,0-.56-.08,1.93,1.93,0,0,0-1.79,2c0,.49.24.85.74.85.65,0,1.25-.83,1.37-1.53Z"/><path class="cls-16" d="M116.19,42.58a11.79,11.79,0,0,1-3.87,2,5.45,5.45,0,0,1-3.15,0,4.43,4.43,0,0,1-1.75-1.1,4.35,4.35,0,0,1-1.44,1.1c-1.33.69-3.66,1.22-7.31,0l-.07,0"/></svg>