<svg id="Layer_1" data-name="Layer 1" xmlns="http://www.w3.org/2000/svg" viewBox="0 0 245.23 275.98"><defs><style>.cls-1{fill:#fff;}</style></defs><title>enviado</title><path class="cls-1" d="M17.51,274.44V2H228.17v272.4ZM194,235.13c-.05-.88-.1-2.4-.19-3.92a28.39,28.39,0,0,0-6.17-16.37A78,78,0,0,0,175.2,202.9a100.74,100.74,0,0,1-15.71-15,105.07,105.07,0,0,0-10.31-11,79.23,79.23,0,0,0-13-10.29,20.76,20.76,0,0,0-16-2.37c-4.44,1-8.22,3.45-11.77,6.19a182,182,0,0,0-23.39,22C79.51,198.6,74,204.65,68,210.27a71.32,71.32,0,0,0-7,7.79c-4.74,6-7.55,12.67-6.92,20.49.36,4.45,1.5,8.61,4.42,12.14a32.38,32.38,0,0,0,15.73,10.5,14.57,14.57,0,0,0,10.2-.25c2.13-.87,4.29-1.67,6.42-2.56,5.54-2.33,11-4.76,16.62-7A44.58,44.58,0,0,1,120,248.3,33.8,33.8,0,0,1,135.83,251a135.53,135.53,0,0,1,15.25,7.86A93.24,93.24,0,0,0,166,266.09c5.26,1.82,10.38,1.85,15.29-1a22,22,0,0,0,8.4-9.43C192.89,249.38,193.94,242.68,194,235.13ZM131.55,72.44c.11,2.72.14,5.44.36,8.15.4,4.91.78,9.84,1.41,14.72.52,4,2,7.71,5.19,10.34a61.23,61.23,0,0,0,7.2,4.95,10.18,10.18,0,0,0,6.87,1.17,33.65,33.65,0,0,0,16-6.6,20.25,20.25,0,0,0,8.23-14.5,47.29,47.29,0,0,0-.55-11.7c-2-13-7.43-24.13-17.08-33.12a37.35,37.35,0,0,0-8.69-6.32c-7.07-3.53-13.65.94-15.67,5.79a36.3,36.3,0,0,0-2.26,8.07A101.2,101.2,0,0,0,131.55,72.44ZM102.64,91.79l.28,0c-.5-6.26-.88-12.53-1.53-18.78-.62-6-1.49-12-2.34-18.07A41.59,41.59,0,0,0,97.67,48c-1.62-5.13-5.48-7.8-10.55-8.95a8.43,8.43,0,0,0-5.31.5,17.27,17.27,0,0,0-5,3.51,69.41,69.41,0,0,0-9.51,11.89c-8.09,12.18-11.12,25.44-8.56,39.9.85,4.79,2.74,9,6.64,12.18a21.61,21.61,0,0,0,9.17,4.56,29.33,29.33,0,0,0,10.6.69c6.43-1,11.29-4.52,15.34-9.37a7.88,7.88,0,0,0,2.15-5.15C102.64,95.76,102.64,93.77,102.64,91.79Zm123.93,49.07c-.23-2.91-.33-5.83-.71-8.72a36.85,36.85,0,0,0-5.34-15.44c-3.06-4.75-7-8.06-13.08-8.11-2.56,0-4.67.7-6.14,2.84-1.15,1.68-2.27,3.4-3.27,5.18-4.8,8.56-9.51,17.16-14.88,25.39a22.06,22.06,0,0,0-2.36,4.86c-1.32,3.92-1.57,7.91.17,11.8a28.69,28.69,0,0,0,5.54,7.83,29,29,0,0,0,8.29,6.38c5.93,2.92,16.58,1.4,21.56-4.64.35-.43.76-.82,1.12-1.24,2.6-3.06,5-6.24,6.36-10.09A59.27,59.27,0,0,0,226.57,140.86ZM69.11,167a41.81,41.81,0,0,0-4.84-18.68,70.82,70.82,0,0,0-18.15-21.13,28.94,28.94,0,0,0-8.78-5,10.29,10.29,0,0,0-10.86,2.08,18.44,18.44,0,0,0-3.23,3.66c-4,6.21-5.15,13.09-4.22,20.32a44.09,44.09,0,0,0,8,19.69c5.19,7.45,11.86,12.64,21.15,13.89,5.69.77,11-.09,15.79-3.42A10.9,10.9,0,0,0,68.68,171C68.92,169.69,69,168.31,69.11,167Zm25-147.9H94c0-1.05,0-2.11,0-3.16-.06-1.6-.08-3.21-.26-4.81-.16-1.43-.77-1.68-2-1A11.43,11.43,0,0,0,87.9,13.2a30.29,30.29,0,0,0-5.69,12.58c-.82,3.71,1.61,6.52,5.39,6.3l.87-.06c3.74-.29,5.09-1.61,5.33-5.35C94,24.13,94,21.59,94.1,19.05Zm57.65,7.06h0c-.05-.49-.07-1-.16-1.48A25.46,25.46,0,0,0,143.43,10c-.79-.72-1.65-1.59-2.84-1.18s-1.34,1.62-1.51,2.67A44.51,44.51,0,0,0,139,23c.33,3.2,1.5,4.32,4.66,4.81,2,.31,4,.49,6,.79,1.56.24,2-.07,2.14-1.66A8.42,8.42,0,0,0,151.75,26.11Zm66.9,73.94-.14,0c0-.44,0-.87,0-1.31a5.83,5.83,0,0,0-.09-.7,40.43,40.43,0,0,0-4.18-12.74,10.75,10.75,0,0,0-1.71-2.41,1.19,1.19,0,0,0-2.07.19,7.13,7.13,0,0,0-1,2.1c-.64,2.33-1.24,4.68-1.72,7a56.92,56.92,0,0,0-.94,6.22c-.15,1.64.56,2.28,2.2,2.38.9.06,1.81,0,2.71.17,1.92.26,3.9.38,5.41,1.9.52.52,1,.16,1.18-.43A24,24,0,0,0,218.65,100.05ZM21.79,109.17a5.42,5.42,0,0,0,0,1.14,12.64,12.64,0,0,0,.51,1.58,7.38,7.38,0,0,0,1.54-.69,14.16,14.16,0,0,1,7.83-2.7c1.3-.07,1.83-.56,1.74-1.87A15.43,15.43,0,0,0,31.76,100c-.9-1.63-1.76-3.29-2.64-4.94a1.78,1.78,0,0,0-.17-.3,3.12,3.12,0,0,0-2.66-1.45c-.92.06-1.12,1-1.37,1.75-.52,1.46-1,2.94-1.37,4.43A39.57,39.57,0,0,0,21.79,109.17Z"/><path d="M194,235.13c-.05,7.55-1.1,14.25-4.27,20.49a22,22,0,0,1-8.4,9.43c-4.91,2.89-10,2.86-15.29,1a93.24,93.24,0,0,1-14.95-7.24A135.53,135.53,0,0,0,135.83,251,33.8,33.8,0,0,0,120,248.3a44.58,44.58,0,0,0-12.63,3.09c-5.58,2.23-11.08,4.66-16.62,7-2.13.89-4.29,1.69-6.42,2.56a14.57,14.57,0,0,1-10.2.25,32.38,32.38,0,0,1-15.73-10.5c-2.92-3.53-4.06-7.69-4.42-12.14-.63-7.82,2.18-14.52,6.92-20.49a71.32,71.32,0,0,1,7-7.79c6-5.62,11.55-11.67,17.07-17.76a182,182,0,0,1,23.39-22c3.55-2.74,7.33-5.15,11.77-6.19a20.76,20.76,0,0,1,16,2.37,79.23,79.23,0,0,1,13,10.29,105.07,105.07,0,0,1,10.31,11,100.74,100.74,0,0,0,15.71,15,78,78,0,0,1,12.43,11.94,28.39,28.39,0,0,1,6.17,16.37C193.89,232.73,193.94,234.25,194,235.13Z"/><path d="M131.55,72.44a101.2,101.2,0,0,1,1-19,36.3,36.3,0,0,1,2.26-8.07c2-4.85,8.6-9.32,15.67-5.79a37.35,37.35,0,0,1,8.69,6.32c9.65,9,15.1,20.17,17.08,33.12a47.29,47.29,0,0,1,.55,11.7,20.25,20.25,0,0,1-8.23,14.5,33.65,33.65,0,0,1-16,6.6,10.18,10.18,0,0,1-6.87-1.17,61.23,61.23,0,0,1-7.2-4.95c-3.2-2.63-4.67-6.35-5.19-10.34-.63-4.88-1-9.81-1.41-14.72C131.69,77.88,131.66,75.16,131.55,72.44Z"/><path d="M102.64,91.79c0,2,0,4,0,5.95a7.88,7.88,0,0,1-2.15,5.15c-4,4.85-8.91,8.39-15.34,9.37a29.33,29.33,0,0,1-10.6-.69A21.61,21.61,0,0,1,65.39,107c-3.9-3.13-5.79-7.39-6.64-12.18-2.56-14.46.47-27.72,8.56-39.9A69.41,69.41,0,0,1,76.82,43a17.27,17.27,0,0,1,5-3.51,8.43,8.43,0,0,1,5.31-.5c5.07,1.15,8.93,3.82,10.55,8.95a41.59,41.59,0,0,1,1.38,6.94c.85,6,1.72,12,2.34,18.07.65,6.25,1,12.52,1.53,18.78Z"/><path d="M226.57,140.86a59.27,59.27,0,0,1-2.74,16c-1.35,3.85-3.76,7-6.36,10.09-.36.42-.77.81-1.12,1.24-5,6-15.63,7.56-21.56,4.64a29,29,0,0,1-8.29-6.38,28.69,28.69,0,0,1-5.54-7.83c-1.74-3.89-1.49-7.88-.17-11.8a22.06,22.06,0,0,1,2.36-4.86c5.37-8.23,10.08-16.83,14.88-25.39,1-1.78,2.12-3.5,3.27-5.18,1.47-2.14,3.58-2.87,6.14-2.84,6.05,0,10,3.36,13.08,8.11a36.85,36.85,0,0,1,5.34,15.44C226.24,135,226.34,138,226.57,140.86Z"/><path d="M69.11,167c-.13,1.36-.19,2.74-.43,4.09A10.9,10.9,0,0,1,64,178.33c-4.8,3.33-10.1,4.19-15.79,3.42-9.29-1.25-16-6.44-21.15-13.89a44.09,44.09,0,0,1-8-19.69c-.93-7.23.19-14.11,4.22-20.32a18.44,18.44,0,0,1,3.23-3.66,10.29,10.29,0,0,1,10.86-2.08,28.94,28.94,0,0,1,8.78,5,70.82,70.82,0,0,1,18.15,21.13A41.81,41.81,0,0,1,69.11,167Z"/><path d="M94.1,19.05c-.09,2.54-.13,5.08-.3,7.62-.24,3.74-1.59,5.06-5.33,5.35l-.87.06c-3.78.22-6.21-2.59-5.39-6.3A30.29,30.29,0,0,1,87.9,13.2a11.43,11.43,0,0,1,3.82-3.15c1.27-.65,1.88-.4,2,1,.18,1.6.2,3.21.26,4.81,0,1.05,0,2.11,0,3.16Z"/><path d="M151.75,26.11a8.42,8.42,0,0,1,0,.87c-.12,1.59-.58,1.9-2.14,1.66-2-.3-4-.48-6-.79-3.16-.49-4.33-1.61-4.66-4.81a44.51,44.51,0,0,1,.13-11.53c.17-1,.32-2.26,1.51-2.67s2,.46,2.84,1.18a25.46,25.46,0,0,1,8.19,14.6c.09.49.11,1,.16,1.48Z"/><path d="M218.65,100.05a24,24,0,0,1-.41,2.4c-.15.59-.66,1-1.18.43-1.51-1.52-3.49-1.64-5.41-1.9-.9-.12-1.81-.11-2.71-.17-1.64-.1-2.35-.74-2.2-2.38a56.92,56.92,0,0,1,.94-6.22c.48-2.37,1.08-4.72,1.72-7a7.13,7.13,0,0,1,1-2.1,1.19,1.19,0,0,1,2.07-.19,10.75,10.75,0,0,1,1.71,2.41A40.43,40.43,0,0,1,218.41,98a5.83,5.83,0,0,1,.09.7c0,.44,0,.87,0,1.31Z"/><path d="M21.79,109.17a39.57,39.57,0,0,1,1.76-9.7c.41-1.49.85-3,1.37-4.43.25-.71.45-1.69,1.37-1.75A3.12,3.12,0,0,1,29,94.74a1.78,1.78,0,0,1,.17.3c.88,1.65,1.74,3.31,2.64,4.94a15.43,15.43,0,0,1,1.67,6.65c.09,1.31-.44,1.8-1.74,1.87a14.16,14.16,0,0,0-7.83,2.7,7.38,7.38,0,0,1-1.54.69,12.64,12.64,0,0,1-.51-1.58A5.42,5.42,0,0,1,21.79,109.17Z"/></svg>