<svg id="Layer_1" data-name="Layer 1" xmlns="http://www.w3.org/2000/svg" xmlns:xlink="http://www.w3.org/1999/xlink" viewBox="0 0 188.67 138.77"><defs><style>.cls-1{fill:url(#linear-gradient);}.cls-2{fill:url(#linear-gradient-2);}.cls-3{fill:url(#linear-gradient-3);}.cls-4{fill:url(#linear-gradient-4);}.cls-5{fill:url(#linear-gradient-5);}.cls-6{fill:url(#linear-gradient-6);}.cls-7{fill:url(#linear-gradient-7);}.cls-8{fill:url(#linear-gradient-8);}.cls-9{fill:url(#linear-gradient-9);}.cls-10{fill:none;stroke:#231f20;stroke-miterlimit:10;stroke-width:0.5px;}.cls-11{fill:#231f20;}.cls-12{fill:url(#linear-gradient-10);}.cls-13{fill:url(#linear-gradient-11);}</style><linearGradient id="linear-gradient" x1="-830.21" y1="10.8" x2="-830.21" y2="36.46" gradientTransform="matrix(1, 0, 0, -1, 957.93, 140)" gradientUnits="userSpaceOnUse"><stop offset="0.59" stop-color="#ec7d2a"/><stop offset="0.88" stop-color="#bc5927"/></linearGradient><linearGradient id="linear-gradient-2" x1="-831.98" y1="10.69" x2="-831.98" y2="29.94" gradientTransform="matrix(1, 0, 0, -1, 957.93, 140)" gradientUnits="userSpaceOnUse"><stop offset="0" stop-color="#171717"/><stop offset="0.36" stop-color="#231f20"/></linearGradient><linearGradient id="linear-gradient-3" x1="-911.78" y1="21.66" x2="-911.78" y2="67.16" gradientTransform="matrix(1, 0, 0, -1, 957.93, 140)" gradientUnits="userSpaceOnUse"><stop offset="0.3" stop-color="#bc5927"/><stop offset="1" stop-color="#e37729"/></linearGradient><linearGradient id="linear-gradient-4" x1="-937.08" y1="26.53" x2="-937.08" y2="65.13" gradientTransform="matrix(1, 0, 0, -1, 957.93, 140)" gradientUnits="userSpaceOnUse"><stop offset="0.35" stop-color="#ddbb7f"/><stop offset="0.74" stop-color="#f9d78e"/></linearGradient><linearGradient id="linear-gradient-5" x1="-822.78" y1="1.91" x2="-822.78" y2="140" gradientTransform="matrix(1, 0, 0, -1, 957.93, 140)" gradientUnits="userSpaceOnUse"><stop offset="0.24" stop-color="#bc5927"/><stop offset="0.47" stop-color="#ec7d2a"/></linearGradient><linearGradient id="linear-gradient-6" x1="-861.97" y1="3.06" x2="-861.97" y2="26.6" xlink:href="#linear-gradient-2"/><linearGradient id="linear-gradient-7" x1="-797.47" y1="30.55" x2="-797.47" y2="110.79" gradientTransform="matrix(1, 0, 0, -1, 957.93, 140)" gradientUnits="userSpaceOnUse"><stop offset="0.22" stop-color="#ddbb7f"/><stop offset="0.43" stop-color="#f9d78e"/></linearGradient><linearGradient id="linear-gradient-8" x1="-815.55" y1="23.49" x2="-815.55" y2="48.67" xlink:href="#linear-gradient-2"/><linearGradient id="linear-gradient-9" x1="-794.18" y1="1.23" x2="-794.18" y2="32.52" xlink:href="#linear-gradient-2"/><linearGradient id="linear-gradient-10" x1="-806.59" y1="120.38" x2="-806.59" y2="134.94" gradientTransform="matrix(1, 0, 0, -1, 957.93, 140)" gradientUnits="userSpaceOnUse"><stop offset="0.22" stop-color="#ddbb7f"/><stop offset="0.52" stop-color="#f9d78e"/></linearGradient><linearGradient id="linear-gradient-11" x1="-788.22" y1="122.44" x2="-788.22" y2="137.75" xlink:href="#linear-gradient-10"/></defs><title>sobremi</title><path class="cls-1" d="M129.8,111.79h0c1.73-.9,6.27-3.89,5.12-8.15l-14.59-.1a4.38,4.38,0,0,1,.41,6.15s.32.89.43,1.13c1.16,2.24,3.62,12,6.16,17.78,0,0,1,1.34,3.47,0,0,0,.48-1.5-2.18-1.82,0,0-1.75-12.2.17-14.78A2.94,2.94,0,0,0,129.8,111.79Z"/><path class="cls-2" d="M128.9,126.75s-1.67-12.08.26-14.66l.63-.31-8.94-1.72c.63,2.18,3.85,13,6.38,18.77,0,0,1.34,1.17,3.76-.16C131,128.67,131.56,127.07,128.9,126.75Z"/><path class="cls-3" d="M86.85,72.84c-25.51,17.5-36.51,15-49,14.25A16.3,16.3,0,0,1,32.69,86c-7.63-3-8.34-11.13-8.34-11.13l-1.75,5.5C15.76,74.68,6.07,74.5,3.76,84.92A18.92,18.92,0,0,0,5.68,97.1c4.43,9,11.68,16,22.1,16.37h.7c3.41.06,11.88-.27,13.62-2.88-1.5,2.25,1.24,7.75,1.24,7.75,0-4,9.75-8,9.75-8,24.49-5.25,35.74-17.49,35.74-17.49Z"/><path class="cls-4" d="M38.22,100s-7-12.81-5.53-14c-7.63-3-8.34-11.13-8.34-11.13l-1.75,5.5C15.76,74.68,6.07,74.5,3.76,84.92A18.92,18.92,0,0,0,5.68,97.1c4.43,9,11.68,16,22.1,16.37h.7a27.54,27.54,0,0,1,5.74-5.87s-2.25-3.26-1.37-5S34.35,99,38.22,100Z"/><path class="cls-5" d="M183.61,40.44c-.16-1.5-.36-3-.6-4.45-.11-.61-.21-1.21-.32-1.8C177.91,8.13,166.69,0,166.69,0l-1.63,16.83a51.48,51.48,0,0,0-9.37.5c-.12-7.37-4.75-13.62-4.75-13.62-4.5,4.5-3.12,17.12-3.12,17.12.07,1.29-1.62,3.84-3.75,6.5-.18.23-.35.45-.54.67l-.27.43c-3.4,4.11-7.4,8.11-7.4,8.11-.92,1.94,2.08,4.49,2.08,4.49-.16,2.32,8.08,4.64,10.63,5.32l.37.09h.18l.2.05c0,4.51-6.25,8.55-11,11.29s-28.37,2.49-28.37,2.49c-20.51,1.38-23,12.62-23,12.62-2.51,16.87,2,26.87,3.37,30.87a11.18,11.18,0,0,1,.25,7c-2.75,2.62-1.88,3-1.88,3,0,5,11.32,23,11.32,23a3.86,3.86,0,0,0,2.77-.56c2.35-1.5-1.79-3-2.65-3.27s-5.2-16.5-5.34-17h.15c12.62-1.63,13.13-13.88,13.13-13.88,9.53,2.21,28.25,1.68,34,1.45l1.71-.07h.15a2.38,2.38,0,0,1,.3.18l.37.16h0a15.69,15.69,0,0,1,2.36,1.5c.8.64,1.77,1,2.57,1.64.17.14.21.42.39.5s.31.26.49.33a3.56,3.56,0,0,1,1,.53,7.06,7.06,0,0,1,.72.63c.11.12.12.37.22.5a2.1,2.1,0,0,1,.13.55,2.66,2.66,0,0,1,0,.69c0,.25-.28.5-.28.75,0,.56.1,1,.1,1.56a4,4,0,0,0,.35,1.84c.22.49.52.5.85.69s.11-1.11.33-1.38.35.8.47.48a3.67,3.67,0,0,0,.2-1.77,5.53,5.53,0,0,0,0-1.86,17.07,17.07,0,0,0-.49-1.73,19.1,19.1,0,0,0-1-2.09c-.41-.77-1.49-1.89-1.81-2.68a29.17,29.17,0,0,0,3.37.53,8,8,0,0,0,2.31-.49,19.52,19.52,0,0,0,3.7-1.28h.05a8.69,8.69,0,0,0,.84-.66,24.61,24.61,0,0,0-1.62,8.78c-.29,10.9-2.79,25.32-2.79,25.32.24,2.12,3.91,1.19,3.91,1.19,1.12-1.88-2.33-2.36-2.33-2.36l12.56-28.06C176,99.3,186.49,67.16,183.61,40.44Z"/><path class="cls-6" d="M100.16,132.77c-.88-.25-5.31-16.58-5.45-17.09h0c-1.18-2.08-6.34-2.28-6.34-2.28,0,5.06,11.15,23.43,11.15,23.43a6.31,6.31,0,0,0,3.3-.38C105.23,134.93,101,133,100.16,132.77Z"/><path class="cls-7" d="M185.14,36.08q-1.15-1-2.4-1.92c-.57-.41-1.15-.8-1.75-1.16a27.24,27.24,0,0,0-13.81-3.66,29.37,29.37,0,0,0-14,3.3,57.51,57.51,0,0,1-5.37,2.72A16.07,16.07,0,0,1,143,36q-3.56.3-7.11.56C135,38.52,138,41.07,138,41.07c-.16,2.32,8.08,4.64,10.63,5.32l.37.09h.18l.2.05c5.15,1.53,5.87,9.12,5.87,9.12,1.5,9.12-1.12,20.62-1.12,20.62-1.48,11.87-10,20.68-10,20.68l-1.75,5.63h0l-.3,1,1.71-.07h.25c.11,0,.08.11.2.17l.37.16h0a19.39,19.39,0,0,1,2.07,1.3l.22.15h0a19.27,19.27,0,0,1,1.61,1.25l.23.19.1.08c.19.16.64-.36.82-.2v.46a9,9,0,0,1,2.69,2.38c.56-.36.71-.32,1.3-.75v-.07c-.06-.15-.28-.24-.35-.39s-.22-.15-.29-.38,0-.59,0-.69-.26-.16-.26-.25c-.29-.5-.79-.91-1-1.26,0-.06.17-.06.06-.24s-.12-.32-.19-.42l-.18-.1h0c0-.06.33-.21.33-.21h0c3.73,1.47,7.17-.35,8.73-1.43h.05c15.1-14,14.3-52.48,14.3-52.48,4.84-4.66,7.4-8,8.77-10.34C185.46,37.36,185.14,36.08,185.14,36.08Z"/><path class="cls-8" d="M153.9,108.7h0c-.07-.15-.14-.31-.22-.46l-.21-.44c-.11-.23-.29-.55-.33-.65s-.14-.19-.14-.28c-.28-.51-.54-.94-.75-1.29a1.74,1.74,0,0,1-.11-.18l-.29-.43v-.09h0v0h0A64.4,64.4,0,0,0,144.08,97c-3.31-2.94-6.31-5.4-6.31-5.4-5.07-1.16-8.16,3.75-8.16,3.75,1.92.9,3.59,2,5.52,3.08s3.82,2.13,5.69,3.26l1.51.94,1.5,1h0l1.12.73.26.17c1.35.9,2.68,1.83,4,2.75l.23.16v.05a10.13,10.13,0,0,1,2.83,2.51v.13a.54.54,0,0,1,0,.18v.41a12,12,0,0,0-.17,3.05.29.29,0,0,0,0,.13,2.48,2.48,0,0,0,.06.54,2.33,2.33,0,0,0,.08.36h0a1,1,0,0,0,.06.25v.09l.12.31a1.53,1.53,0,0,0,.21.37c.05.08.15.14.15.21l.08.08h0a.43.43,0,0,0,.12.11l.19.13a.94.94,0,0,0,.23.1h.12c.19,0,.54.1.62,0C155.84,114.36,155.09,111.2,153.9,108.7Z"/><path class="cls-9" d="M159.06,135.34l12.12-27.86-11.38,3.9h0c-1.54,10.38-3.49,26.2-3.49,26.2.25,2.13,5.13.76,5.13.76C162.56,136.46,159.06,135.34,159.06,135.34Z"/><path class="cls-10" d="M157.06,42c-5.75,1.45-13.73,1.73-19.12-1"/><path class="cls-11" d="M136.81,37.27c1.77.2,3-1.56,3.59-3,.16-.4,0-.47-.31-.57s-.78-.24-1.17-.33a8.4,8.4,0,0,0-2.29-.12,7,7,0,0,0-2,.34c-.85.38-.49,1.41-.17,2a3.28,3.28,0,0,0,1.7,1.6A2.18,2.18,0,0,0,136.81,37.27Z"/><path class="cls-11" d="M155.74,26.86h0a3.26,3.26,0,0,0-3,3.52,1.78,1.78,0,0,0,.07.39,4.3,4.3,0,0,1,6.08-2.13A3.23,3.23,0,0,0,155.74,26.86Z"/><path class="cls-12" d="M150.94,5.06c4.68,8.18,2.93,12.75,2.93,12.75-2.62-.5-5.24,1.81-5.24,1.81C147.81,8.25,150.94,5.06,150.94,5.06Z"/><path class="cls-13" d="M173.37,17.56c.69-5.88-6.06-15.31-6.06-15.31C167.93,4.5,166,17.56,166,17.56Z"/></svg>