<svg id="Layer_1" data-name="Layer 1" xmlns="http://www.w3.org/2000/svg" xmlns:xlink="http://www.w3.org/1999/xlink" viewBox="0 0 283.9 138.77"><defs><style>.cls-1{fill:url(#linear-gradient);}.cls-2{fill:url(#linear-gradient-2);}</style><linearGradient id="linear-gradient" x1="207.49" y1="182.89" x2="76.42" y2="-44.12" gradientUnits="userSpaceOnUse"><stop offset="0.33" stop-color="#fff"/><stop offset="0.53" stop-color="#daeff9"/><stop offset="0.96" stop-color="#7ec5eb"/><stop offset="1" stop-color="#75c1ea"/></linearGradient><linearGradient id="linear-gradient-2" x1="187.01" y1="194.72" x2="101.47" y2="46.57" gradientUnits="userSpaceOnUse"><stop offset="0.01" stop-color="#fff"/><stop offset="0.39" stop-color="#fdfdfd"/><stop offset="0.53" stop-color="#f7f7f6"/><stop offset="0.62" stop-color="#ededeb"/><stop offset="0.67" stop-color="#e5e5e1"/><stop offset="0.75" stop-color="#e2e3e0"/><stop offset="0.81" stop-color="#d8dddc"/><stop offset="0.86" stop-color="#c7d2d6"/><stop offset="0.91" stop-color="#b0c4ce"/><stop offset="0.96" stop-color="#92b1c3"/><stop offset="1" stop-color="#719cb7"/></linearGradient></defs><title>zorro-02</title><rect class="cls-1" width="283.9" height="138.77"/><path class="cls-2" d="M0,106.27c0-.38.43-.69.63-1,1.91-2.52,7.51-4,10.41-4.74a53.28,53.28,0,0,1,12-1.71c8.19-.31,16.38.7,24.57.67,2.22,0,4.7.33,6.88,0,3.26-.5,6.66-2.24,9.84-3.17A171.24,171.24,0,0,1,126.67,90c22.23,1.83,43.86,8,65.91,11.36,17.23,2.64,35.17,3.54,52.22-.7a79.3,79.3,0,0,0,12.46-4.18c3.8-1.66,7.77-2.09,12-2.31a66.54,66.54,0,0,1,14.66.47v44.18H0V116.2C0,113.78-.08,109.5,0,106.27Z"/></svg>