<svg id="Layer_1" data-name="Layer 1" xmlns="http://www.w3.org/2000/svg" xmlns:xlink="http://www.w3.org/1999/xlink" viewBox="0 0 147.68 67.69"><defs><style>.cls-1{fill:url(#linear-gradient);}.cls-2{fill:url(#linear-gradient-2);}.cls-3{fill:url(#linear-gradient-3);}.cls-4{fill:url(#linear-gradient-4);}.cls-5{fill:url(#linear-gradient-5);}.cls-6{fill:url(#linear-gradient-6);}.cls-7{fill:url(#linear-gradient-7);}.cls-8{fill:url(#linear-gradient-8);}.cls-9{fill:url(#linear-gradient-9);}.cls-10{fill:url(#linear-gradient-10);}.cls-11{fill:url(#linear-gradient-11);}.cls-12{fill:url(#linear-gradient-12);}.cls-13{fill:url(#linear-gradient-13);}.cls-14{fill:url(#linear-gradient-14);}.cls-15{fill:#231f20;}</style><linearGradient id="linear-gradient" x1="-66.42" y1="261.13" x2="-66.42" y2="239.06" gradientTransform="matrix(-0.97, 0.23, 0.23, 0.97, 14.86, -185.5)" gradientUnits="userSpaceOnUse"><stop offset="0.17" stop-color="#e02e4e"/><stop offset="0.69" stop-color="#dd2b29"/></linearGradient><linearGradient id="linear-gradient-2" x1="-3347.51" y1="984.05" x2="-3347.51" y2="965.2" gradientTransform="matrix(-0.96, 0.27, 0.27, 0.96, -3414.46, 19.9)" gradientUnits="userSpaceOnUse"><stop offset="0" stop-color="#171717"/><stop offset="0.36" stop-color="#231f20"/></linearGradient><linearGradient id="linear-gradient-3" x1="-3349.07" y1="973.17" x2="-3349.07" y2="955.24" gradientTransform="matrix(-0.96, 0.27, 0.27, 0.96, -3414.46, 19.9)" gradientUnits="userSpaceOnUse"><stop offset="0" stop-color="#ec7d2a"/><stop offset="0.51" stop-color="#b65127"/></linearGradient><linearGradient id="linear-gradient-4" x1="-3389.53" y1="980.08" x2="-3389.53" y2="971.62" xlink:href="#linear-gradient-2"/><linearGradient id="linear-gradient-5" x1="-3382.95" y1="976.4" x2="-3382.95" y2="967.24" xlink:href="#linear-gradient-3"/><linearGradient id="linear-gradient-6" x1="-3297.15" y1="979.61" x2="-3297.15" y2="947.54" gradientTransform="matrix(-0.96, 0.27, 0.27, 0.96, -3414.46, 19.9)" gradientUnits="userSpaceOnUse"><stop offset="0.35" stop-color="#ddbb7f"/><stop offset="0.74" stop-color="#f9d78e"/></linearGradient><linearGradient id="linear-gradient-7" x1="-3320.57" y1="966.35" x2="-3320.57" y2="946.33" gradientTransform="matrix(-0.96, 0.27, 0.27, 0.96, -3414.46, 19.9)" gradientUnits="userSpaceOnUse"><stop offset="0.24" stop-color="#bc5927"/><stop offset="1" stop-color="#e37729"/><stop offset="1" stop-color="#ec7d2a"/></linearGradient><linearGradient id="linear-gradient-8" x1="-3361.59" y1="967.12" x2="-3361.59" y2="945.02" gradientTransform="matrix(-0.96, 0.27, 0.27, 0.96, -3414.46, 19.9)" gradientUnits="userSpaceOnUse"><stop offset="0.22" stop-color="#ddbb7f"/><stop offset="0.43" stop-color="#f9d78e"/></linearGradient><linearGradient id="linear-gradient-9" x1="-3383.56" y1="983.85" x2="-3383.56" y2="970.93" xlink:href="#linear-gradient-2"/><linearGradient id="linear-gradient-10" x1="-3327.66" y1="983.4" x2="-3327.66" y2="970.67" xlink:href="#linear-gradient-2"/><linearGradient id="linear-gradient-11" x1="-3389.4" y1="972.59" x2="-3398.12" y2="957.48" gradientTransform="matrix(-0.96, 0.27, 0.27, 0.96, -3414.46, 19.9)" gradientUnits="userSpaceOnUse"><stop offset="0.22" stop-color="#ddbb7f"/><stop offset="0.75" stop-color="#f9d78e"/></linearGradient><linearGradient id="linear-gradient-12" x1="-3369.36" y1="979.25" x2="-3369.36" y2="939.44" gradientTransform="matrix(-0.96, 0.27, 0.27, 0.96, -3414.46, 19.9)" gradientUnits="userSpaceOnUse"><stop offset="0.16" stop-color="#bc5927"/><stop offset="0.4" stop-color="#ec7d2a"/></linearGradient><linearGradient id="linear-gradient-13" x1="-3401.88" y1="955.02" x2="-3401.88" y2="950.52" gradientTransform="matrix(-0.96, 0.27, 0.27, 0.96, -3414.46, 19.9)" gradientUnits="userSpaceOnUse"><stop offset="0.22" stop-color="#ddbb7f"/><stop offset="0.52" stop-color="#f9d78e"/></linearGradient><linearGradient id="linear-gradient-14" x1="-3396.3" y1="952.08" x2="-3396.3" y2="943.32" xlink:href="#linear-gradient-13"/></defs><title>zorro</title><path class="cls-1" d="M125.5,41.14a11.1,11.1,0,0,0,1.93,3.74,20.81,20.81,0,0,0,8.44,6.3,28.72,28.72,0,0,0,3.47,1.25c.3.08.62.12.92.19l.37.1a.18.18,0,0,0,.2,0c.16-.16.34-.3.51-.45l.47-.37,0,0a27.85,27.85,0,0,0,2.52-2.69A20.82,20.82,0,0,0,149,39.68a11.25,11.25,0,0,0,0-4.21A7.41,7.41,0,0,0,146.34,31a6.26,6.26,0,0,0-3.85-1.26,6.48,6.48,0,0,0-4.3,1.77,6.23,6.23,0,0,0-1.65,3.81h0a6.18,6.18,0,0,0-3.21-2.64,6.45,6.45,0,0,0-4.63.39A6.26,6.26,0,0,0,125.84,36,7.42,7.42,0,0,0,125.5,41.14Z" transform="translate(-1.52 -1.62)"/><path class="cls-2" d="M73.92,41.77a.61.61,0,0,1-.09.49,6.82,6.82,0,0,0-.1,6.49,13.8,13.8,0,0,0,3.48,4.64.66.66,0,0,1-.41,1.14A6.37,6.37,0,0,1,72,52.33L72,52.25a23.75,23.75,0,0,1-3.25-5.52l0-.07c-1.06-3.51-1.34-9.78,3.29-10.25.94.1,1,1.52,1.2,2.53,0,0,0,.05,0,.08C73.51,40.17,73.79,41.28,73.92,41.77Z" transform="translate(-1.52 -1.62)"/><path class="cls-3" d="M73.82,30.57a29.34,29.34,0,0,0,.64,5.74,10.45,10.45,0,0,1-.54,5.74c-.43-.52-.21-1.59-.69-1.64-1.88-.45-.73,2.34-2.24,2.9-.14-1,.47-2.12.09-3.13-2,1-1.6,3.69-2.26,5.32C66.14,38.93,69.05,32,71.87,26c1.12.85.94,2.52,1.54,3.5C73.64,30.12,73.82,30.57,73.82,30.57Z" transform="translate(-1.52 -1.62)"/><path class="cls-4" d="M108.24,32.73c1.06,1,2.74,2.76,4.2,2.68,2.65,0,6.94-1.68,8.29,1.61a2.6,2.6,0,0,1-.61,1.14c-1,.14-1.84-.92-2.29-1.21-2.58-.76-5.25,1.62-8.2,1.3a5.75,5.75,0,0,1-4.3-1.91c-1.28-1.59.6-3.32,2.74-3.39Z" transform="translate(-1.52 -1.62)"/><path class="cls-5" d="M106.91,29.8a12.84,12.84,0,0,1,2.12,6c-.72-.09-1.5.3-2.16-.25a9.76,9.76,0,0,0,1,2.28c-3.11-.34-5.45-3.24-6.39-5.76-.81-1.54.28-2.63,2.72-2.21Z" transform="translate(-1.52 -1.62)"/><path class="cls-6" d="M23.75,32.53c-3.21,1-6.84,1.14-10.17,2a7.39,7.39,0,0,0-2.17,1,5.35,5.35,0,0,0-1.65,1.78c-1.14,1.57,2.16,2.41,3.75,3.3-2.6.53-4.49,1-6.41,2.93A17,17,0,0,0,3.24,50a37.18,37.18,0,0,0-1.72,12c0,2.37.75,6.57,3.63,7.09C15.35,71,23.88,56.65,27.76,46.35a18.24,18.24,0,0,1,1.58-2.29,24.44,24.44,0,0,1,9.16-6.63c1.78-.78,1.15-4-.68-4.91-3.91-1.87-8.34-1.13-12.49-.38Z" transform="translate(-1.52 -1.62)"/><path class="cls-7" d="M58.55,20.51a26,26,0,0,1-10,6.82c-.88.32-1.77.6-2.67.86-7.08,2.26-14.91.94-21,5.61,2.72,1.74,5.66,1.33,8.55,1.39-3.44,2.05-8,3.65-10.57,6.94a8.81,8.81,0,0,0-1.28,2.19,8.79,8.79,0,0,1,2.76-.91c-1.69,2.23-1.48,7.09,1.41,7.16,1,.1,1.24-2.53,2.56-3.44a9.36,9.36,0,0,1,1.89-1.51c4.12-2.51,10-2.15,14.28-4.41,1-.41,2-.86,2.92-1.34,6.6-3.38,11.5-8.62,10.58-17Z" transform="translate(-1.52 -1.62)"/><path class="cls-8" d="M95.8,31.58c-2.39-1.35-5.2-2.13-7.56-3.5-.65-.3-1.32-.58-2-.82a9.83,9.83,0,0,0-5.67-.6A11.76,11.76,0,0,0,75.75,29a16.41,16.41,0,0,0-4,4.36c-.86,1.5-1.79,3.34-2.71,5.17-1.5-4-.06-8.46,1-12.54a23.62,23.62,0,0,0,1-3.86,22.58,22.58,0,0,1,.61-2.39c1-3,2.83-5.51,6.62-6a7.79,7.79,0,0,1,1.87-.14,8.29,8.29,0,0,1,3.67,1,14.46,14.46,0,0,1,1.67,1A34.45,34.45,0,0,1,89.05,19c.56.6,1.09,1.22,1.61,1.86,2.25,2.81,4.59,5.72,6.6,8.75Z" transform="translate(-1.52 -1.62)"/><path class="cls-9" d="M104.73,35.41c.77,1.76,1.52,3.77,3.32,4.75a9.35,9.35,0,0,0,2,1.22,8.52,8.52,0,0,0,2.55.67s3.84-1.39,3.83.47c0,0-1,1.65-3.85,1.07a52,52,0,0,1-5.15-1.47l-1.4-.51c-2.35-1-7.42-3.79-7.66-6-.38-1,2.92-2,4.86-.74Z" transform="translate(-1.52 -1.62)"/><path class="cls-10" d="M58.87,54.76a3.89,3.89,0,0,1-.9.05c-.44,0-.89-.28-1.26,0C54,57.21,52.6,61.65,48.48,61.7a4.46,4.46,0,0,1-2.41-1.14.8.8,0,0,1,.52-1.4c4.33-.11,4.11-7.29,6.19-10.54,1.16-1.81,3.68-2.75,5.46-1.35,2.45,1.95,5.13,3.95,3.9,6.4-.07.15-1,.38-1.17.46a13.08,13.08,0,0,1-1.49.51A6,6,0,0,1,58.87,54.76Z" transform="translate(-1.52 -1.62)"/><path class="cls-11" d="M130.75,22.16c-3.47,3.23-8.75,2.91-13.42,3.62-4.9.68-8.39,3.94-12.82,4.67-7.38,1.15-6.89-10.16-4.79-14,2.08-3.65,9-2.67,13.19-1.26,5.87,1.6,11.59,4.63,17.77,5.76Z" transform="translate(-1.52 -1.62)"/><path class="cls-12" d="M129.48,20.58c-7-1.37-9.72-4-12.2-7.86-.62-1,2.32-3.62,3.74-5.64-2,.75-4.27,1.48-6.28,2.23-.7-2.49-.9-5.17-1.84-7.69-3.21,5.21-9.13,10.87-15.45,11.16-1.17-.4-2.39-.84-3.64-1.29C90,10.14,86,8.73,82.12,8.37A17.76,17.76,0,0,0,79.6,8.3c-.61,0-1.22,0-1.83,0s-1.2.08-1.79.16a25.55,25.55,0,0,0-11.1,5.4,37.54,37.54,0,0,0-3.09,2.83C54,23.37,55.79,34,55.54,43.11c.06,1.7-1.1,3.51-2.45,4.82a5.37,5.37,0,0,0,3.85.17,19.32,19.32,0,0,1-1.34,3.48c1,.1,1.86-1.5,2.95-.41.64.79-.5,2.36,0,2.65,6.11,1.62,8.33-5.63,9.3-10.12,1.38-6.14,2.7-11.8,4.52-17.58.59-1.5,1.23-3,1.94-4.51a5.88,5.88,0,0,1,1.12-1.35A5.13,5.13,0,0,1,78.85,19a7.54,7.54,0,0,1,1.5.06,15.53,15.53,0,0,1,7.35,3.32,20.26,20.26,0,0,1,1.94,1.76,52.75,52.75,0,0,1,9.13,12.44c1,1.56,2.13.47,3.54.86.48.05.66.55,1.12.84-.19-.5-.57-1.51-.3-1.72.77-.4,1.35.87,2,1.42A10.66,10.66,0,0,0,104,33.69c-1.92-3.25.3-5.92,3.13-7.55a1.48,1.48,0,0,0,.42-1.65c-1.87-2.85-6.45-5.28-5-7.78,1.16-1.81,5.41-.87,8.47-.06,4.94,1.25,9.2,4.36,14.49,4.52A9,9,0,0,0,129.48,20.58Z" transform="translate(-1.52 -1.62)"/><path class="cls-13" d="M121,7.19c-1.8,1.14-4,1.63-5.64,3.15-1.1,1.33.76,2,1.38,2.73Z" transform="translate(-1.52 -1.62)"/><path class="cls-14" d="M113.07,2c-1,3.19-2.08,6.22-3.15,9.49,1.7-.06,4.35,0,4.58-2.17a9.16,9.16,0,0,0-.58-3.6C113.49,3.82,113.07,2,113.07,2Z" transform="translate(-1.52 -1.62)"/><path class="cls-15" d="M130.74,22.08c.35-.63,1.81-.72.95-1.78-.45-.29-3.61-.14-2.51,1.46A2.26,2.26,0,0,0,130.74,22.08Z" transform="translate(-1.52 -1.62)"/><path d="M117.42,17.18a3.45,3.45,0,0,1,3.36,1.23c.13-1.19-1.26-1.82-2.28-1.9A1.35,1.35,0,0,0,117.42,17.18Z" transform="translate(-1.52 -1.62)"/></svg>